<?xml version="1.0" encoding="UTF-8"?>
<svg xmlns="http://www.w3.org/2000/svg" width="2000" height="1325.0">
<text x="40.0" y="88.0" font-size="80">
Beefburger (In N Out Style)<tspan font-size="40">&#160;&#160;by Joshua Weissman</tspan></text>
<polyline points="0,0 0,1325.0 " 
style="fill:none;stroke:black;stroke-width:2" /><polyline points="2000,0 2000,1325.0 " 
style="fill:none;stroke:black;stroke-width:2" /><polyline points="500,125.0 500,1325.0 " 
style="fill:none;stroke:black;stroke-width:2" /><polyline points="1000,125.0 1000,1325.0 " 
style="fill:none;stroke:black;stroke-width:2" /><polyline points="1500,125.0 1500,1325.0 " 
style="fill:none;stroke:black;stroke-width:2" /><polyline points="0,0 2000,0 " 
style="fill:none;stroke:black;stroke-width:2" /><polyline points="0,125.0 2000,125.0 " 
style="fill:none;stroke:black;stroke-width:2" /><polyline points="0,1325.0 2000,1325.0 " 
style="fill:none;stroke:black;stroke-width:2" /><polyline points="0,525.0 1500,525.0 " 
style="fill:none;stroke:black;stroke-width:2" /><polyline points="0,925.0 1500,925.0 " 
style="fill:none;stroke:black;stroke-width:2" /><text
x="10.0" y="165.0"
text-anchor="left"
style="font-family:Arial;font-size:40"> 
1 </text>
<text
x="70.0" y="165.0"
text-anchor="left"
style="font-family:Arial;font-size:30"> 
&#8729; 500 g high-fat minced beef </text>
<text
x="70.0" y="195.0"
text-anchor="left"
style="font-family:Arial;font-size:30"> 
&#8729; 2 tsp salt </text>
<text
x="70.0" y="225.0"
text-anchor="left"
style="font-family:Arial;font-size:30"> 
&#8729; 2 tsp black pepper </text>
<text
x="70.0" y="255.0"
text-anchor="left"
style="font-family:Arial;font-size:30"> 
&#8729; 1 tsp onion powder </text>
<text
x="70.0" y="285.0"
text-anchor="left"
style="font-family:Arial;font-size:30"> 
&#8729; 1 tsp garlic powder </text>
<polyline points="125.0,345.0 155.0,425.0 345.0,425.0 375.0,345.0" 
style="fill:none;stroke:black;stroke-width:2" /><text
x="250.0" y="485.0"
text-anchor="middle"
style="font-family:Arial;font-size:40"> 
MIX &amp; FORM </text>
<text
x="1510.0" y="165.0"
text-anchor="left"
style="font-family:Arial;font-size:40"> 
1 </text>
<text
x="1550.0" y="165.0"
text-anchor="left"
style="font-family:Arial;font-size:30"> 
The fat content should be at </text>
<text
x="1550.0" y="195.0"
text-anchor="left"
style="font-family:Arial;font-size:30"> 
least 20 %. Form into patties </text>
<text
x="1550.0" y="225.0"
text-anchor="left"
style="font-family:Arial;font-size:30"> 
that are not too thick. </text>
<text
x="510.0" y="165.0"
text-anchor="left"
style="font-family:Arial;font-size:40"> 
2 </text>
<text
x="570.0" y="165.0"
text-anchor="left"
style="font-family:Arial;font-size:30"> 
&#8729; patties </text>
<text
x="570.0" y="195.0"
text-anchor="left"
style="font-family:Arial;font-size:30"> 
&#8729; 1 tsp salt </text>
<text
x="570.0" y="225.0"
text-anchor="left"
style="font-family:Arial;font-size:30"> 
&#8729; 2 tbsp vegetable oil </text>
<polyline points="560.0,369.0 580.0,401.0 770.0,401.0 790.0,369.0" 
style="fill:none;stroke:black;stroke-width:2" /><polyline points="782.5,385.0 925.0,385.0" 
style="fill:none;stroke:black;stroke-width:2" /><text
x="800.0" y="425.0"
text-anchor="left"
style="font-family:Arial;font-size:30"> 
A </text>
<text
x="750.0" y="485.0"
text-anchor="middle"
style="font-family:Arial;font-size:38"> 
SEASON &amp; FRY </text>
<text
x="1510.0" y="295.0"
text-anchor="left"
style="font-family:Arial;font-size:40"> 
2 </text>
<text
x="1550.0" y="295.0"
text-anchor="left"
style="font-family:Arial;font-size:30"> 
Season the outside of each </text>
<text
x="1550.0" y="325.0"
text-anchor="left"
style="font-family:Arial;font-size:30"> 
patty with salt, then fry on a </text>
<text
x="1550.0" y="355.0"
text-anchor="left"
style="font-family:Arial;font-size:30"> 
medium-high heat to brown both </text>
<text
x="1550.0" y="385.0"
text-anchor="left"
style="font-family:Arial;font-size:30"> 
sides without burning. </text>
<text
x="1010.0" y="165.0"
text-anchor="left"
style="font-family:Arial;font-size:40"> 
3 </text>
<text
x="1070.0" y="165.0"
text-anchor="left"
style="font-family:Arial;font-size:30"> 
&#8729; 2 tbsp butter </text>
<text
x="1070.0" y="195.0"
text-anchor="left"
style="font-family:Arial;font-size:30"> 
&#8729; fresh thyme </text>
<text
x="1070.0" y="225.0"
text-anchor="left"
style="font-family:Arial;font-size:30"> 
&#8729; 2 garlic cloves (halved) </text>
<polyline points="1060.0,369.0 1080.0,401.0 1270.0,401.0 1290.0,369.0" 
style="fill:none;stroke:black;stroke-width:2" /><polyline points="1282.5,385.0 1425.0,385.0" 
style="fill:none;stroke:black;stroke-width:2" /><text
x="1300.0" y="425.0"
text-anchor="left"
style="font-family:Arial;font-size:30"> 
A </text>
<text
x="1250.0" y="485.0"
text-anchor="middle"
style="font-family:Arial;font-size:40"> 
BASTE </text>
<text
x="10.0" y="565.0"
text-anchor="left"
style="font-family:Arial;font-size:40"> 
4 </text>
<text
x="70.0" y="565.0"
text-anchor="left"
style="font-family:Arial;font-size:30"> 
&#8729; brioche buns </text>
<text
x="70.0" y="595.0"
text-anchor="left"
style="font-family:Arial;font-size:30"> 
&#8729; 2 tsp butter </text>
<polyline points="60.0,769.0 80.0,801.0 270.0,801.0 290.0,769.0" 
style="fill:none;stroke:black;stroke-width:2" /><polyline points="282.5,785.0 425.0,785.0" 
style="fill:none;stroke:black;stroke-width:2" /><text
x="300.0" y="825.0"
text-anchor="left"
style="font-family:Arial;font-size:30"> 
B </text>
<text
x="250.0" y="885.0"
text-anchor="middle"
style="font-family:Arial;font-size:40"> 
TOAST </text>
<text
x="1510.0" y="455.0"
text-anchor="left"
style="font-family:Arial;font-size:40"> 
4 </text>
<text
x="1550.0" y="455.0"
text-anchor="left"
style="font-family:Arial;font-size:30"> 
Lightly toast the inside of </text>
<text
x="1550.0" y="485.0"
text-anchor="left"
style="font-family:Arial;font-size:30"> 
each bun. </text>
<text
x="510.0" y="565.0"
text-anchor="left"
style="font-family:Arial;font-size:40"> 
5 </text>
<text
x="570.0" y="565.0"
text-anchor="left"
style="font-family:Arial;font-size:30"> 
&#8729; white onion (sliced) </text>
<polyline points="560.0,769.0 580.0,801.0 770.0,801.0 790.0,769.0" 
style="fill:none;stroke:black;stroke-width:2" /><polyline points="782.5,785.0 925.0,785.0" 
style="fill:none;stroke:black;stroke-width:2" /><text
x="800.0" y="825.0"
text-anchor="left"
style="font-family:Arial;font-size:30"> 
A </text>
<text
x="750.0" y="885.0"
text-anchor="middle"
style="font-family:Arial;font-size:40"> 
FRY </text>
<text
x="1510.0" y="555.0"
text-anchor="left"
style="font-family:Arial;font-size:40"> 
5 </text>
<text
x="1550.0" y="555.0"
text-anchor="left"
style="font-family:Arial;font-size:30"> 
Cook the onion in the burger </text>
<text
x="1550.0" y="585.0"
text-anchor="left"
style="font-family:Arial;font-size:30"> 
juices until lightly browned </text>
<text
x="1550.0" y="615.0"
text-anchor="left"
style="font-family:Arial;font-size:30"> 
on both sides. </text>
<text
x="1010.0" y="565.0"
text-anchor="left"
style="font-family:Arial;font-size:40"> 
6 </text>
<text
x="1070.0" y="565.0"
text-anchor="left"
style="font-family:Arial;font-size:30"> 
&#8729; cooked patties </text>
<text
x="1070.0" y="595.0"
text-anchor="left"
style="font-family:Arial;font-size:30"> 
&#8729; cheese slices </text>
<text
x="1070.0" y="625.0"
text-anchor="left"
style="font-family:Arial;font-size:30"> 
&#8729; cooked onion slices </text>
<polyline points="1060.0,769.0 1080.0,801.0 1270.0,801.0 1290.0,769.0" 
style="fill:none;stroke:black;stroke-width:2" /><polyline points="1282.5,785.0 1425.0,785.0" 
style="fill:none;stroke:black;stroke-width:2" /><text
x="1300.0" y="825.0"
text-anchor="left"
style="font-family:Arial;font-size:30"> 
A </text>
<text
x="1250.0" y="885.0"
text-anchor="middle"
style="font-family:Arial;font-size:38"> 
COVER &amp; ASSEMBLE </text>
<text
x="1510.0" y="685.0"
text-anchor="left"
style="font-family:Arial;font-size:40"> 
6 </text>
<text
x="1550.0" y="685.0"
text-anchor="left"
style="font-family:Arial;font-size:30"> 
Cover with a lid to melt the </text>
<text
x="1550.0" y="715.0"
text-anchor="left"
style="font-family:Arial;font-size:30"> 
cheese, then put together in </text>
<text
x="1550.0" y="745.0"
text-anchor="left"
style="font-family:Arial;font-size:30"> 
the order: patty, cheese, </text>
<text
x="1550.0" y="775.0"
text-anchor="left"
style="font-family:Arial;font-size:30"> 
onion, patty, cheese. Ideally </text>
<text
x="1550.0" y="805.0"
text-anchor="left"
style="font-family:Arial;font-size:30"> 
use slices of cheddar, Munster </text>
<text
x="1550.0" y="835.0"
text-anchor="left"
style="font-family:Arial;font-size:30"> 
or Monterey Jack cheese. </text>
<text
x="10.0" y="965.0"
text-anchor="left"
style="font-family:Arial;font-size:40"> 
7 </text>
<text
x="70.0" y="965.0"
text-anchor="left"
style="font-family:Arial;font-size:30"> 
&#8729; patty ensemble </text>
<text
x="70.0" y="995.0"
text-anchor="left"
style="font-family:Arial;font-size:30"> 
&#8729; toasted buns </text>
<text
x="70.0" y="1025.0"
text-anchor="left"
style="font-family:Arial;font-size:30"> 
&#8729; burger sauce </text>
<text
x="70.0" y="1055.0"
text-anchor="left"
style="font-family:Arial;font-size:30"> 
&#8729; tomato (sliced) </text>
<text
x="70.0" y="1085.0"
text-anchor="left"
style="font-family:Arial;font-size:30"> 
&#8729; lettuce (sliced) </text>
<polyline points="100.0,1169.0 150.0,1201.0 350.0,1201.0 400.0,1169.0" 
style="fill:none;stroke:black;stroke-width:2" /><text
x="250.0" y="1285.0"
text-anchor="middle"
style="font-family:Arial;font-size:40"> 
ASSEMBLE </text>
<text
x="1510.0" y="905.0"
text-anchor="left"
style="font-family:Arial;font-size:40"> 
7 </text>
<text
x="1550.0" y="905.0"
text-anchor="left"
style="font-family:Arial;font-size:30"> 
Construct the burger in the </text>
<text
x="1550.0" y="935.0"
text-anchor="left"
style="font-family:Arial;font-size:30"> 
order: bun, sauce, tomato, </text>
<text
x="1550.0" y="965.0"
text-anchor="left"
style="font-family:Arial;font-size:30"> 
lettuce, patty ensemble, </text>
<text
x="1550.0" y="995.0"
text-anchor="left"
style="font-family:Arial;font-size:30"> 
sauce, bun. Ideally use large </text>
<text
x="1550.0" y="1025.0"
text-anchor="left"
style="font-family:Arial;font-size:30"> 
beef tomatoes. </text>
</svg>