<?xml version="1.0" encoding="UTF-8"?>
<svg xmlns="http://www.w3.org/2000/svg" width="2000" height="1725.0">
<text x="40.0" y="88.0" font-size="80">
Boeuf Bourguignon<tspan font-size="40">&#160;&#160;by Cafe Delites</tspan></text>
<polyline points="0,0 0,1725.0 " 
style="fill:none;stroke:black;stroke-width:2" /><polyline points="2000,0 2000,1725.0 " 
style="fill:none;stroke:black;stroke-width:2" /><polyline points="500,125.0 500,1725.0 " 
style="fill:none;stroke:black;stroke-width:2" /><polyline points="1000,125.0 1000,1725.0 " 
style="fill:none;stroke:black;stroke-width:2" /><polyline points="1500,125.0 1500,1725.0 " 
style="fill:none;stroke:black;stroke-width:2" /><polyline points="0,0 2000,0 " 
style="fill:none;stroke:black;stroke-width:2" /><polyline points="0,125.0 2000,125.0 " 
style="fill:none;stroke:black;stroke-width:2" /><polyline points="0,1725.0 2000,1725.0 " 
style="fill:none;stroke:black;stroke-width:2" /><polyline points="0,525.0 1500,525.0 " 
style="fill:none;stroke:black;stroke-width:2" /><polyline points="0,925.0 1500,925.0 " 
style="fill:none;stroke:black;stroke-width:2" /><polyline points="0,1325.0 1500,1325.0 " 
style="fill:none;stroke:black;stroke-width:2" /><text
x="10.0" y="165.0"
text-anchor="left"
style="font-family:Arial;font-size:40"> 
1 </text>
<text
x="70.0" y="165.0"
text-anchor="left"
style="font-family:Arial;font-size:30"> 
&#8729; 120 g bacon lardons </text>
<text
x="70.0" y="195.0"
text-anchor="left"
style="font-family:Arial;font-size:30"> 
&#8729; 1 tbsp olive oil </text>
<polyline points="125.0,345.0 135.0,425.0 365.0,425.0 375.0,345.0" 
style="fill:none;stroke:black;stroke-width:2" /><polyline points="130.0,345.0 110.0,345.0" 
style="fill:none;stroke:black;stroke-width:2" /><polyline points="370.0,345.0 390.0,345.0" 
style="fill:none;stroke:black;stroke-width:2" /><text
x="250.0" y="485.0"
text-anchor="middle"
style="font-family:Arial;font-size:40"> 
FRY </text>
<text
x="510.0" y="165.0"
text-anchor="left"
style="font-family:Arial;font-size:40"> 
2 </text>
<text
x="570.0" y="165.0"
text-anchor="left"
style="font-family:Arial;font-size:30"> 
&#8729; REMOVE fried bacon lardons </text>
<text
x="570.0" y="195.0"
text-anchor="left"
style="font-family:Arial;font-size:30"> 
&#8729; 1500 g stewing beef </text>
<polyline points="625.0,345.0 635.0,425.0 865.0,425.0 875.0,345.0" 
style="fill:none;stroke:black;stroke-width:2" /><polyline points="630.0,345.0 610.0,345.0" 
style="fill:none;stroke:black;stroke-width:2" /><polyline points="870.0,345.0 890.0,345.0" 
style="fill:none;stroke:black;stroke-width:2" /><text
x="750.0" y="485.0"
text-anchor="middle"
style="font-family:Arial;font-size:40"> 
FRY </text>
<text
x="1510.0" y="165.0"
text-anchor="left"
style="font-family:Arial;font-size:40"> 
2 </text>
<text
x="1550.0" y="165.0"
text-anchor="left"
style="font-family:Arial;font-size:30"> 
Set aside the bacon lardons </text>
<text
x="1550.0" y="195.0"
text-anchor="left"
style="font-family:Arial;font-size:30"> 
for later. Sear all sides of </text>
<text
x="1550.0" y="225.0"
text-anchor="left"
style="font-family:Arial;font-size:30"> 
the beef without cooking it </text>
<text
x="1550.0" y="255.0"
text-anchor="left"
style="font-family:Arial;font-size:30"> 
through. </text>
<text
x="1010.0" y="165.0"
text-anchor="left"
style="font-family:Arial;font-size:40"> 
3 </text>
<text
x="1070.0" y="165.0"
text-anchor="left"
style="font-family:Arial;font-size:30"> 
&#8729; REMOVE beef </text>
<text
x="1070.0" y="195.0"
text-anchor="left"
style="font-family:Arial;font-size:30"> 
&#8729; 1 large white onion </text>
<text
x="1090.0" y="225.0"
text-anchor="left"
style="font-family:Arial;font-size:30"> 
(diced) </text>
<text
x="1070.0" y="255.0"
text-anchor="left"
style="font-family:Arial;font-size:30"> 
&#8729; 1 large carrot (diced) </text>
<text
x="1070.0" y="285.0"
text-anchor="left"
style="font-family:Arial;font-size:30"> 
&#8729; 1 tsp salt </text>
<text
x="1070.0" y="315.0"
text-anchor="left"
style="font-family:Arial;font-size:30"> 
&#8729; 1 tsp black pepper </text>
<polyline points="1125.0,345.0 1135.0,425.0 1365.0,425.0 1375.0,345.0" 
style="fill:none;stroke:black;stroke-width:2" /><polyline points="1130.0,345.0 1110.0,345.0" 
style="fill:none;stroke:black;stroke-width:2" /><polyline points="1370.0,345.0 1390.0,345.0" 
style="fill:none;stroke:black;stroke-width:2" /><text
x="1250.0" y="485.0"
text-anchor="middle"
style="font-family:Arial;font-size:40"> 
FRY </text>
<text
x="1510.0" y="325.0"
text-anchor="left"
style="font-family:Arial;font-size:40"> 
3 </text>
<text
x="1550.0" y="325.0"
text-anchor="left"
style="font-family:Arial;font-size:30"> 
Fry on a low heat and scrub </text>
<text
x="1550.0" y="355.0"
text-anchor="left"
style="font-family:Arial;font-size:30"> 
the bottom of the pan with </text>
<text
x="1550.0" y="385.0"
text-anchor="left"
style="font-family:Arial;font-size:30"> 
wooden spoon. </text>
<text
x="10.0" y="565.0"
text-anchor="left"
style="font-family:Arial;font-size:40"> 
4 </text>
<text
x="70.0" y="565.0"
text-anchor="left"
style="font-family:Arial;font-size:30"> 
&#8729; 4 cloves garlic (crushed) </text>
<polyline points="125.0,745.0 135.0,825.0 365.0,825.0 375.0,745.0" 
style="fill:none;stroke:black;stroke-width:2" /><polyline points="130.0,745.0 110.0,745.0" 
style="fill:none;stroke:black;stroke-width:2" /><polyline points="370.0,745.0 390.0,745.0" 
style="fill:none;stroke:black;stroke-width:2" /><text
x="250.0" y="885.0"
text-anchor="middle"
style="font-family:Arial;font-size:40"> 
HEAT &amp; MIX </text>
<text
x="510.0" y="565.0"
text-anchor="left"
style="font-family:Arial;font-size:40"> 
5 </text>
<text
x="570.0" y="565.0"
text-anchor="left"
style="font-family:Arial;font-size:30"> 
&#8729; fried beef </text>
<text
x="570.0" y="595.0"
text-anchor="left"
style="font-family:Arial;font-size:30"> 
&#8729; fried bacon lardons </text>
<text
x="570.0" y="625.0"
text-anchor="left"
style="font-family:Arial;font-size:30"> 
&#8729; 1 tsp salt </text>
<text
x="570.0" y="655.0"
text-anchor="left"
style="font-family:Arial;font-size:30"> 
&#8729; 1 tsp black pepper </text>
<text
x="570.0" y="685.0"
text-anchor="left"
style="font-family:Arial;font-size:30"> 
&#8729; 2 tbsp plain flour </text>
<polyline points="625.0,745.0 635.0,825.0 865.0,825.0 875.0,745.0" 
style="fill:none;stroke:black;stroke-width:2" /><polyline points="630.0,745.0 610.0,745.0" 
style="fill:none;stroke:black;stroke-width:2" /><polyline points="870.0,745.0 890.0,745.0" 
style="fill:none;stroke:black;stroke-width:2" /><text
x="750.0" y="885.0"
text-anchor="middle"
style="font-family:Arial;font-size:40"> 
HEAT &amp; MIX </text>
<text
x="1010.0" y="565.0"
text-anchor="left"
style="font-family:Arial;font-size:40"> 
6 </text>
<text
x="1070.0" y="565.0"
text-anchor="left"
style="font-family:Arial;font-size:30"> 
&#8729; 12 pearl onions </text>
<text
x="1070.0" y="595.0"
text-anchor="left"
style="font-family:Arial;font-size:30"> 
&#8729; 700 ml red wine </text>
<text
x="1070.0" y="625.0"
text-anchor="left"
style="font-family:Arial;font-size:30"> 
&#8729; 475 ml beef stock </text>
<polyline points="1125.0,745.0 1135.0,825.0 1365.0,825.0 1375.0,745.0" 
style="fill:none;stroke:black;stroke-width:2" /><polyline points="1130.0,745.0 1110.0,745.0" 
style="fill:none;stroke:black;stroke-width:2" /><polyline points="1370.0,745.0 1390.0,745.0" 
style="fill:none;stroke:black;stroke-width:2" /><text
x="1250.0" y="885.0"
text-anchor="middle"
style="font-family:Arial;font-size:40"> 
SIMMER </text>
<text
x="10.0" y="965.0"
text-anchor="left"
style="font-family:Arial;font-size:40"> 
7 </text>
<text
x="70.0" y="965.0"
text-anchor="left"
style="font-family:Arial;font-size:30"> 
&#8729; 2 tbsp tomato puree </text>
<text
x="70.0" y="995.0"
text-anchor="left"
style="font-family:Arial;font-size:30"> 
&#8729; 1 beef bouillon cube </text>
<text
x="90.0" y="1025.0"
text-anchor="left"
style="font-family:Arial;font-size:30"> 
(crushed) </text>
<text
x="70.0" y="1055.0"
text-anchor="left"
style="font-family:Arial;font-size:30"> 
&#8729; 1 tsp fresh thyme </text>
<text
x="70.0" y="1085.0"
text-anchor="left"
style="font-family:Arial;font-size:30"> 
&#8729; 2 tbsp fresh parsley </text>
<text
x="70.0" y="1115.0"
text-anchor="left"
style="font-family:Arial;font-size:30"> 
&#8729; 2 bay leaves </text>
<polyline points="125.0,1145.0 135.0,1225.0 365.0,1225.0 375.0,1145.0" 
style="fill:none;stroke:black;stroke-width:2" /><polyline points="130.0,1145.0 110.0,1145.0" 
style="fill:none;stroke:black;stroke-width:2" /><polyline points="370.0,1145.0 390.0,1145.0" 
style="fill:none;stroke:black;stroke-width:2" /><text
x="250.0" y="1285.0"
text-anchor="middle"
style="font-family:Arial;font-size:38"> 
COVER &amp; ROAST </text>
<text
x="1510.0" y="455.0"
text-anchor="left"
style="font-family:Arial;font-size:40"> 
7 </text>
<text
x="1550.0" y="455.0"
text-anchor="left"
style="font-family:Arial;font-size:30"> 
Transfer to the oven to cook </text>
<text
x="1550.0" y="485.0"
text-anchor="left"
style="font-family:Arial;font-size:30"> 
at 175 C for 2 to 3 hours. </text>
<text
x="510.0" y="965.0"
text-anchor="left"
style="font-family:Arial;font-size:40"> 
8 </text>
<text
x="570.0" y="965.0"
text-anchor="left"
style="font-family:Arial;font-size:30"> 
&#8729; 2 cloves garlic (crushed) </text>
<text
x="570.0" y="995.0"
text-anchor="left"
style="font-family:Arial;font-size:30"> 
&#8729; 2 tbsp butter </text>
<polyline points="560.0,1169.0 580.0,1201.0 770.0,1201.0 790.0,1169.0" 
style="fill:none;stroke:black;stroke-width:2" /><polyline points="782.5,1185.0 925.0,1185.0" 
style="fill:none;stroke:black;stroke-width:2" /><text
x="750.0" y="1285.0"
text-anchor="middle"
style="font-family:Arial;font-size:40"> 
FRY </text>
<text
x="1510.0" y="555.0"
text-anchor="left"
style="font-family:Arial;font-size:40"> 
8 </text>
<text
x="1550.0" y="555.0"
text-anchor="left"
style="font-family:Arial;font-size:30"> 
Begin frying on a gently heat </text>
<text
x="1550.0" y="585.0"
text-anchor="left"
style="font-family:Arial;font-size:30"> 
as the beef approaches the end </text>
<text
x="1550.0" y="615.0"
text-anchor="left"
style="font-family:Arial;font-size:30"> 
of its time in the oven. </text>
<text
x="1010.0" y="965.0"
text-anchor="left"
style="font-family:Arial;font-size:40"> 
9 </text>
<text
x="1070.0" y="965.0"
text-anchor="left"
style="font-family:Arial;font-size:30"> 
&#8729; 450 g button mushrooms </text>
<text
x="1090.0" y="995.0"
text-anchor="left"
style="font-family:Arial;font-size:30"> 
(whole) </text>
<text
x="1070.0" y="1025.0"
text-anchor="left"
style="font-family:Arial;font-size:30"> 
&#8729; 1/2 tsp salt </text>
<text
x="1070.0" y="1055.0"
text-anchor="left"
style="font-family:Arial;font-size:30"> 
&#8729; 1/2 tsp black pepper </text>
<polyline points="1060.0,1169.0 1080.0,1201.0 1270.0,1201.0 1290.0,1169.0" 
style="fill:none;stroke:black;stroke-width:2" /><polyline points="1282.5,1185.0 1425.0,1185.0" 
style="fill:none;stroke:black;stroke-width:2" /><text
x="1250.0" y="1285.0"
text-anchor="middle"
style="font-family:Arial;font-size:40"> 
FRY </text>
<text
x="1510.0" y="685.0"
text-anchor="left"
style="font-family:Arial;font-size:40"> 
9 </text>
<text
x="1550.0" y="685.0"
text-anchor="left"
style="font-family:Arial;font-size:30"> 
Brown the mushrooms wihtou </text>
<text
x="1550.0" y="715.0"
text-anchor="left"
style="font-family:Arial;font-size:30"> 
burning the garlic. </text>
<text
x="10.0" y="1365.0"
text-anchor="left"
style="font-family:Arial;font-size:40"> 
10 </text>
<text
x="70.0" y="1365.0"
text-anchor="left"
style="font-family:Arial;font-size:30"> 
&#8729; casserole sauce </text>
<polyline points="50.0,1545.0 70.0,1625.0 270.0,1625.0 290.0,1545.0" 
style="fill:none;stroke:black;stroke-width:2" /><polyline points="286.00000000000006,1561.0 450.0,1561.0" 
style="fill:none;stroke:black;stroke-width:2" /><text
x="250.0" y="1685.0"
text-anchor="middle"
style="font-family:Arial;font-size:38"> 
SIEVE &amp; BOIL </text>
<text
x="1510.0" y="785.0"
text-anchor="left"
style="font-family:Arial;font-size:40"> 
10 </text>
<text
x="1570.0" y="785.0"
text-anchor="left"
style="font-family:Arial;font-size:30"> 
Boil to reduce the sauce. </text>
<text
x="1570.0" y="815.0"
text-anchor="left"
style="font-family:Arial;font-size:30"> 
Skim off any fat rising to </text>
<text
x="1570.0" y="845.0"
text-anchor="left"
style="font-family:Arial;font-size:30"> 
the surface. </text>
<text
x="510.0" y="1365.0"
text-anchor="left"
style="font-family:Arial;font-size:40"> 
11 </text>
<text
x="570.0" y="1365.0"
text-anchor="left"
style="font-family:Arial;font-size:30"> 
&#8729; REMOVE bay leaves </text>
<text
x="570.0" y="1395.0"
text-anchor="left"
style="font-family:Arial;font-size:30"> 
&#8729; frying pan contents </text>
<text
x="570.0" y="1425.0"
text-anchor="left"
style="font-family:Arial;font-size:30"> 
&#8729; saucepan contents </text>
<polyline points="625.0,1545.0 635.0,1625.0 865.0,1625.0 875.0,1545.0" 
style="fill:none;stroke:black;stroke-width:2" /><polyline points="630.0,1545.0 610.0,1545.0" 
style="fill:none;stroke:black;stroke-width:2" /><polyline points="870.0,1545.0 890.0,1545.0" 
style="fill:none;stroke:black;stroke-width:2" /><text
x="750.0" y="1685.0"
text-anchor="middle"
style="font-family:Arial;font-size:40"> 
SIMMER </text>
<text
x="1510.0" y="915.0"
text-anchor="left"
style="font-family:Arial;font-size:40"> 
11 </text>
<text
x="1570.0" y="915.0"
text-anchor="left"
style="font-family:Arial;font-size:30"> 
Thicken with flour-butter </text>
<text
x="1570.0" y="945.0"
text-anchor="left"
style="font-family:Arial;font-size:30"> 
mix if necessary. Serve with </text>
<text
x="1570.0" y="975.0"
text-anchor="left"
style="font-family:Arial;font-size:30"> 
mash potato and a fresh </text>
<text
x="1570.0" y="1005.0"
text-anchor="left"
style="font-family:Arial;font-size:30"> 
parsley garnish. </text>
</svg>