<?xml version="1.0" encoding="UTF-8"?>
<svg xmlns="http://www.w3.org/2000/svg" width="2000" height="2525.0">
<text x="40.0" y="88.0" font-size="80">
Eclairs<tspan font-size="40">&#160;&#160;by Home Cooking Adventure</tspan></text>
<polyline points="0,0 0,2525.0 " 
style="fill:none;stroke:black;stroke-width:2" /><polyline points="2000,0 2000,2525.0 " 
style="fill:none;stroke:black;stroke-width:2" /><polyline points="500,125.0 500,2525.0 " 
style="fill:none;stroke:black;stroke-width:2" /><polyline points="1000,125.0 1000,2525.0 " 
style="fill:none;stroke:black;stroke-width:2" /><polyline points="1500,125.0 1500,2525.0 " 
style="fill:none;stroke:black;stroke-width:2" /><polyline points="0,0 2000,0 " 
style="fill:none;stroke:black;stroke-width:2" /><polyline points="0,125.0 2000,125.0 " 
style="fill:none;stroke:black;stroke-width:2" /><polyline points="0,2525.0 2000,2525.0 " 
style="fill:none;stroke:black;stroke-width:2" /><polyline points="0,525.0 1500,525.0 " 
style="fill:none;stroke:black;stroke-width:2" /><polyline points="0,925.0 1500,925.0 " 
style="fill:none;stroke:black;stroke-width:2" /><polyline points="0,1325.0 1500,1325.0 " 
style="fill:none;stroke:black;stroke-width:2" /><polyline points="0,1725.0 1500,1725.0 " 
style="fill:none;stroke:black;stroke-width:2" /><polyline points="0,2125.0 1500,2125.0 " 
style="fill:none;stroke:black;stroke-width:2" /><text
x="10.0" y="165.0"
text-anchor="left"
style="font-family:Arial;font-size:40"> 
1 </text>
<text
x="70.0" y="165.0"
text-anchor="left"
style="font-family:Arial;font-size:30"> 
&#8729; 4 egg yolks </text>
<text
x="70.0" y="195.0"
text-anchor="left"
style="font-family:Arial;font-size:30"> 
&#8729; 70 g caster sugar </text>
<polyline points="125.0,345.0 155.0,425.0 345.0,425.0 375.0,345.0" 
style="fill:none;stroke:black;stroke-width:2" /><text
x="410.0" y="425.0"
text-anchor="left"
style="font-family:Arial;font-size:30"> 
A </text>
<text
x="250.0" y="485.0"
text-anchor="middle"
style="font-family:Arial;font-size:40"> 
WHISK </text>
<text
x="510.0" y="165.0"
text-anchor="left"
style="font-family:Arial;font-size:40"> 
2 </text>
<text
x="570.0" y="165.0"
text-anchor="left"
style="font-family:Arial;font-size:30"> 
&#8729; 40 g cornflour </text>
<polyline points="625.0,345.0 655.0,425.0 845.0,425.0 875.0,345.0" 
style="fill:none;stroke:black;stroke-width:2" /><text
x="910.0" y="425.0"
text-anchor="left"
style="font-family:Arial;font-size:30"> 
A </text>
<text
x="750.0" y="485.0"
text-anchor="middle"
style="font-family:Arial;font-size:40"> 
WHISK </text>
<text
x="1010.0" y="165.0"
text-anchor="left"
style="font-family:Arial;font-size:40"> 
3 </text>
<text
x="1070.0" y="165.0"
text-anchor="left"
style="font-family:Arial;font-size:30"> 
&#8729; 480 ml whole milk </text>
<polyline points="1050.0,345.0 1070.0,425.0 1270.0,425.0 1290.0,345.0" 
style="fill:none;stroke:black;stroke-width:2" /><polyline points="1286.0,361.0 1450.0,361.0" 
style="fill:none;stroke:black;stroke-width:2" /><text
x="1300.0" y="425.0"
text-anchor="left"
style="font-family:Arial;font-size:30"> 
A </text>
<text
x="1250.0" y="485.0"
text-anchor="middle"
style="font-family:Arial;font-size:40"> 
HEAT  </text>
<text
x="10.0" y="565.0"
text-anchor="left"
style="font-family:Arial;font-size:40"> 
4 </text>
<text
x="70.0" y="565.0"
text-anchor="left"
style="font-family:Arial;font-size:30"> 
&#8729; 1/2 saucepan A contents </text>
<polyline points="125.0,745.0 155.0,825.0 345.0,825.0 375.0,745.0" 
style="fill:none;stroke:black;stroke-width:2" /><text
x="410.0" y="825.0"
text-anchor="left"
style="font-family:Arial;font-size:30"> 
A </text>
<text
x="250.0" y="885.0"
text-anchor="middle"
style="font-family:Arial;font-size:40"> 
WHISK </text>
<text
x="510.0" y="565.0"
text-anchor="left"
style="font-family:Arial;font-size:40"> 
5 </text>
<text
x="570.0" y="565.0"
text-anchor="left"
style="font-family:Arial;font-size:30"> 
&#8729; mixing bowl A contents </text>
<polyline points="550.0,745.0 570.0,825.0 770.0,825.0 790.0,745.0" 
style="fill:none;stroke:black;stroke-width:2" /><polyline points="786.0,761.0 950.0,761.0" 
style="fill:none;stroke:black;stroke-width:2" /><text
x="800.0" y="825.0"
text-anchor="left"
style="font-family:Arial;font-size:30"> 
A </text>
<text
x="750.0" y="885.0"
text-anchor="middle"
style="font-family:Arial;font-size:38"> 
WHISK &amp; HEAT </text>
<text
x="1010.0" y="565.0"
text-anchor="left"
style="font-family:Arial;font-size:40"> 
6 </text>
<text
x="1070.0" y="565.0"
text-anchor="left"
style="font-family:Arial;font-size:30"> 
&#8729; saucepan A contents </text>
<text
x="1070.0" y="595.0"
text-anchor="left"
style="font-family:Arial;font-size:30"> 
&#8729; 2 tsp vanilla paste </text>
<polyline points="1125.0,745.0 1155.0,825.0 1345.0,825.0 1375.0,745.0" 
style="fill:none;stroke:black;stroke-width:2" /><text
x="1410.0" y="825.0"
text-anchor="left"
style="font-family:Arial;font-size:30"> 
B </text>
<text
x="1250.0" y="885.0"
text-anchor="middle"
style="font-family:Arial;font-size:40"> 
COOL </text>
<text
x="1510.0" y="165.0"
text-anchor="left"
style="font-family:Arial;font-size:40"> 
6 </text>
<text
x="1550.0" y="165.0"
text-anchor="left"
style="font-family:Arial;font-size:30"> 
Cool slightly but not all the </text>
<text
x="1550.0" y="195.0"
text-anchor="left"
style="font-family:Arial;font-size:30"> 
way to room temperature. </text>
<text
x="10.0" y="965.0"
text-anchor="left"
style="font-family:Arial;font-size:40"> 
7 </text>
<text
x="70.0" y="965.0"
text-anchor="left"
style="font-family:Arial;font-size:30"> 
&#8729; 15 g unsalted butter </text>
<polyline points="125.0,1145.0 155.0,1225.0 345.0,1225.0 375.0,1145.0" 
style="fill:none;stroke:black;stroke-width:2" /><text
x="410.0" y="1225.0"
text-anchor="left"
style="font-family:Arial;font-size:30"> 
B </text>
<text
x="250.0" y="1285.0"
text-anchor="middle"
style="font-family:Arial;font-size:40"> 
MIX &amp; COVER </text>
<text
x="1510.0" y="265.0"
text-anchor="left"
style="font-family:Arial;font-size:40"> 
7 </text>
<text
x="1550.0" y="265.0"
text-anchor="left"
style="font-family:Arial;font-size:30"> 
Cover with cling film pressed </text>
<text
x="1550.0" y="295.0"
text-anchor="left"
style="font-family:Arial;font-size:30"> 
onto the cream and </text>
<text
x="1550.0" y="325.0"
text-anchor="left"
style="font-family:Arial;font-size:30"> 
refrigerate. </text>
<text
x="510.0" y="965.0"
text-anchor="left"
style="font-family:Arial;font-size:40"> 
8 </text>
<text
x="570.0" y="965.0"
text-anchor="left"
style="font-family:Arial;font-size:30"> 
&#8729; 100 ml whole milk </text>
<text
x="570.0" y="995.0"
text-anchor="left"
style="font-family:Arial;font-size:30"> 
&#8729; 100 ml water </text>
<text
x="570.0" y="1025.0"
text-anchor="left"
style="font-family:Arial;font-size:30"> 
&#8729; 80 g unsalted butter </text>
<text
x="570.0" y="1055.0"
text-anchor="left"
style="font-family:Arial;font-size:30"> 
&#8729; 2 tsp caster sugar </text>
<text
x="570.0" y="1085.0"
text-anchor="left"
style="font-family:Arial;font-size:30"> 
&#8729; 1/2 tsp salt </text>
<polyline points="550.0,1145.0 570.0,1225.0 770.0,1225.0 790.0,1145.0" 
style="fill:none;stroke:black;stroke-width:2" /><polyline points="786.0,1161.0 950.0,1161.0" 
style="fill:none;stroke:black;stroke-width:2" /><text
x="800.0" y="1225.0"
text-anchor="left"
style="font-family:Arial;font-size:30"> 
B </text>
<text
x="750.0" y="1285.0"
text-anchor="middle"
style="font-family:Arial;font-size:40"> 
HEAT  </text>
<text
x="1010.0" y="965.0"
text-anchor="left"
style="font-family:Arial;font-size:40"> 
9 </text>
<text
x="1070.0" y="965.0"
text-anchor="left"
style="font-family:Arial;font-size:30"> 
&#8729; 125 g plain flour </text>
<polyline points="1125.0,1145.0 1155.0,1225.0 1345.0,1225.0 1375.0,1145.0" 
style="fill:none;stroke:black;stroke-width:2" /><text
x="1410.0" y="1225.0"
text-anchor="left"
style="font-family:Arial;font-size:30"> 
C </text>
<text
x="1250.0" y="1285.0"
text-anchor="middle"
style="font-family:Arial;font-size:40"> 
SIFT </text>
<text
x="1510.0" y="395.0"
text-anchor="left"
style="font-family:Arial;font-size:40"> 
9 </text>
<text
x="1550.0" y="395.0"
text-anchor="left"
style="font-family:Arial;font-size:30"> 
Can use bread flour to get </text>
<text
x="1550.0" y="425.0"
text-anchor="left"
style="font-family:Arial;font-size:30"> 
crispier pastry. </text>
<text
x="10.0" y="1365.0"
text-anchor="left"
style="font-family:Arial;font-size:40"> 
10 </text>
<text
x="70.0" y="1365.0"
text-anchor="left"
style="font-family:Arial;font-size:30"> 
&#8729; mixing bowl C contents </text>
<polyline points="50.0,1545.0 70.0,1625.0 270.0,1625.0 290.0,1545.0" 
style="fill:none;stroke:black;stroke-width:2" /><polyline points="286.00000000000006,1561.0 450.0,1561.0" 
style="fill:none;stroke:black;stroke-width:2" /><text
x="300.0" y="1625.0"
text-anchor="left"
style="font-family:Arial;font-size:30"> 
B </text>
<text
x="250.0" y="1685.0"
text-anchor="middle"
style="font-family:Arial;font-size:40"> 
MIX &amp; HEAT </text>
<text
x="1510.0" y="495.0"
text-anchor="left"
style="font-family:Arial;font-size:40"> 
10 </text>
<text
x="1570.0" y="495.0"
text-anchor="left"
style="font-family:Arial;font-size:30"> 
Remove from heat to mix and </text>
<text
x="1570.0" y="525.0"
text-anchor="left"
style="font-family:Arial;font-size:30"> 
then cook for a further few </text>
<text
x="1570.0" y="555.0"
text-anchor="left"
style="font-family:Arial;font-size:30"> 
minutes to dry off excess </text>
<text
x="1570.0" y="585.0"
text-anchor="left"
style="font-family:Arial;font-size:30"> 
moisture. </text>
<text
x="510.0" y="1365.0"
text-anchor="left"
style="font-family:Arial;font-size:40"> 
11 </text>
<text
x="570.0" y="1365.0"
text-anchor="left"
style="font-family:Arial;font-size:30"> 
&#8729; saucepan B contents </text>
<polyline points="625.0,1545.0 655.0,1625.0 845.0,1625.0 875.0,1545.0" 
style="fill:none;stroke:black;stroke-width:2" /><text
x="910.0" y="1625.0"
text-anchor="left"
style="font-family:Arial;font-size:30"> 
D </text>
<text
x="750.0" y="1685.0"
text-anchor="middle"
style="font-family:Arial;font-size:40"> 
COOL </text>
<text
x="1510.0" y="655.0"
text-anchor="left"
style="font-family:Arial;font-size:40"> 
11 </text>
<text
x="1570.0" y="655.0"
text-anchor="left"
style="font-family:Arial;font-size:30"> 
Cool slightly but not all </text>
<text
x="1570.0" y="685.0"
text-anchor="left"
style="font-family:Arial;font-size:30"> 
the way to room temperature. </text>
<text
x="1010.0" y="1365.0"
text-anchor="left"
style="font-family:Arial;font-size:40"> 
12 </text>
<text
x="1070.0" y="1365.0"
text-anchor="left"
style="font-family:Arial;font-size:30"> 
&#8729; 4 eggs (beaten) </text>
<polyline points="1125.0,1545.0 1155.0,1625.0 1345.0,1625.0 1375.0,1545.0" 
style="fill:none;stroke:black;stroke-width:2" /><text
x="1410.0" y="1625.0"
text-anchor="left"
style="font-family:Arial;font-size:30"> 
D </text>
<text
x="1250.0" y="1685.0"
text-anchor="middle"
style="font-family:Arial;font-size:40"> 
MIX </text>
<text
x="1510.0" y="755.0"
text-anchor="left"
style="font-family:Arial;font-size:40"> 
12 </text>
<text
x="1570.0" y="755.0"
text-anchor="left"
style="font-family:Arial;font-size:30"> 
Add the eggs gradually. It </text>
<text
x="1570.0" y="785.0"
text-anchor="left"
style="font-family:Arial;font-size:30"> 
may not be necessary to use </text>
<text
x="1570.0" y="815.0"
text-anchor="left"
style="font-family:Arial;font-size:30"> 
all of them. Common causes </text>
<text
x="1570.0" y="845.0"
text-anchor="left"
style="font-family:Arial;font-size:30"> 
of failure in the choux </text>
<text
x="1570.0" y="875.0"
text-anchor="left"
style="font-family:Arial;font-size:30"> 
pastry are excess egg and </text>
<text
x="1570.0" y="905.0"
text-anchor="left"
style="font-family:Arial;font-size:30"> 
excess moisture. </text>
<text
x="10.0" y="1765.0"
text-anchor="left"
style="font-family:Arial;font-size:40"> 
13 </text>
<text
x="70.0" y="1765.0"
text-anchor="left"
style="font-family:Arial;font-size:30"> 
&#8729; mixing bowl D contents </text>
<polyline points="100.0,1969.0 100.0,2001.0 400.0,2001.0 400.0,1969.0" 
style="fill:none;stroke:black;stroke-width:2" /><text
x="250.0" y="2085.0"
text-anchor="middle"
style="font-family:Arial;font-size:40"> 
PIPE </text>
<text
x="1510.0" y="975.0"
text-anchor="left"
style="font-family:Arial;font-size:40"> 
13 </text>
<text
x="1570.0" y="975.0"
text-anchor="left"
style="font-family:Arial;font-size:30"> 
The choux pastry should hold </text>
<text
x="1570.0" y="1005.0"
text-anchor="left"
style="font-family:Arial;font-size:30"> 
its shape when piped. </text>
<text
x="510.0" y="1765.0"
text-anchor="left"
style="font-family:Arial;font-size:40"> 
14 </text>
<text
x="570.0" y="1765.0"
text-anchor="left"
style="font-family:Arial;font-size:30"> 
&#8729; 2 tsp icing sugar </text>
<polyline points="600.0,1969.0 600.0,2001.0 900.0,2001.0 900.0,1969.0" 
style="fill:none;stroke:black;stroke-width:2" /><text
x="750.0" y="2085.0"
text-anchor="middle"
style="font-family:Arial;font-size:40"> 
SIFT &amp; BAKE </text>
<text
x="1510.0" y="1075.0"
text-anchor="left"
style="font-family:Arial;font-size:40"> 
14 </text>
<text
x="1570.0" y="1075.0"
text-anchor="left"
style="font-family:Arial;font-size:30"> 
180C for 10 mins, then open </text>
<text
x="1570.0" y="1105.0"
text-anchor="left"
style="font-family:Arial;font-size:30"> 
the door to check and cook </text>
<text
x="1570.0" y="1135.0"
text-anchor="left"
style="font-family:Arial;font-size:30"> 
for up to a further 20 mins </text>
<text
x="1570.0" y="1165.0"
text-anchor="left"
style="font-family:Arial;font-size:30"> 
at a lower temperature. </text>
<text
x="1010.0" y="1765.0"
text-anchor="left"
style="font-family:Arial;font-size:40"> 
15 </text>
<text
x="1070.0" y="1765.0"
text-anchor="left"
style="font-family:Arial;font-size:30"> 
&#8729; mixing bowl B contents </text>
<polyline points="1100.0,1969.0 1100.0,2001.0 1400.0,2001.0 1400.0,1969.0" 
style="fill:none;stroke:black;stroke-width:2" /><text
x="1250.0" y="2085.0"
text-anchor="middle"
style="font-family:Arial;font-size:40"> 
FILL </text>
<text
x="1510.0" y="1235.0"
text-anchor="left"
style="font-family:Arial;font-size:40"> 
15 </text>
<text
x="1570.0" y="1235.0"
text-anchor="left"
style="font-family:Arial;font-size:30"> 
Poke small holes in the </text>
<text
x="1570.0" y="1265.0"
text-anchor="left"
style="font-family:Arial;font-size:30"> 
eclairs to release steam and </text>
<text
x="1570.0" y="1295.0"
text-anchor="left"
style="font-family:Arial;font-size:30"> 
leave to cool to room </text>
<text
x="1570.0" y="1325.0"
text-anchor="left"
style="font-family:Arial;font-size:30"> 
temperature. Fill the </text>
<text
x="1570.0" y="1355.0"
text-anchor="left"
style="font-family:Arial;font-size:30"> 
eclairs using a syringe </text>
<text
x="1570.0" y="1385.0"
text-anchor="left"
style="font-family:Arial;font-size:30"> 
attachment through the small </text>
<text
x="1570.0" y="1415.0"
text-anchor="left"
style="font-family:Arial;font-size:30"> 
holes. </text>
<text
x="10.0" y="2165.0"
text-anchor="left"
style="font-family:Arial;font-size:40"> 
16 </text>
<text
x="70.0" y="2165.0"
text-anchor="left"
style="font-family:Arial;font-size:30"> 
&#8729; 150 ml whipping cream </text>
<polyline points="50.0,2345.0 70.0,2425.0 270.0,2425.0 290.0,2345.0" 
style="fill:none;stroke:black;stroke-width:2" /><polyline points="286.00000000000006,2361.0 450.0,2361.0" 
style="fill:none;stroke:black;stroke-width:2" /><text
x="300.0" y="2425.0"
text-anchor="left"
style="font-family:Arial;font-size:30"> 
C </text>
<text
x="250.0" y="2485.0"
text-anchor="middle"
style="font-family:Arial;font-size:40"> 
HEAT  </text>
<text
x="510.0" y="2165.0"
text-anchor="left"
style="font-family:Arial;font-size:40"> 
17 </text>
<text
x="570.0" y="2165.0"
text-anchor="left"
style="font-family:Arial;font-size:30"> 
&#8729; saucepan C contents </text>
<text
x="570.0" y="2195.0"
text-anchor="left"
style="font-family:Arial;font-size:30"> 
&#8729; 200 g chocolate (chopped) </text>
<polyline points="625.0,2345.0 655.0,2425.0 845.0,2425.0 875.0,2345.0" 
style="fill:none;stroke:black;stroke-width:2" /><text
x="910.0" y="2425.0"
text-anchor="left"
style="font-family:Arial;font-size:30"> 
E </text>
<text
x="750.0" y="2485.0"
text-anchor="middle"
style="font-family:Arial;font-size:40"> 
MELT &amp; MIX </text>
<text
x="1510.0" y="1485.0"
text-anchor="left"
style="font-family:Arial;font-size:40"> 
17 </text>
<text
x="1570.0" y="1485.0"
text-anchor="left"
style="font-family:Arial;font-size:30"> 
Can use all dark or a </text>
<text
x="1570.0" y="1515.0"
text-anchor="left"
style="font-family:Arial;font-size:30"> 
mixture of dark and milk </text>
<text
x="1570.0" y="1545.0"
text-anchor="left"
style="font-family:Arial;font-size:30"> 
chocolate. </text>
<text
x="1010.0" y="2165.0"
text-anchor="left"
style="font-family:Arial;font-size:40"> 
18 </text>
<text
x="1070.0" y="2165.0"
text-anchor="left"
style="font-family:Arial;font-size:30"> 
&#8729; filled eclairs </text>
<polyline points="1125.0,2345.0 1155.0,2425.0 1345.0,2425.0 1375.0,2345.0" 
style="fill:none;stroke:black;stroke-width:2" /><text
x="1410.0" y="2425.0"
text-anchor="left"
style="font-family:Arial;font-size:30"> 
E </text>
<text
x="1250.0" y="2485.0"
text-anchor="middle"
style="font-family:Arial;font-size:40"> 
DIP </text>
</svg>