<?xml version="1.0" encoding="UTF-8"?>
<svg xmlns="http://www.w3.org/2000/svg" width="2000" height="1725.0">
<text x="40.0" y="88.0" font-size="80">
Poulet Au Vinaigre<tspan font-size="40">&#160;&#160;by French Cooking Academy</tspan></text>
<polyline points="0,0 0,1725.0 " 
style="fill:none;stroke:black;stroke-width:2" /><polyline points="2000,0 2000,1725.0 " 
style="fill:none;stroke:black;stroke-width:2" /><polyline points="500,125.0 500,1725.0 " 
style="fill:none;stroke:black;stroke-width:2" /><polyline points="1000,125.0 1000,1725.0 " 
style="fill:none;stroke:black;stroke-width:2" /><polyline points="1500,125.0 1500,1725.0 " 
style="fill:none;stroke:black;stroke-width:2" /><polyline points="0,0 2000,0 " 
style="fill:none;stroke:black;stroke-width:2" /><polyline points="0,125.0 2000,125.0 " 
style="fill:none;stroke:black;stroke-width:2" /><polyline points="0,1725.0 2000,1725.0 " 
style="fill:none;stroke:black;stroke-width:2" /><polyline points="0,525.0 1500,525.0 " 
style="fill:none;stroke:black;stroke-width:2" /><polyline points="0,925.0 1500,925.0 " 
style="fill:none;stroke:black;stroke-width:2" /><polyline points="0,1325.0 1500,1325.0 " 
style="fill:none;stroke:black;stroke-width:2" /><text
x="10.0" y="165.0"
text-anchor="left"
style="font-family:Arial;font-size:40"> 
1 </text>
<text
x="70.0" y="165.0"
text-anchor="left"
style="font-family:Arial;font-size:30"> 
&#8729; 8 pieces chicken </text>
<text
x="70.0" y="195.0"
text-anchor="left"
style="font-family:Arial;font-size:30"> 
&#8729; 1 tsp black pepper </text>
<text
x="70.0" y="225.0"
text-anchor="left"
style="font-family:Arial;font-size:30"> 
&#8729; 1 tsp salt </text>
<polyline points="100.0,369.0 150.0,401.0 350.0,401.0 400.0,369.0" 
style="fill:none;stroke:black;stroke-width:2" /><text
x="250.0" y="485.0"
text-anchor="middle"
style="font-family:Arial;font-size:40"> 
COAT </text>
<text
x="1510.0" y="165.0"
text-anchor="left"
style="font-family:Arial;font-size:40"> 
1 </text>
<text
x="1550.0" y="165.0"
text-anchor="left"
style="font-family:Arial;font-size:30"> 
A mixture of skin-on breast, </text>
<text
x="1550.0" y="195.0"
text-anchor="left"
style="font-family:Arial;font-size:30"> 
legs and thighs is ideal. </text>
<text
x="510.0" y="165.0"
text-anchor="left"
style="font-family:Arial;font-size:40"> 
2 </text>
<text
x="570.0" y="165.0"
text-anchor="left"
style="font-family:Arial;font-size:30"> 
&#8729; seasoned chicken </text>
<text
x="570.0" y="195.0"
text-anchor="left"
style="font-family:Arial;font-size:30"> 
&#8729; 2 tbsp butter </text>
<polyline points="625.0,345.0 635.0,425.0 865.0,425.0 875.0,345.0" 
style="fill:none;stroke:black;stroke-width:2" /><polyline points="630.0,345.0 610.0,345.0" 
style="fill:none;stroke:black;stroke-width:2" /><polyline points="870.0,345.0 890.0,345.0" 
style="fill:none;stroke:black;stroke-width:2" /><text
x="750.0" y="485.0"
text-anchor="middle"
style="font-family:Arial;font-size:40"> 
FRY </text>
<text
x="1510.0" y="265.0"
text-anchor="left"
style="font-family:Arial;font-size:40"> 
2 </text>
<text
x="1550.0" y="265.0"
text-anchor="left"
style="font-family:Arial;font-size:30"> 
Briefly sear the outside then </text>
<text
x="1550.0" y="295.0"
text-anchor="left"
style="font-family:Arial;font-size:30"> 
remove and reserve the chicken </text>
<text
x="1550.0" y="325.0"
text-anchor="left"
style="font-family:Arial;font-size:30"> 
for later. </text>
<text
x="1010.0" y="165.0"
text-anchor="left"
style="font-family:Arial;font-size:40"> 
3 </text>
<text
x="1070.0" y="165.0"
text-anchor="left"
style="font-family:Arial;font-size:30"> 
&#8729; REMOVE chicken pieces </text>
<text
x="1070.0" y="195.0"
text-anchor="left"
style="font-family:Arial;font-size:30"> 
&#8729; 1 shallot (diced) </text>
<text
x="1070.0" y="225.0"
text-anchor="left"
style="font-family:Arial;font-size:30"> 
&#8729; 1 white onion (diced) </text>
<text
x="1070.0" y="255.0"
text-anchor="left"
style="font-family:Arial;font-size:30"> 
&#8729; 2 cloves garlic (crushed) </text>
<polyline points="1125.0,345.0 1135.0,425.0 1365.0,425.0 1375.0,345.0" 
style="fill:none;stroke:black;stroke-width:2" /><polyline points="1130.0,345.0 1110.0,345.0" 
style="fill:none;stroke:black;stroke-width:2" /><polyline points="1370.0,345.0 1390.0,345.0" 
style="fill:none;stroke:black;stroke-width:2" /><text
x="1250.0" y="485.0"
text-anchor="middle"
style="font-family:Arial;font-size:40"> 
FRY </text>
<text
x="1510.0" y="395.0"
text-anchor="left"
style="font-family:Arial;font-size:40"> 
3 </text>
<text
x="1550.0" y="395.0"
text-anchor="left"
style="font-family:Arial;font-size:30"> 
Do not brown. </text>
<text
x="10.0" y="565.0"
text-anchor="left"
style="font-family:Arial;font-size:40"> 
4 </text>
<text
x="70.0" y="565.0"
text-anchor="left"
style="font-family:Arial;font-size:30"> 
&#8729; 1 chicken liver </text>
<polyline points="125.0,745.0 135.0,825.0 365.0,825.0 375.0,745.0" 
style="fill:none;stroke:black;stroke-width:2" /><polyline points="130.0,745.0 110.0,745.0" 
style="fill:none;stroke:black;stroke-width:2" /><polyline points="370.0,745.0 390.0,745.0" 
style="fill:none;stroke:black;stroke-width:2" /><text
x="250.0" y="885.0"
text-anchor="middle"
style="font-family:Arial;font-size:40"> 
FRY </text>
<text
x="1510.0" y="465.0"
text-anchor="left"
style="font-family:Arial;font-size:40"> 
4 </text>
<text
x="1550.0" y="465.0"
text-anchor="left"
style="font-family:Arial;font-size:30"> 
Sear the outside then remove </text>
<text
x="1550.0" y="495.0"
text-anchor="left"
style="font-family:Arial;font-size:30"> 
and reserve for later with the </text>
<text
x="1550.0" y="525.0"
text-anchor="left"
style="font-family:Arial;font-size:30"> 
chicken pieces. </text>
<text
x="510.0" y="565.0"
text-anchor="left"
style="font-family:Arial;font-size:40"> 
5 </text>
<text
x="570.0" y="565.0"
text-anchor="left"
style="font-family:Arial;font-size:30"> 
&#8729; REMOVE chicken liver </text>
<text
x="570.0" y="595.0"
text-anchor="left"
style="font-family:Arial;font-size:30"> 
&#8729; 1 tbsp tomato puree </text>
<text
x="570.0" y="625.0"
text-anchor="left"
style="font-family:Arial;font-size:30"> 
&#8729; 200 ml red wine vinegar </text>
<polyline points="625.0,745.0 635.0,825.0 865.0,825.0 875.0,745.0" 
style="fill:none;stroke:black;stroke-width:2" /><polyline points="630.0,745.0 610.0,745.0" 
style="fill:none;stroke:black;stroke-width:2" /><polyline points="870.0,745.0 890.0,745.0" 
style="fill:none;stroke:black;stroke-width:2" /><text
x="750.0" y="885.0"
text-anchor="middle"
style="font-family:Arial;font-size:38"> 
MIX &amp; SIMMER </text>
<text
x="1510.0" y="595.0"
text-anchor="left"
style="font-family:Arial;font-size:40"> 
5 </text>
<text
x="1550.0" y="595.0"
text-anchor="left"
style="font-family:Arial;font-size:30"> 
Simmer until the sauce becomes </text>
<text
x="1550.0" y="625.0"
text-anchor="left"
style="font-family:Arial;font-size:30"> 
syrup-like. </text>
<text
x="1010.0" y="565.0"
text-anchor="left"
style="font-family:Arial;font-size:40"> 
6 </text>
<text
x="1070.0" y="565.0"
text-anchor="left"
style="font-family:Arial;font-size:30"> 
&#8729; 400 ml white burgundy wine </text>
<polyline points="1125.0,745.0 1135.0,825.0 1365.0,825.0 1375.0,745.0" 
style="fill:none;stroke:black;stroke-width:2" /><polyline points="1130.0,745.0 1110.0,745.0" 
style="fill:none;stroke:black;stroke-width:2" /><polyline points="1370.0,745.0 1390.0,745.0" 
style="fill:none;stroke:black;stroke-width:2" /><text
x="1250.0" y="885.0"
text-anchor="middle"
style="font-family:Arial;font-size:40"> 
SIMMER </text>
<text
x="1510.0" y="695.0"
text-anchor="left"
style="font-family:Arial;font-size:40"> 
6 </text>
<text
x="1550.0" y="695.0"
text-anchor="left"
style="font-family:Arial;font-size:30"> 
Once simmering, leave for </text>
<text
x="1550.0" y="725.0"
text-anchor="left"
style="font-family:Arial;font-size:30"> 
around 2 mins before turning </text>
<text
x="1550.0" y="755.0"
text-anchor="left"
style="font-family:Arial;font-size:30"> 
down the heat. </text>
<text
x="10.0" y="965.0"
text-anchor="left"
style="font-family:Arial;font-size:40"> 
7 </text>
<text
x="70.0" y="965.0"
text-anchor="left"
style="font-family:Arial;font-size:30"> 
&#8729; 500 ml chicken stock </text>
<text
x="70.0" y="995.0"
text-anchor="left"
style="font-family:Arial;font-size:30"> 
&#8729; 1 sprig fresh thyme </text>
<text
x="70.0" y="1025.0"
text-anchor="left"
style="font-family:Arial;font-size:30"> 
&#8729; 2 tbsp fresh tarragon </text>
<polyline points="125.0,1145.0 135.0,1225.0 365.0,1225.0 375.0,1145.0" 
style="fill:none;stroke:black;stroke-width:2" /><polyline points="130.0,1145.0 110.0,1145.0" 
style="fill:none;stroke:black;stroke-width:2" /><polyline points="370.0,1145.0 390.0,1145.0" 
style="fill:none;stroke:black;stroke-width:2" /><text
x="250.0" y="1285.0"
text-anchor="middle"
style="font-family:Arial;font-size:40"> 
SIMMER </text>
<text
x="510.0" y="965.0"
text-anchor="left"
style="font-family:Arial;font-size:40"> 
8 </text>
<text
x="570.0" y="965.0"
text-anchor="left"
style="font-family:Arial;font-size:30"> 
&#8729; seared chicken </text>
<polyline points="625.0,1145.0 635.0,1225.0 865.0,1225.0 875.0,1145.0" 
style="fill:none;stroke:black;stroke-width:2" /><polyline points="630.0,1145.0 610.0,1145.0" 
style="fill:none;stroke:black;stroke-width:2" /><polyline points="870.0,1145.0 890.0,1145.0" 
style="fill:none;stroke:black;stroke-width:2" /><text
x="750.0" y="1285.0"
text-anchor="middle"
style="font-family:Arial;font-size:40"> 
SIMMER </text>
<text
x="1510.0" y="825.0"
text-anchor="left"
style="font-family:Arial;font-size:40"> 
8 </text>
<text
x="1550.0" y="825.0"
text-anchor="left"
style="font-family:Arial;font-size:30"> 
Let the chicken cook through </text>
<text
x="1550.0" y="855.0"
text-anchor="left"
style="font-family:Arial;font-size:30"> 
for around 20 mins with the </text>
<text
x="1550.0" y="885.0"
text-anchor="left"
style="font-family:Arial;font-size:30"> 
lid on. </text>
<text
x="1010.0" y="965.0"
text-anchor="left"
style="font-family:Arial;font-size:40"> 
9 </text>
<text
x="1070.0" y="965.0"
text-anchor="left"
style="font-family:Arial;font-size:30"> 
&#8729; REMOVE chicken pieces </text>
<polyline points="1125.0,1145.0 1135.0,1225.0 1365.0,1225.0 1375.0,1145.0" 
style="fill:none;stroke:black;stroke-width:2" /><polyline points="1130.0,1145.0 1110.0,1145.0" 
style="fill:none;stroke:black;stroke-width:2" /><polyline points="1370.0,1145.0 1390.0,1145.0" 
style="fill:none;stroke:black;stroke-width:2" /><text
x="1250.0" y="1285.0"
text-anchor="middle"
style="font-family:Arial;font-size:40"> 
SIMMER </text>
<text
x="1510.0" y="955.0"
text-anchor="left"
style="font-family:Arial;font-size:40"> 
9 </text>
<text
x="1550.0" y="955.0"
text-anchor="left"
style="font-family:Arial;font-size:30"> 
Reserve the chicken pieces for </text>
<text
x="1550.0" y="985.0"
text-anchor="left"
style="font-family:Arial;font-size:30"> 
later. Simmer to reduce the </text>
<text
x="1550.0" y="1015.0"
text-anchor="left"
style="font-family:Arial;font-size:30"> 
sauce significantly. </text>
<text
x="10.0" y="1365.0"
text-anchor="left"
style="font-family:Arial;font-size:40"> 
10 </text>
<text
x="70.0" y="1365.0"
text-anchor="left"
style="font-family:Arial;font-size:30"> 
&#8729; 400 ml double cream </text>
<text
x="70.0" y="1395.0"
text-anchor="left"
style="font-family:Arial;font-size:30"> 
&#8729; 1 tsp salt </text>
<text
x="70.0" y="1425.0"
text-anchor="left"
style="font-family:Arial;font-size:30"> 
&#8729; 1 tsp black pepper </text>
<polyline points="125.0,1545.0 135.0,1625.0 365.0,1625.0 375.0,1545.0" 
style="fill:none;stroke:black;stroke-width:2" /><polyline points="130.0,1545.0 110.0,1545.0" 
style="fill:none;stroke:black;stroke-width:2" /><polyline points="370.0,1545.0 390.0,1545.0" 
style="fill:none;stroke:black;stroke-width:2" /><text
x="250.0" y="1685.0"
text-anchor="middle"
style="font-family:Arial;font-size:38"> 
MIX &amp; SIMMER </text>
<text
x="1510.0" y="1085.0"
text-anchor="left"
style="font-family:Arial;font-size:40"> 
10 </text>
<text
x="1570.0" y="1085.0"
text-anchor="left"
style="font-family:Arial;font-size:30"> 
Adjust the thickness, </text>
<text
x="1570.0" y="1115.0"
text-anchor="left"
style="font-family:Arial;font-size:30"> 
acicidity and seasoning to </text>
<text
x="1570.0" y="1145.0"
text-anchor="left"
style="font-family:Arial;font-size:30"> 
taste. </text>
<text
x="510.0" y="1365.0"
text-anchor="left"
style="font-family:Arial;font-size:40"> 
11 </text>
<text
x="570.0" y="1365.0"
text-anchor="left"
style="font-family:Arial;font-size:30"> 
&#8729; cooked chicken pieces </text>
<text
x="570.0" y="1395.0"
text-anchor="left"
style="font-family:Arial;font-size:30"> 
&#8729; seared chicken liver </text>
<text
x="590.0" y="1425.0"
text-anchor="left"
style="font-family:Arial;font-size:30"> 
(crushed) </text>
<polyline points="625.0,1545.0 635.0,1625.0 865.0,1625.0 875.0,1545.0" 
style="fill:none;stroke:black;stroke-width:2" /><polyline points="630.0,1545.0 610.0,1545.0" 
style="fill:none;stroke:black;stroke-width:2" /><polyline points="870.0,1545.0 890.0,1545.0" 
style="fill:none;stroke:black;stroke-width:2" /><text
x="750.0" y="1685.0"
text-anchor="middle"
style="font-family:Arial;font-size:38"> 
MIX &amp; SIMMER </text>
<text
x="1510.0" y="1215.0"
text-anchor="left"
style="font-family:Arial;font-size:40"> 
11 </text>
<text
x="1570.0" y="1215.0"
text-anchor="left"
style="font-family:Arial;font-size:30"> 
Allow the chicken to reheat </text>
<text
x="1570.0" y="1245.0"
text-anchor="left"
style="font-family:Arial;font-size:30"> 
then serve. </text>
</svg>