<?xml version="1.0" encoding="UTF-8"?>
<svg xmlns="http://www.w3.org/2000/svg" width="2000" height="1325.0">
<text x="40.0" y="88.0" font-size="80">
Toad In The Hole<tspan font-size="40">&#160;&#160;by https://www.youtube.com/watch?v=o5q656XUmdQ</tspan></text>
<polyline points="0,0 0,1325.0 " 
style="fill:none;stroke:black;stroke-width:2" /><polyline points="2000,0 2000,1325.0 " 
style="fill:none;stroke:black;stroke-width:2" /><polyline points="500,125.0 500,1325.0 " 
style="fill:none;stroke:black;stroke-width:2" /><polyline points="1000,125.0 1000,1325.0 " 
style="fill:none;stroke:black;stroke-width:2" /><polyline points="1500,125.0 1500,1325.0 " 
style="fill:none;stroke:black;stroke-width:2" /><polyline points="0,0 2000,0 " 
style="fill:none;stroke:black;stroke-width:2" /><polyline points="0,125.0 2000,125.0 " 
style="fill:none;stroke:black;stroke-width:2" /><polyline points="0,1325.0 2000,1325.0 " 
style="fill:none;stroke:black;stroke-width:2" /><polyline points="0,525.0 1500,525.0 " 
style="fill:none;stroke:black;stroke-width:2" /><polyline points="0,925.0 1500,925.0 " 
style="fill:none;stroke:black;stroke-width:2" /><text
x="10.0" y="165.0"
text-anchor="left"
style="font-family:Arial;font-size:40"> 
1 </text>
<text
x="70.0" y="165.0"
text-anchor="left"
style="font-family:Arial;font-size:30"> 
&#8729; 125 g plain flour </text>
<text
x="70.0" y="195.0"
text-anchor="left"
style="font-family:Arial;font-size:30"> 
&#8729; 3 eggs </text>
<polyline points="125.0,345.0 155.0,425.0 345.0,425.0 375.0,345.0" 
style="fill:none;stroke:black;stroke-width:2" /><text
x="250.0" y="485.0"
text-anchor="middle"
style="font-family:Arial;font-size:40"> 
WHISK </text>
<text
x="510.0" y="165.0"
text-anchor="left"
style="font-family:Arial;font-size:40"> 
2 </text>
<text
x="570.0" y="165.0"
text-anchor="left"
style="font-family:Arial;font-size:30"> 
&#8729; 125 ml milk </text>
<text
x="570.0" y="195.0"
text-anchor="left"
style="font-family:Arial;font-size:30"> 
&#8729; 1 tsp salt </text>
<text
x="570.0" y="225.0"
text-anchor="left"
style="font-family:Arial;font-size:30"> 
&#8729; 1/2 tsp white pepper </text>
<text
x="570.0" y="255.0"
text-anchor="left"
style="font-family:Arial;font-size:30"> 
&#8729; 1/2 tsp garlic powder </text>
<polyline points="625.0,345.0 655.0,425.0 845.0,425.0 875.0,345.0" 
style="fill:none;stroke:black;stroke-width:2" /><text
x="750.0" y="485.0"
text-anchor="middle"
style="font-family:Arial;font-size:40"> 
WHISK </text>
<text
x="1010.0" y="165.0"
text-anchor="left"
style="font-family:Arial;font-size:40"> 
3 </text>
<text
x="1070.0" y="165.0"
text-anchor="left"
style="font-family:Arial;font-size:30"> 
&#8729; 2 white onions (sliced) </text>
<text
x="1070.0" y="195.0"
text-anchor="left"
style="font-family:Arial;font-size:30"> 
&#8729; 1 tbsp vegetable oil </text>
<polyline points="1060.0,369.0 1080.0,401.0 1270.0,401.0 1290.0,369.0" 
style="fill:none;stroke:black;stroke-width:2" /><polyline points="1282.5,385.0 1425.0,385.0" 
style="fill:none;stroke:black;stroke-width:2" /><text
x="1250.0" y="485.0"
text-anchor="middle"
style="font-family:Arial;font-size:40"> 
FRY </text>
<text
x="1510.0" y="165.0"
text-anchor="left"
style="font-family:Arial;font-size:40"> 
3 </text>
<text
x="1550.0" y="165.0"
text-anchor="left"
style="font-family:Arial;font-size:30"> 
Fry on a low heat to slowly </text>
<text
x="1550.0" y="195.0"
text-anchor="left"
style="font-family:Arial;font-size:30"> 
caramelize. </text>
<text
x="10.0" y="565.0"
text-anchor="left"
style="font-family:Arial;font-size:40"> 
4 </text>
<text
x="70.0" y="565.0"
text-anchor="left"
style="font-family:Arial;font-size:30"> 
&#8729; 6 sausages </text>
<polyline points="60.0,769.0 80.0,801.0 270.0,801.0 290.0,769.0" 
style="fill:none;stroke:black;stroke-width:2" /><polyline points="282.5,785.0 425.0,785.0" 
style="fill:none;stroke:black;stroke-width:2" /><text
x="250.0" y="885.0"
text-anchor="middle"
style="font-family:Arial;font-size:40"> 
FRY </text>
<text
x="1510.0" y="265.0"
text-anchor="left"
style="font-family:Arial;font-size:40"> 
4 </text>
<text
x="1550.0" y="265.0"
text-anchor="left"
style="font-family:Arial;font-size:30"> 
Brown the sausages but do not </text>
<text
x="1550.0" y="295.0"
text-anchor="left"
style="font-family:Arial;font-size:30"> 
fully cook them. </text>
<text
x="510.0" y="565.0"
text-anchor="left"
style="font-family:Arial;font-size:40"> 
5 </text>
<text
x="570.0" y="565.0"
text-anchor="left"
style="font-family:Arial;font-size:30"> 
&#8729; mixing bowl contents </text>
<text
x="570.0" y="595.0"
text-anchor="left"
style="font-family:Arial;font-size:30"> 
&#8729; 6 sausages (browned) </text>
<text
x="570.0" y="625.0"
text-anchor="left"
style="font-family:Arial;font-size:30"> 
&#8729; 2 tsp butter </text>
<polyline points="600.0,769.0 600.0,801.0 900.0,801.0 900.0,769.0" 
style="fill:none;stroke:black;stroke-width:2" /><text
x="750.0" y="885.0"
text-anchor="middle"
style="font-family:Arial;font-size:40"> 
BAKE </text>
<text
x="1510.0" y="365.0"
text-anchor="left"
style="font-family:Arial;font-size:40"> 
5 </text>
<text
x="1550.0" y="365.0"
text-anchor="left"
style="font-family:Arial;font-size:30"> 
Grease the oven dish with </text>
<text
x="1550.0" y="395.0"
text-anchor="left"
style="font-family:Arial;font-size:30"> 
butter. Cook in the oven for </text>
<text
x="1550.0" y="425.0"
text-anchor="left"
style="font-family:Arial;font-size:30"> 
about 30 mins at 190 C. The </text>
<text
x="1550.0" y="455.0"
text-anchor="left"
style="font-family:Arial;font-size:30"> 
base need only be thin and </text>
<text
x="1550.0" y="485.0"
text-anchor="left"
style="font-family:Arial;font-size:30"> 
should be cooked through </text>
<text
x="1550.0" y="515.0"
text-anchor="left"
style="font-family:Arial;font-size:30"> 
whilst the the top is crispy. </text>
<text
x="1010.0" y="565.0"
text-anchor="left"
style="font-family:Arial;font-size:40"> 
6 </text>
<text
x="1070.0" y="565.0"
text-anchor="left"
style="font-family:Arial;font-size:30"> 
&#8729; 2 tbsp flour </text>
<polyline points="1060.0,769.0 1080.0,801.0 1270.0,801.0 1290.0,769.0" 
style="fill:none;stroke:black;stroke-width:2" /><polyline points="1282.5,785.0 1425.0,785.0" 
style="fill:none;stroke:black;stroke-width:2" /><text
x="1250.0" y="885.0"
text-anchor="middle"
style="font-family:Arial;font-size:40"> 
WHISK </text>
<text
x="1510.0" y="585.0"
text-anchor="left"
style="font-family:Arial;font-size:40"> 
6 </text>
<text
x="1550.0" y="585.0"
text-anchor="left"
style="font-family:Arial;font-size:30"> 
Allow the flour to absorb the </text>
<text
x="1550.0" y="615.0"
text-anchor="left"
style="font-family:Arial;font-size:30"> 
sausage and onion juices and </text>
<text
x="1550.0" y="645.0"
text-anchor="left"
style="font-family:Arial;font-size:30"> 
whisk to form a roux. </text>
<text
x="10.0" y="965.0"
text-anchor="left"
style="font-family:Arial;font-size:40"> 
7 </text>
<text
x="70.0" y="965.0"
text-anchor="left"
style="font-family:Arial;font-size:30"> 
&#8729; 500 ml beef stock </text>
<text
x="70.0" y="995.0"
text-anchor="left"
style="font-family:Arial;font-size:30"> 
&#8729; 1 tsp worcestershire sauce </text>
<polyline points="60.0,1169.0 80.0,1201.0 270.0,1201.0 290.0,1169.0" 
style="fill:none;stroke:black;stroke-width:2" /><polyline points="282.5,1185.0 425.0,1185.0" 
style="fill:none;stroke:black;stroke-width:2" /><text
x="250.0" y="1285.0"
text-anchor="middle"
style="font-family:Arial;font-size:38"> 
WHISK &amp; BOIL </text>
<text
x="1510.0" y="715.0"
text-anchor="left"
style="font-family:Arial;font-size:40"> 
7 </text>
<text
x="1550.0" y="715.0"
text-anchor="left"
style="font-family:Arial;font-size:30"> 
Leave to reduce to desired </text>
<text
x="1550.0" y="745.0"
text-anchor="left"
style="font-family:Arial;font-size:30"> 
thickness. </text>
</svg>