<?xml version="1.0" encoding="UTF-8"?>
<svg xmlns="http://www.w3.org/2000/svg" width="2000" height="525.0">
<text x="40.0" y="88.0" font-size="80">
Yellow Rice</text>
<polyline points="0,0 0,525.0 " 
style="fill:none;stroke:black;stroke-width:2" /><polyline points="2000,0 2000,525.0 " 
style="fill:none;stroke:black;stroke-width:2" /><polyline points="500,125.0 500,525.0 " 
style="fill:none;stroke:black;stroke-width:2" /><polyline points="1000,125.0 1000,525.0 " 
style="fill:none;stroke:black;stroke-width:2" /><polyline points="1500,125.0 1500,525.0 " 
style="fill:none;stroke:black;stroke-width:2" /><polyline points="0,0 2000,0 " 
style="fill:none;stroke:black;stroke-width:2" /><polyline points="0,125.0 2000,125.0 " 
style="fill:none;stroke:black;stroke-width:2" /><polyline points="0,525.0 2000,525.0 " 
style="fill:none;stroke:black;stroke-width:2" /><text
x="10.0" y="165.0"
text-anchor="left"
style="font-family:Arial;font-size:40"> 
1 </text>
<text
x="70.0" y="165.0"
text-anchor="left"
style="font-family:Arial;font-size:30"> 
&#8729; 500 ml basmati rice </text>
<text
x="90.0" y="195.0"
text-anchor="left"
style="font-family:Arial;font-size:30"> 
(washed) </text>
<text
x="70.0" y="225.0"
text-anchor="left"
style="font-family:Arial;font-size:30"> 
&#8729; 1 l water </text>
<polyline points="50.0,345.0 70.0,425.0 270.0,425.0 290.0,345.0" 
style="fill:none;stroke:black;stroke-width:2" /><polyline points="286.00000000000006,361.0 450.0,361.0" 
style="fill:none;stroke:black;stroke-width:2" /><text
x="250.0" y="485.0"
text-anchor="middle"
style="font-family:Arial;font-size:40"> 
BOIL </text>
<text
x="1510.0" y="165.0"
text-anchor="left"
style="font-family:Arial;font-size:40"> 
1 </text>
<text
x="1550.0" y="165.0"
text-anchor="left"
style="font-family:Arial;font-size:30"> 
Water to rice ratio should be </text>
<text
x="1550.0" y="195.0"
text-anchor="left"
style="font-family:Arial;font-size:30"> 
between 2:1 and 1:1 by volume, </text>
<text
x="1550.0" y="225.0"
text-anchor="left"
style="font-family:Arial;font-size:30"> 
depending on the rice. </text>
<text
x="510.0" y="165.0"
text-anchor="left"
style="font-family:Arial;font-size:40"> 
2 </text>
<text
x="570.0" y="165.0"
text-anchor="left"
style="font-family:Arial;font-size:30"> 
&#8729; 1 tsp turmeric </text>
<text
x="570.0" y="195.0"
text-anchor="left"
style="font-family:Arial;font-size:30"> 
&#8729; 5 cardamon pods </text>
<text
x="570.0" y="225.0"
text-anchor="left"
style="font-family:Arial;font-size:30"> 
&#8729; 2 cinnamon sticks </text>
<text
x="570.0" y="255.0"
text-anchor="left"
style="font-family:Arial;font-size:30"> 
&#8729; 1/2 tsp salt </text>
<polyline points="550.0,345.0 570.0,425.0 770.0,425.0 790.0,345.0" 
style="fill:none;stroke:black;stroke-width:2" /><polyline points="786.0,361.0 950.0,361.0" 
style="fill:none;stroke:black;stroke-width:2" /><text
x="750.0" y="485.0"
text-anchor="middle"
style="font-family:Arial;font-size:38"> 
COVER &amp; SIMMER </text>
<text
x="1510.0" y="295.0"
text-anchor="left"
style="font-family:Arial;font-size:40"> 
2 </text>
<text
x="1550.0" y="295.0"
text-anchor="left"
style="font-family:Arial;font-size:30"> 
Cover with a tight-fitting </text>
<text
x="1550.0" y="325.0"
text-anchor="left"
style="font-family:Arial;font-size:30"> 
saucepan lid and leave to </text>
<text
x="1550.0" y="355.0"
text-anchor="left"
style="font-family:Arial;font-size:30"> 
simmer gently until the rice </text>
<text
x="1550.0" y="385.0"
text-anchor="left"
style="font-family:Arial;font-size:30"> 
has absorbed the water. Other </text>
<text
x="1550.0" y="415.0"
text-anchor="left"
style="font-family:Arial;font-size:30"> 
suitable aromatics include </text>
<text
x="1550.0" y="445.0"
text-anchor="left"
style="font-family:Arial;font-size:30"> 
cloves and star anise. </text>
</svg>