<?xml version="1.0" encoding="UTF-8"?>
<svg xmlns="http://www.w3.org/2000/svg" width="2000" height="925.0">
<text x="40.0" y="88.0" font-size="80">
Chocolate Bundt Cake<tspan font-size="40">&#160;&#160;by The Stay At Home Chef</tspan></text>
<polyline points="0,0 0,925.0 " 
style="fill:none;stroke:black;stroke-width:2" /><polyline points="2000,0 2000,925.0 " 
style="fill:none;stroke:black;stroke-width:2" /><polyline points="500,125.0 500,925.0 " 
style="fill:none;stroke:black;stroke-width:2" /><polyline points="1000,125.0 1000,925.0 " 
style="fill:none;stroke:black;stroke-width:2" /><polyline points="1500,125.0 1500,925.0 " 
style="fill:none;stroke:black;stroke-width:2" /><polyline points="0,0 2000,0 " 
style="fill:none;stroke:black;stroke-width:2" /><polyline points="0,125.0 2000,125.0 " 
style="fill:none;stroke:black;stroke-width:2" /><polyline points="0,925.0 2000,925.0 " 
style="fill:none;stroke:black;stroke-width:2" /><polyline points="0,525.0 1500,525.0 " 
style="fill:none;stroke:black;stroke-width:2" /><text
x="10.0" y="165.0"
text-anchor="left"
style="font-family:Arial;font-size:40"> 
1 </text>
<text
x="70.0" y="165.0"
text-anchor="left"
style="font-family:Arial;font-size:30"> 
&#8729; 250 g plain flour </text>
<text
x="70.0" y="195.0"
text-anchor="left"
style="font-family:Arial;font-size:30"> 
&#8729; 400 g caster sugar </text>
<text
x="70.0" y="225.0"
text-anchor="left"
style="font-family:Arial;font-size:30"> 
&#8729; 125 g cocoa powder </text>
<text
x="70.0" y="255.0"
text-anchor="left"
style="font-family:Arial;font-size:30"> 
&#8729; 2 tsp baking soda </text>
<text
x="70.0" y="285.0"
text-anchor="left"
style="font-family:Arial;font-size:30"> 
&#8729; 1 tsp baking powder </text>
<text
x="70.0" y="315.0"
text-anchor="left"
style="font-family:Arial;font-size:30"> 
&#8729; 1 tsp salt </text>
<polyline points="125.0,345.0 155.0,425.0 345.0,425.0 375.0,345.0" 
style="fill:none;stroke:black;stroke-width:2" /><text
x="410.0" y="425.0"
text-anchor="left"
style="font-family:Arial;font-size:30"> 
A </text>
<text
x="250.0" y="485.0"
text-anchor="middle"
style="font-family:Arial;font-size:40"> 
H-WHISK </text>
<text
x="510.0" y="165.0"
text-anchor="left"
style="font-family:Arial;font-size:40"> 
2 </text>
<text
x="570.0" y="165.0"
text-anchor="left"
style="font-family:Arial;font-size:30"> 
&#8729; 240 ml water (hot) </text>
<text
x="570.0" y="195.0"
text-anchor="left"
style="font-family:Arial;font-size:30"> 
&#8729; 160 ml buttermilk </text>
<text
x="570.0" y="225.0"
text-anchor="left"
style="font-family:Arial;font-size:30"> 
&#8729; 80 ml sour cream </text>
<text
x="570.0" y="255.0"
text-anchor="left"
style="font-family:Arial;font-size:30"> 
&#8729; 80 ml vegetable oil </text>
<text
x="570.0" y="285.0"
text-anchor="left"
style="font-family:Arial;font-size:30"> 
&#8729; 2 eggs </text>
<text
x="570.0" y="315.0"
text-anchor="left"
style="font-family:Arial;font-size:30"> 
&#8729; 2 tsp vanilla essence </text>
<polyline points="625.0,345.0 655.0,425.0 845.0,425.0 875.0,345.0" 
style="fill:none;stroke:black;stroke-width:2" /><text
x="910.0" y="425.0"
text-anchor="left"
style="font-family:Arial;font-size:30"> 
A </text>
<text
x="750.0" y="485.0"
text-anchor="middle"
style="font-family:Arial;font-size:40"> 
E-WHISK </text>
<text
x="1010.0" y="165.0"
text-anchor="left"
style="font-family:Arial;font-size:40"> 
3 </text>
<text
x="1070.0" y="165.0"
text-anchor="left"
style="font-family:Arial;font-size:30"> 
&#8729; 1 tsp vegetable oil </text>
<text
x="1070.0" y="195.0"
text-anchor="left"
style="font-family:Arial;font-size:30"> 
&#8729; mixing bowl A contents </text>
<polyline points="1100.0,345.0 1110.0,425.0 1220.0,425.0 1230.0,369.0 1270.0,369.0 1280.0,425.0 1390.0,425.0 1400.0,345.0" 
style="fill:none;stroke:black;stroke-width:2" /><text
x="1250.0" y="485.0"
text-anchor="middle"
style="font-family:Arial;font-size:40"> 
BAKE </text>
<text
x="1510.0" y="165.0"
text-anchor="left"
style="font-family:Arial;font-size:40"> 
3 </text>
<text
x="1550.0" y="165.0"
text-anchor="left"
style="font-family:Arial;font-size:30"> 
Grease up a bundt cake tin and </text>
<text
x="1550.0" y="195.0"
text-anchor="left"
style="font-family:Arial;font-size:30"> 
spread the batter evenly. Tap </text>
<text
x="1550.0" y="225.0"
text-anchor="left"
style="font-family:Arial;font-size:30"> 
firmly onto the work surface </text>
<text
x="1550.0" y="255.0"
text-anchor="left"
style="font-family:Arial;font-size:30"> 
to ensure that no air bubbles </text>
<text
x="1550.0" y="285.0"
text-anchor="left"
style="font-family:Arial;font-size:30"> 
remain. Bake at 175 C for 50 </text>
<text
x="1550.0" y="315.0"
text-anchor="left"
style="font-family:Arial;font-size:30"> 
mins. </text>
<text
x="10.0" y="565.0"
text-anchor="left"
style="font-family:Arial;font-size:40"> 
4 </text>
<text
x="70.0" y="565.0"
text-anchor="left"
style="font-family:Arial;font-size:30"> 
&#8729; 180 g dark chocolate </text>
<text
x="90.0" y="595.0"
text-anchor="left"
style="font-family:Arial;font-size:30"> 
(chopped) </text>
<text
x="70.0" y="625.0"
text-anchor="left"
style="font-family:Arial;font-size:30"> 
&#8729; 180 ml double cream </text>
<text
x="90.0" y="655.0"
text-anchor="left"
style="font-family:Arial;font-size:30"> 
(boiling) </text>
<polyline points="125.0,745.0 155.0,825.0 345.0,825.0 375.0,745.0" 
style="fill:none;stroke:black;stroke-width:2" /><text
x="410.0" y="825.0"
text-anchor="left"
style="font-family:Arial;font-size:30"> 
C </text>
<text
x="250.0" y="885.0"
text-anchor="middle"
style="font-family:Arial;font-size:40"> 
MIX </text>
<text
x="1510.0" y="385.0"
text-anchor="left"
style="font-family:Arial;font-size:40"> 
4 </text>
<text
x="1550.0" y="385.0"
text-anchor="left"
style="font-family:Arial;font-size:30"> 
Allow the hot cream to melt </text>
<text
x="1550.0" y="415.0"
text-anchor="left"
style="font-family:Arial;font-size:30"> 
the chocolate for 5 mins </text>
<text
x="1550.0" y="445.0"
text-anchor="left"
style="font-family:Arial;font-size:30"> 
before starting to stir </text>
<text
x="1550.0" y="475.0"
text-anchor="left"
style="font-family:Arial;font-size:30"> 
together. </text>
<text
x="510.0" y="565.0"
text-anchor="left"
style="font-family:Arial;font-size:40"> 
5 </text>
<text
x="570.0" y="565.0"
text-anchor="left"
style="font-family:Arial;font-size:30"> 
&#8729; 1 tbsp corn syrup </text>
<polyline points="625.0,745.0 655.0,825.0 845.0,825.0 875.0,745.0" 
style="fill:none;stroke:black;stroke-width:2" /><text
x="910.0" y="825.0"
text-anchor="left"
style="font-family:Arial;font-size:30"> 
C </text>
<text
x="750.0" y="885.0"
text-anchor="middle"
style="font-family:Arial;font-size:40"> 
MIX </text>
<text
x="1510.0" y="545.0"
text-anchor="left"
style="font-family:Arial;font-size:40"> 
5 </text>
<text
x="1550.0" y="545.0"
text-anchor="left"
style="font-family:Arial;font-size:30"> 
Liquid glucose is an </text>
<text
x="1550.0" y="575.0"
text-anchor="left"
style="font-family:Arial;font-size:30"> 
acceptable sustitute. </text>
<text
x="1010.0" y="565.0"
text-anchor="left"
style="font-family:Arial;font-size:40"> 
6 </text>
<text
x="1070.0" y="565.0"
text-anchor="left"
style="font-family:Arial;font-size:30"> 
&#8729; chocolate cake (cooled) </text>
<text
x="1070.0" y="595.0"
text-anchor="left"
style="font-family:Arial;font-size:30"> 
&#8729; mixing bowl C contents </text>
<polyline points="1100.0,769.0 1100.0,801.0 1400.0,801.0 1400.0,769.0" 
style="fill:none;stroke:black;stroke-width:2" /><text
x="1250.0" y="885.0"
text-anchor="middle"
style="font-family:Arial;font-size:40"> 
DECORATE </text>
<text
x="1510.0" y="645.0"
text-anchor="left"
style="font-family:Arial;font-size:40"> 
6 </text>
<text
x="1550.0" y="645.0"
text-anchor="left"
style="font-family:Arial;font-size:30"> 
Place the cake on a wire rack, </text>
<text
x="1550.0" y="675.0"
text-anchor="left"
style="font-family:Arial;font-size:30"> 
pour over the chocolate </text>
<text
x="1550.0" y="705.0"
text-anchor="left"
style="font-family:Arial;font-size:30"> 
ganache and leave to set. </text>
</svg>