<?xml version="1.0" encoding="UTF-8"?>
<svg xmlns="http://www.w3.org/2000/svg" width="2000" height="1325.0">
<text x="40.0" y="88.0" font-size="80">
BBQ Ribs</text>
<polyline points="0,0 0,1325.0 " 
style="fill:none;stroke:black;stroke-width:2" /><polyline points="2000,0 2000,1325.0 " 
style="fill:none;stroke:black;stroke-width:2" /><polyline points="500,125.0 500,1325.0 " 
style="fill:none;stroke:black;stroke-width:2" /><polyline points="1000,125.0 1000,1325.0 " 
style="fill:none;stroke:black;stroke-width:2" /><polyline points="1500,125.0 1500,1325.0 " 
style="fill:none;stroke:black;stroke-width:2" /><polyline points="0,0 2000,0 " 
style="fill:none;stroke:black;stroke-width:2" /><polyline points="0,125.0 2000,125.0 " 
style="fill:none;stroke:black;stroke-width:2" /><polyline points="0,1325.0 2000,1325.0 " 
style="fill:none;stroke:black;stroke-width:2" /><polyline points="0,525.0 1500,525.0 " 
style="fill:none;stroke:black;stroke-width:2" /><polyline points="0,925.0 1500,925.0 " 
style="fill:none;stroke:black;stroke-width:2" /><text
x="10.0" y="165.0"
text-anchor="left"
style="font-family:Arial;font-size:40"> 
1 </text>
<text
x="70.0" y="165.0"
text-anchor="left"
style="font-family:Arial;font-size:30"> 
&#8729; 3 tbsp chilli powder </text>
<text
x="70.0" y="195.0"
text-anchor="left"
style="font-family:Arial;font-size:30"> 
&#8729; 1 tbsp garlic powder </text>
<text
x="70.0" y="225.0"
text-anchor="left"
style="font-family:Arial;font-size:30"> 
&#8729; 1 tbsp onion powder </text>
<text
x="70.0" y="255.0"
text-anchor="left"
style="font-family:Arial;font-size:30"> 
&#8729; 1 tbsp paprika </text>
<text
x="70.0" y="285.0"
text-anchor="left"
style="font-family:Arial;font-size:30"> 
&#8729; 2 tbsp ground mustard </text>
<polyline points="125.0,345.0 155.0,425.0 345.0,425.0 375.0,345.0" 
style="fill:none;stroke:black;stroke-width:2" /><text
x="410.0" y="425.0"
text-anchor="left"
style="font-family:Arial;font-size:30"> 
A </text>
<text
x="250.0" y="485.0"
text-anchor="middle"
style="font-family:Arial;font-size:40"> 
MIX </text>
<text
x="510.0" y="165.0"
text-anchor="left"
style="font-family:Arial;font-size:40"> 
2 </text>
<text
x="570.0" y="165.0"
text-anchor="left"
style="font-family:Arial;font-size:30"> 
&#8729; 1 tbsp ground oregano </text>
<text
x="570.0" y="195.0"
text-anchor="left"
style="font-family:Arial;font-size:30"> 
&#8729; 1 tbsp salt </text>
<text
x="570.0" y="225.0"
text-anchor="left"
style="font-family:Arial;font-size:30"> 
&#8729; 1 tbsp black pepper </text>
<text
x="570.0" y="255.0"
text-anchor="left"
style="font-family:Arial;font-size:30"> 
&#8729; 1 tbsp white pepper </text>
<text
x="570.0" y="285.0"
text-anchor="left"
style="font-family:Arial;font-size:30"> 
&#8729; 1 tsp cayenne pepper </text>
<polyline points="625.0,345.0 655.0,425.0 845.0,425.0 875.0,345.0" 
style="fill:none;stroke:black;stroke-width:2" /><text
x="910.0" y="425.0"
text-anchor="left"
style="font-family:Arial;font-size:30"> 
A </text>
<text
x="750.0" y="485.0"
text-anchor="middle"
style="font-family:Arial;font-size:40"> 
MIX </text>
<text
x="1010.0" y="165.0"
text-anchor="left"
style="font-family:Arial;font-size:40"> 
3 </text>
<text
x="1070.0" y="165.0"
text-anchor="left"
style="font-family:Arial;font-size:30"> 
&#8729; 3 racks pork spare ribs </text>
<text
x="1070.0" y="195.0"
text-anchor="left"
style="font-family:Arial;font-size:30"> 
&#8729; mixing bowl </text>
<polyline points="1100.0,369.0 1100.0,401.0 1400.0,401.0 1400.0,369.0" 
style="fill:none;stroke:black;stroke-width:2" /><text
x="1250.0" y="485.0"
text-anchor="middle"
style="font-family:Arial;font-size:38"> 
COAT &amp; MARINADE </text>
<text
x="1510.0" y="165.0"
text-anchor="left"
style="font-family:Arial;font-size:40"> 
3 </text>
<text
x="1550.0" y="165.0"
text-anchor="left"
style="font-family:Arial;font-size:30"> 
Remove the membrane from the </text>
<text
x="1550.0" y="195.0"
text-anchor="left"
style="font-family:Arial;font-size:30"> 
back of the ribs. </text>
<text
x="10.0" y="565.0"
text-anchor="left"
style="font-family:Arial;font-size:40"> 
4 </text>
<text
x="70.0" y="565.0"
text-anchor="left"
style="font-family:Arial;font-size:30"> 
&#8729; coated ribs </text>
<text
x="70.0" y="595.0"
text-anchor="left"
style="font-family:Arial;font-size:30"> 
&#8729; oak chips </text>
<text
x="70.0" y="625.0"
text-anchor="left"
style="font-family:Arial;font-size:30"> 
&#8729; hickory chips </text>
<polyline points="125.0,745.0 155.0,825.0 345.0,825.0 375.0,745.0" 
style="fill:none;stroke:black;stroke-width:2" /><text
x="410.0" y="825.0"
text-anchor="left"
style="font-family:Arial;font-size:30"> 
B </text>
<text
x="250.0" y="885.0"
text-anchor="middle"
style="font-family:Arial;font-size:40"> 
SMOKE </text>
<text
x="1510.0" y="265.0"
text-anchor="left"
style="font-family:Arial;font-size:40"> 
4 </text>
<text
x="1550.0" y="265.0"
text-anchor="left"
style="font-family:Arial;font-size:30"> 
Cover the base and top of the </text>
<text
x="1550.0" y="295.0"
text-anchor="left"
style="font-family:Arial;font-size:30"> 
pot in copious amount of </text>
<text
x="1550.0" y="325.0"
text-anchor="left"
style="font-family:Arial;font-size:30"> 
silver foil. Heat the chips </text>
<text
x="1550.0" y="355.0"
text-anchor="left"
style="font-family:Arial;font-size:30"> 
gently until they start </text>
<text
x="1550.0" y="385.0"
text-anchor="left"
style="font-family:Arial;font-size:30"> 
smoking and then turn off the </text>
<text
x="1550.0" y="415.0"
text-anchor="left"
style="font-family:Arial;font-size:30"> 
heat. Place the ribs on a rack </text>
<text
x="1550.0" y="445.0"
text-anchor="left"
style="font-family:Arial;font-size:30"> 
above the smoking chips. Leave </text>
<text
x="1550.0" y="475.0"
text-anchor="left"
style="font-family:Arial;font-size:30"> 
to smoke for 30 mins. </text>
<text
x="510.0" y="565.0"
text-anchor="left"
style="font-family:Arial;font-size:40"> 
5 </text>
<text
x="570.0" y="565.0"
text-anchor="left"
style="font-family:Arial;font-size:30"> 
&#8729; smoked and coated ribs </text>
<polyline points="600.0,769.0 600.0,801.0 900.0,801.0 900.0,769.0" 
style="fill:none;stroke:black;stroke-width:2" /><text
x="750.0" y="885.0"
text-anchor="middle"
style="font-family:Arial;font-size:38"> 
COVER &amp; COOK </text>
<text
x="1510.0" y="545.0"
text-anchor="left"
style="font-family:Arial;font-size:40"> 
5 </text>
<text
x="1550.0" y="545.0"
text-anchor="left"
style="font-family:Arial;font-size:30"> 
120 C for 2 hours. Place the </text>
<text
x="1550.0" y="575.0"
text-anchor="left"
style="font-family:Arial;font-size:30"> 
ribs on a rack and cover </text>
<text
x="1550.0" y="605.0"
text-anchor="left"
style="font-family:Arial;font-size:30"> 
securely in silver foil. </text>
<text
x="1010.0" y="565.0"
text-anchor="left"
style="font-family:Arial;font-size:40"> 
6 </text>
<text
x="1070.0" y="565.0"
text-anchor="left"
style="font-family:Arial;font-size:30"> 
&#8729; 1.5 cups tomato ketchup </text>
<text
x="1070.0" y="595.0"
text-anchor="left"
style="font-family:Arial;font-size:30"> 
&#8729; 2 cups apple cider vinegar </text>
<text
x="1070.0" y="625.0"
text-anchor="left"
style="font-family:Arial;font-size:30"> 
&#8729; 1/4 cup yellow mustard </text>
<text
x="1070.0" y="655.0"
text-anchor="left"
style="font-family:Arial;font-size:30"> 
&#8729; 3/4 cup dark brown sugar </text>
<polyline points="1050.0,745.0 1070.0,825.0 1270.0,825.0 1290.0,745.0" 
style="fill:none;stroke:black;stroke-width:2" /><polyline points="1286.0,761.0 1450.0,761.0" 
style="fill:none;stroke:black;stroke-width:2" /><text
x="1250.0" y="885.0"
text-anchor="middle"
style="font-family:Arial;font-size:40"> 
MIX &amp; HEAT </text>
<text
x="10.0" y="965.0"
text-anchor="left"
style="font-family:Arial;font-size:40"> 
7 </text>
<text
x="70.0" y="965.0"
text-anchor="left"
style="font-family:Arial;font-size:30"> 
&#8729; 1/2 tsp paprika </text>
<text
x="70.0" y="995.0"
text-anchor="left"
style="font-family:Arial;font-size:30"> 
&#8729; 1 tsp garlic powder </text>
<text
x="70.0" y="1025.0"
text-anchor="left"
style="font-family:Arial;font-size:30"> 
&#8729; 1 tsp onion powder </text>
<text
x="70.0" y="1055.0"
text-anchor="left"
style="font-family:Arial;font-size:30"> 
&#8729; 1 tsp salt </text>
<text
x="70.0" y="1085.0"
text-anchor="left"
style="font-family:Arial;font-size:30"> 
&#8729; 2 tsp worcestershire sauce </text>
<polyline points="50.0,1145.0 70.0,1225.0 270.0,1225.0 290.0,1145.0" 
style="fill:none;stroke:black;stroke-width:2" /><polyline points="286.00000000000006,1161.0 450.0,1161.0" 
style="fill:none;stroke:black;stroke-width:2" /><text
x="250.0" y="1285.0"
text-anchor="middle"
style="font-family:Arial;font-size:40"> 
MIX &amp; HEAT </text>
<text
x="510.0" y="965.0"
text-anchor="left"
style="font-family:Arial;font-size:40"> 
8 </text>
<text
x="570.0" y="965.0"
text-anchor="left"
style="font-family:Arial;font-size:30"> 
&#8729; BBQ sauce </text>
<polyline points="600.0,1169.0 600.0,1201.0 900.0,1201.0 900.0,1169.0" 
style="fill:none;stroke:black;stroke-width:2" /><text
x="750.0" y="1285.0"
text-anchor="middle"
style="font-family:Arial;font-size:40"> 
COAT </text>
<text
x="1510.0" y="675.0"
text-anchor="left"
style="font-family:Arial;font-size:40"> 
8 </text>
<text
x="1550.0" y="675.0"
text-anchor="left"
style="font-family:Arial;font-size:30"> 
Uncover and apply multiple </text>
<text
x="1550.0" y="705.0"
text-anchor="left"
style="font-family:Arial;font-size:30"> 
layers of BBQ sauce coating </text>
<text
x="1550.0" y="735.0"
text-anchor="left"
style="font-family:Arial;font-size:30"> 
over a further 1 hour of </text>
<text
x="1550.0" y="765.0"
text-anchor="left"
style="font-family:Arial;font-size:30"> 
cooking. Increase oven </text>
<text
x="1550.0" y="795.0"
text-anchor="left"
style="font-family:Arial;font-size:30"> 
temperature for final 10 mins </text>
<text
x="1550.0" y="825.0"
text-anchor="left"
style="font-family:Arial;font-size:30"> 
to achieve a crispy exterior. </text>
</svg>