<?xml version="1.0" encoding="UTF-8"?>
<svg xmlns="http://www.w3.org/2000/svg" width="2000" height="1325.0">
<text x="40.0" y="88.0" font-size="80">
Spaghetti alla Carbonara<tspan font-size="40">&#160;&#160;by Jamie Oliver</tspan></text>
<polyline points="0,0 0,1325.0 " 
style="fill:none;stroke:black;stroke-width:2" /><polyline points="2000,0 2000,1325.0 " 
style="fill:none;stroke:black;stroke-width:2" /><polyline points="500,125.0 500,1325.0 " 
style="fill:none;stroke:black;stroke-width:2" /><polyline points="1000,125.0 1000,1325.0 " 
style="fill:none;stroke:black;stroke-width:2" /><polyline points="1500,125.0 1500,1325.0 " 
style="fill:none;stroke:black;stroke-width:2" /><polyline points="0,0 2000,0 " 
style="fill:none;stroke:black;stroke-width:2" /><polyline points="0,125.0 2000,125.0 " 
style="fill:none;stroke:black;stroke-width:2" /><polyline points="0,1325.0 2000,1325.0 " 
style="fill:none;stroke:black;stroke-width:2" /><polyline points="0,525.0 1500,525.0 " 
style="fill:none;stroke:black;stroke-width:2" /><polyline points="0,925.0 1500,925.0 " 
style="fill:none;stroke:black;stroke-width:2" /><text
x="10.0" y="165.0"
text-anchor="left"
style="font-family:Arial;font-size:40"> 
1 </text>
<text
x="70.0" y="165.0"
text-anchor="left"
style="font-family:Arial;font-size:30"> 
&#8729; 1 egg </text>
<text
x="70.0" y="195.0"
text-anchor="left"
style="font-family:Arial;font-size:30"> 
&#8729; 1 egg yolk </text>
<text
x="70.0" y="225.0"
text-anchor="left"
style="font-family:Arial;font-size:30"> 
&#8729; black pepper </text>
<text
x="70.0" y="255.0"
text-anchor="left"
style="font-family:Arial;font-size:30"> 
&#8729; 50 g pecorino romano </text>
<text
x="90.0" y="285.0"
text-anchor="left"
style="font-family:Arial;font-size:30"> 
(finely grated) </text>
<polyline points="125.0,345.0 155.0,425.0 345.0,425.0 375.0,345.0" 
style="fill:none;stroke:black;stroke-width:2" /><text
x="250.0" y="485.0"
text-anchor="middle"
style="font-family:Arial;font-size:40"> 
MIX </text>
<text
x="1510.0" y="165.0"
text-anchor="left"
style="font-family:Arial;font-size:40"> 
1 </text>
<text
x="1550.0" y="165.0"
text-anchor="left"
style="font-family:Arial;font-size:30"> 
Grana padano or parmesan are </text>
<text
x="1550.0" y="195.0"
text-anchor="left"
style="font-family:Arial;font-size:30"> 
acceptable subsitutes for </text>
<text
x="1550.0" y="225.0"
text-anchor="left"
style="font-family:Arial;font-size:30"> 
pecorino romano. </text>
<text
x="510.0" y="165.0"
text-anchor="left"
style="font-family:Arial;font-size:40"> 
2 </text>
<text
x="570.0" y="165.0"
text-anchor="left"
style="font-family:Arial;font-size:30"> 
&#8729; 500 ml water </text>
<text
x="570.0" y="195.0"
text-anchor="left"
style="font-family:Arial;font-size:30"> 
&#8729; 200 g spaghetti </text>
<text
x="570.0" y="225.0"
text-anchor="left"
style="font-family:Arial;font-size:30"> 
&#8729; 1 tsp salt </text>
<polyline points="550.0,345.0 570.0,425.0 770.0,425.0 790.0,345.0" 
style="fill:none;stroke:black;stroke-width:2" /><polyline points="786.0,361.0 950.0,361.0" 
style="fill:none;stroke:black;stroke-width:2" /><text
x="800.0" y="425.0"
text-anchor="left"
style="font-family:Arial;font-size:30"> 
A </text>
<text
x="750.0" y="485.0"
text-anchor="middle"
style="font-family:Arial;font-size:40"> 
BOIL </text>
<text
x="1010.0" y="165.0"
text-anchor="left"
style="font-family:Arial;font-size:40"> 
3 </text>
<text
x="1070.0" y="165.0"
text-anchor="left"
style="font-family:Arial;font-size:30"> 
&#8729; 100 g guanciale (diced) </text>
<text
x="1070.0" y="195.0"
text-anchor="left"
style="font-family:Arial;font-size:30"> 
&#8729; 1 tbsp olive oil </text>
<text
x="1070.0" y="225.0"
text-anchor="left"
style="font-family:Arial;font-size:30"> 
&#8729; 1 garlic clove (halved) </text>
<polyline points="1050.0,345.0 1070.0,425.0 1270.0,425.0 1290.0,345.0" 
style="fill:none;stroke:black;stroke-width:2" /><polyline points="1286.0,361.0 1450.0,361.0" 
style="fill:none;stroke:black;stroke-width:2" /><text
x="1300.0" y="425.0"
text-anchor="left"
style="font-family:Arial;font-size:30"> 
B </text>
<text
x="1250.0" y="485.0"
text-anchor="middle"
style="font-family:Arial;font-size:40"> 
FRY </text>
<text
x="1510.0" y="295.0"
text-anchor="left"
style="font-family:Arial;font-size:40"> 
3 </text>
<text
x="1550.0" y="295.0"
text-anchor="left"
style="font-family:Arial;font-size:30"> 
Pancetta lardons are an </text>
<text
x="1550.0" y="325.0"
text-anchor="left"
style="font-family:Arial;font-size:30"> 
acceptable substitute for </text>
<text
x="1550.0" y="355.0"
text-anchor="left"
style="font-family:Arial;font-size:30"> 
guanciale. Rub and press </text>
<text
x="1550.0" y="385.0"
text-anchor="left"
style="font-family:Arial;font-size:30"> 
garlic into pan to extract </text>
<text
x="1550.0" y="415.0"
text-anchor="left"
style="font-family:Arial;font-size:30"> 
flavour. </text>
<text
x="10.0" y="565.0"
text-anchor="left"
style="font-family:Arial;font-size:40"> 
4 </text>
<text
x="70.0" y="565.0"
text-anchor="left"
style="font-family:Arial;font-size:30"> 
&#8729; REMOVE garlic clove </text>
<polyline points="50.0,745.0 70.0,825.0 270.0,825.0 290.0,745.0" 
style="fill:none;stroke:black;stroke-width:2" /><polyline points="286.00000000000006,761.0 450.0,761.0" 
style="fill:none;stroke:black;stroke-width:2" /><text
x="300.0" y="825.0"
text-anchor="left"
style="font-family:Arial;font-size:30"> 
B </text>
<text
x="250.0" y="885.0"
text-anchor="middle"
style="font-family:Arial;font-size:40"> 
FRY </text>
<text
x="510.0" y="565.0"
text-anchor="left"
style="font-family:Arial;font-size:40"> 
5 </text>
<text
x="570.0" y="565.0"
text-anchor="left"
style="font-family:Arial;font-size:30"> 
&#8729; saucepan A spaghetti </text>
<text
x="590.0" y="595.0"
text-anchor="left"
style="font-family:Arial;font-size:30"> 
(drained) </text>
<text
x="570.0" y="625.0"
text-anchor="left"
style="font-family:Arial;font-size:30"> 
&#8729; 2 tbsp saucepan A water </text>
<polyline points="550.0,745.0 570.0,825.0 770.0,825.0 790.0,745.0" 
style="fill:none;stroke:black;stroke-width:2" /><polyline points="786.0,761.0 950.0,761.0" 
style="fill:none;stroke:black;stroke-width:2" /><text
x="800.0" y="825.0"
text-anchor="left"
style="font-family:Arial;font-size:30"> 
B </text>
<text
x="750.0" y="885.0"
text-anchor="middle"
style="font-family:Arial;font-size:40"> 
MIX &amp; COOL </text>
<text
x="1510.0" y="485.0"
text-anchor="left"
style="font-family:Arial;font-size:40"> 
5 </text>
<text
x="1550.0" y="485.0"
text-anchor="left"
style="font-family:Arial;font-size:30"> 
Cool slightly to prevent egg </text>
<text
x="1550.0" y="515.0"
text-anchor="left"
style="font-family:Arial;font-size:30"> 
mixture scrambling. </text>
<text
x="1010.0" y="565.0"
text-anchor="left"
style="font-family:Arial;font-size:40"> 
6 </text>
<text
x="1070.0" y="565.0"
text-anchor="left"
style="font-family:Arial;font-size:30"> 
&#8729; mixing bowl contents </text>
<polyline points="1050.0,745.0 1070.0,825.0 1270.0,825.0 1290.0,745.0" 
style="fill:none;stroke:black;stroke-width:2" /><polyline points="1286.0,761.0 1450.0,761.0" 
style="fill:none;stroke:black;stroke-width:2" /><text
x="1300.0" y="825.0"
text-anchor="left"
style="font-family:Arial;font-size:30"> 
B </text>
<text
x="1250.0" y="885.0"
text-anchor="middle"
style="font-family:Arial;font-size:40"> 
MIX </text>
<text
x="1510.0" y="585.0"
text-anchor="left"
style="font-family:Arial;font-size:40"> 
6 </text>
<text
x="1550.0" y="585.0"
text-anchor="left"
style="font-family:Arial;font-size:30"> 
If necessary, add more pasta </text>
<text
x="1550.0" y="615.0"
text-anchor="left"
style="font-family:Arial;font-size:30"> 
water to achieve a thick </text>
<text
x="1550.0" y="645.0"
text-anchor="left"
style="font-family:Arial;font-size:30"> 
consistency in the sauce. </text>
<text
x="10.0" y="965.0"
text-anchor="left"
style="font-family:Arial;font-size:40"> 
7 </text>
<text
x="70.0" y="965.0"
text-anchor="left"
style="font-family:Arial;font-size:30"> 
&#8729; saucepan B contents </text>
<text
x="70.0" y="995.0"
text-anchor="left"
style="font-family:Arial;font-size:30"> 
&#8729; black pepper </text>
<polyline points="100.0,1169.0 150.0,1201.0 350.0,1201.0 400.0,1169.0" 
style="fill:none;stroke:black;stroke-width:2" /><text
x="250.0" y="1285.0"
text-anchor="middle"
style="font-family:Arial;font-size:40"> 
SERVE </text>
</svg>