<?xml version="1.0" encoding="UTF-8"?>
<svg xmlns="http://www.w3.org/2000/svg" width="2000" height="525.0">
<text x="40.0" y="88.0" font-size="80">
Butternut Squash Soup<tspan font-size="40">&#160;&#160;by https://www.youtube.com/watch?v=NPn5FV74o_s</tspan></text>
<polyline points="0,0 0,525.0 " 
style="fill:none;stroke:black;stroke-width:2" /><polyline points="2000,0 2000,525.0 " 
style="fill:none;stroke:black;stroke-width:2" /><polyline points="500,125.0 500,525.0 " 
style="fill:none;stroke:black;stroke-width:2" /><polyline points="1000,125.0 1000,525.0 " 
style="fill:none;stroke:black;stroke-width:2" /><polyline points="1500,125.0 1500,525.0 " 
style="fill:none;stroke:black;stroke-width:2" /><polyline points="0,0 2000,0 " 
style="fill:none;stroke:black;stroke-width:2" /><polyline points="0,125.0 2000,125.0 " 
style="fill:none;stroke:black;stroke-width:2" /><polyline points="0,525.0 2000,525.0 " 
style="fill:none;stroke:black;stroke-width:2" /><text
x="10.0" y="165.0"
text-anchor="left"
style="font-family:Arial;font-size:40"> 
1 </text>
<text
x="70.0" y="165.0"
text-anchor="left"
style="font-family:Arial;font-size:30"> 
&#8729; 1 white onion (chunked) </text>
<text
x="70.0" y="195.0"
text-anchor="left"
style="font-family:Arial;font-size:30"> 
&#8729; 2 garlic cloves </text>
<text
x="70.0" y="225.0"
text-anchor="left"
style="font-family:Arial;font-size:30"> 
&#8729; 1 tbsp olive oil </text>
<polyline points="50.0,345.0 70.0,425.0 270.0,425.0 290.0,345.0" 
style="fill:none;stroke:black;stroke-width:2" /><polyline points="286.00000000000006,361.0 450.0,361.0" 
style="fill:none;stroke:black;stroke-width:2" /><text
x="250.0" y="485.0"
text-anchor="middle"
style="font-family:Arial;font-size:40"> 
FRY </text>
<text
x="1510.0" y="165.0"
text-anchor="left"
style="font-family:Arial;font-size:40"> 
1 </text>
<text
x="1550.0" y="165.0"
text-anchor="left"
style="font-family:Arial;font-size:30"> 
Fry on low heat without </text>
<text
x="1550.0" y="195.0"
text-anchor="left"
style="font-family:Arial;font-size:30"> 
browning the onions. </text>
<text
x="510.0" y="165.0"
text-anchor="left"
style="font-family:Arial;font-size:40"> 
2 </text>
<text
x="570.0" y="165.0"
text-anchor="left"
style="font-family:Arial;font-size:30"> 
&#8729; 1 butternut squash </text>
<text
x="590.0" y="195.0"
text-anchor="left"
style="font-family:Arial;font-size:30"> 
(chunked) </text>
<text
x="570.0" y="225.0"
text-anchor="left"
style="font-family:Arial;font-size:30"> 
&#8729; 1 vegetable stock cube </text>
<text
x="570.0" y="255.0"
text-anchor="left"
style="font-family:Arial;font-size:30"> 
&#8729; 200 ml water (boiling) </text>
<polyline points="550.0,345.0 570.0,425.0 770.0,425.0 790.0,345.0" 
style="fill:none;stroke:black;stroke-width:2" /><polyline points="786.0,361.0 950.0,361.0" 
style="fill:none;stroke:black;stroke-width:2" /><text
x="750.0" y="485.0"
text-anchor="middle"
style="font-family:Arial;font-size:40"> 
MIX &amp; BOIL </text>
<text
x="1510.0" y="265.0"
text-anchor="left"
style="font-family:Arial;font-size:40"> 
2 </text>
<text
x="1550.0" y="265.0"
text-anchor="left"
style="font-family:Arial;font-size:30"> 
Simmer for 15 mins with a lid </text>
<text
x="1550.0" y="295.0"
text-anchor="left"
style="font-family:Arial;font-size:30"> 
on. </text>
<text
x="1010.0" y="165.0"
text-anchor="left"
style="font-family:Arial;font-size:40"> 
3 </text>
<text
x="1070.0" y="165.0"
text-anchor="left"
style="font-family:Arial;font-size:30"> 
&#8729; 1/2 tsp black pepper </text>
<text
x="1070.0" y="195.0"
text-anchor="left"
style="font-family:Arial;font-size:30"> 
&#8729; 1/2 tsp salt </text>
<polyline points="1050.0,345.0 1070.0,425.0 1270.0,425.0 1290.0,345.0" 
style="fill:none;stroke:black;stroke-width:2" /><polyline points="1286.0,361.0 1450.0,361.0" 
style="fill:none;stroke:black;stroke-width:2" /><text
x="1250.0" y="485.0"
text-anchor="middle"
style="font-family:Arial;font-size:40"> 
BLEND </text>
<text
x="1510.0" y="365.0"
text-anchor="left"
style="font-family:Arial;font-size:40"> 
3 </text>
<text
x="1550.0" y="365.0"
text-anchor="left"
style="font-family:Arial;font-size:30"> 
Blend with a hand blender. Add </text>
<text
x="1550.0" y="395.0"
text-anchor="left"
style="font-family:Arial;font-size:30"> 
water if necessary to thin the </text>
<text
x="1550.0" y="425.0"
text-anchor="left"
style="font-family:Arial;font-size:30"> 
soup. </text>
</svg>