<?xml version="1.0" encoding="UTF-8"?>
<svg xmlns="http://www.w3.org/2000/svg" width="2000" height="925.0">
<text x="40.0" y="88.0" font-size="80">
Egg Fried Rice<tspan font-size="40">&#160;&#160;by Ziang's Food Workshop</tspan></text>
<polyline points="0,0 0,925.0 " 
style="fill:none;stroke:black;stroke-width:2" /><polyline points="2000,0 2000,925.0 " 
style="fill:none;stroke:black;stroke-width:2" /><polyline points="500,125.0 500,925.0 " 
style="fill:none;stroke:black;stroke-width:2" /><polyline points="1000,125.0 1000,925.0 " 
style="fill:none;stroke:black;stroke-width:2" /><polyline points="1500,125.0 1500,925.0 " 
style="fill:none;stroke:black;stroke-width:2" /><polyline points="0,0 2000,0 " 
style="fill:none;stroke:black;stroke-width:2" /><polyline points="0,125.0 2000,125.0 " 
style="fill:none;stroke:black;stroke-width:2" /><polyline points="0,925.0 2000,925.0 " 
style="fill:none;stroke:black;stroke-width:2" /><polyline points="0,525.0 1500,525.0 " 
style="fill:none;stroke:black;stroke-width:2" /><text
x="10.0" y="165.0"
text-anchor="left"
style="font-family:Arial;font-size:40"> 
1 </text>
<text
x="70.0" y="165.0"
text-anchor="left"
style="font-family:Arial;font-size:30"> 
&#8729; 200 g cooked rice </text>
<text
x="70.0" y="195.0"
text-anchor="left"
style="font-family:Arial;font-size:30"> 
&#8729; 1 tsp dark soy sauce </text>
<text
x="70.0" y="225.0"
text-anchor="left"
style="font-family:Arial;font-size:30"> 
&#8729; 1 tsp salt </text>
<text
x="70.0" y="255.0"
text-anchor="left"
style="font-family:Arial;font-size:30"> 
&#8729; 1/2 tsp MSG </text>
<polyline points="125.0,345.0 155.0,425.0 345.0,425.0 375.0,345.0" 
style="fill:none;stroke:black;stroke-width:2" /><text
x="410.0" y="425.0"
text-anchor="left"
style="font-family:Arial;font-size:30"> 
A </text>
<text
x="250.0" y="485.0"
text-anchor="middle"
style="font-family:Arial;font-size:40"> 
MIX </text>
<text
x="1510.0" y="165.0"
text-anchor="left"
style="font-family:Arial;font-size:40"> 
1 </text>
<text
x="1550.0" y="165.0"
text-anchor="left"
style="font-family:Arial;font-size:30"> 
Cooked rice should be stored </text>
<text
x="1550.0" y="195.0"
text-anchor="left"
style="font-family:Arial;font-size:30"> 
in the fridge overnight </text>
<text
x="1550.0" y="225.0"
text-anchor="left"
style="font-family:Arial;font-size:30"> 
beforehand. </text>
<text
x="510.0" y="165.0"
text-anchor="left"
style="font-family:Arial;font-size:40"> 
2 </text>
<text
x="570.0" y="165.0"
text-anchor="left"
style="font-family:Arial;font-size:30"> 
&#8729; 1 egg </text>
<polyline points="625.0,345.0 655.0,425.0 845.0,425.0 875.0,345.0" 
style="fill:none;stroke:black;stroke-width:2" /><text
x="910.0" y="425.0"
text-anchor="left"
style="font-family:Arial;font-size:30"> 
B </text>
<text
x="750.0" y="485.0"
text-anchor="middle"
style="font-family:Arial;font-size:40"> 
WHISK </text>
<text
x="1010.0" y="165.0"
text-anchor="left"
style="font-family:Arial;font-size:40"> 
3 </text>
<text
x="1070.0" y="165.0"
text-anchor="left"
style="font-family:Arial;font-size:30"> 
&#8729; 1 tbsp vegetable oil </text>
<polyline points="1060.0,369.0 1080.0,401.0 1270.0,401.0 1290.0,369.0" 
style="fill:none;stroke:black;stroke-width:2" /><polyline points="1282.5,385.0 1425.0,385.0" 
style="fill:none;stroke:black;stroke-width:2" /><text
x="1250.0" y="485.0"
text-anchor="middle"
style="font-family:Arial;font-size:40"> 
HEAT </text>
<text
x="1510.0" y="295.0"
text-anchor="left"
style="font-family:Arial;font-size:40"> 
3 </text>
<text
x="1550.0" y="295.0"
text-anchor="left"
style="font-family:Arial;font-size:30"> 
Frying pan needs to reach a </text>
<text
x="1550.0" y="325.0"
text-anchor="left"
style="font-family:Arial;font-size:30"> 
high temperature. </text>
<text
x="10.0" y="565.0"
text-anchor="left"
style="font-family:Arial;font-size:40"> 
4 </text>
<text
x="70.0" y="565.0"
text-anchor="left"
style="font-family:Arial;font-size:30"> 
&#8729; mixing bowl B contents </text>
<polyline points="60.0,769.0 80.0,801.0 270.0,801.0 290.0,769.0" 
style="fill:none;stroke:black;stroke-width:2" /><polyline points="282.5,785.0 425.0,785.0" 
style="fill:none;stroke:black;stroke-width:2" /><text
x="250.0" y="885.0"
text-anchor="middle"
style="font-family:Arial;font-size:40"> 
FRY </text>
<text
x="1510.0" y="395.0"
text-anchor="left"
style="font-family:Arial;font-size:40"> 
4 </text>
<text
x="1550.0" y="395.0"
text-anchor="left"
style="font-family:Arial;font-size:30"> 
Break up any large clumps of </text>
<text
x="1550.0" y="425.0"
text-anchor="left"
style="font-family:Arial;font-size:30"> 
egg. </text>
<text
x="510.0" y="565.0"
text-anchor="left"
style="font-family:Arial;font-size:40"> 
5 </text>
<text
x="570.0" y="565.0"
text-anchor="left"
style="font-family:Arial;font-size:30"> 
&#8729; mixing bowl A contents </text>
<polyline points="560.0,769.0 580.0,801.0 770.0,801.0 790.0,769.0" 
style="fill:none;stroke:black;stroke-width:2" /><polyline points="782.5,785.0 925.0,785.0" 
style="fill:none;stroke:black;stroke-width:2" /><text
x="750.0" y="885.0"
text-anchor="middle"
style="font-family:Arial;font-size:40"> 
MIX &amp; FRY </text>
<text
x="1510.0" y="495.0"
text-anchor="left"
style="font-family:Arial;font-size:40"> 
5 </text>
<text
x="1550.0" y="495.0"
text-anchor="left"
style="font-family:Arial;font-size:30"> 
Press into the frying pan. </text>
<text
x="1550.0" y="525.0"
text-anchor="left"
style="font-family:Arial;font-size:30"> 
Cook until warm and sticky. </text>
</svg>