<?xml version="1.0" encoding="UTF-8"?>
<svg xmlns="http://www.w3.org/2000/svg" width="2000" height="925.0">
<text x="40.0" y="88.0" font-size="80">
Pork Char Siu<tspan font-size="40">&#160;&#160;by Joshua Weissman</tspan></text>
<polyline points="0,0 0,925.0 " 
style="fill:none;stroke:black;stroke-width:2" /><polyline points="2000,0 2000,925.0 " 
style="fill:none;stroke:black;stroke-width:2" /><polyline points="500,125.0 500,925.0 " 
style="fill:none;stroke:black;stroke-width:2" /><polyline points="1000,125.0 1000,925.0 " 
style="fill:none;stroke:black;stroke-width:2" /><polyline points="1500,125.0 1500,925.0 " 
style="fill:none;stroke:black;stroke-width:2" /><polyline points="0,0 2000,0 " 
style="fill:none;stroke:black;stroke-width:2" /><polyline points="0,125.0 2000,125.0 " 
style="fill:none;stroke:black;stroke-width:2" /><polyline points="0,925.0 2000,925.0 " 
style="fill:none;stroke:black;stroke-width:2" /><polyline points="0,525.0 1500,525.0 " 
style="fill:none;stroke:black;stroke-width:2" /><text
x="10.0" y="165.0"
text-anchor="left"
style="font-family:Arial;font-size:40"> 
1 </text>
<text
x="70.0" y="165.0"
text-anchor="left"
style="font-family:Arial;font-size:30"> 
&#8729; 3 tbsp brown sugar </text>
<text
x="70.0" y="195.0"
text-anchor="left"
style="font-family:Arial;font-size:30"> 
&#8729; 1+1/2 tsp chinese five </text>
<text
x="90.0" y="225.0"
text-anchor="left"
style="font-family:Arial;font-size:30"> 
spice </text>
<text
x="70.0" y="255.0"
text-anchor="left"
style="font-family:Arial;font-size:30"> 
&#8729; 2 tbsp shaoxing rice wine </text>
<text
x="70.0" y="285.0"
text-anchor="left"
style="font-family:Arial;font-size:30"> 
&#8729; 1 tbsp dark soy sauce </text>
<text
x="70.0" y="315.0"
text-anchor="left"
style="font-family:Arial;font-size:30"> 
&#8729; 2 tbsp hoisin sauce </text>
<polyline points="125.0,345.0 155.0,425.0 345.0,425.0 375.0,345.0" 
style="fill:none;stroke:black;stroke-width:2" /><text
x="410.0" y="425.0"
text-anchor="left"
style="font-family:Arial;font-size:30"> 
A </text>
<text
x="250.0" y="485.0"
text-anchor="middle"
style="font-family:Arial;font-size:40"> 
MIX </text>
<text
x="510.0" y="165.0"
text-anchor="left"
style="font-family:Arial;font-size:40"> 
2 </text>
<text
x="570.0" y="165.0"
text-anchor="left"
style="font-family:Arial;font-size:30"> 
&#8729; 1 tbsp red bean curd </text>
<text
x="570.0" y="195.0"
text-anchor="left"
style="font-family:Arial;font-size:30"> 
&#8729; 1 tsp sesame oil </text>
<text
x="570.0" y="225.0"
text-anchor="left"
style="font-family:Arial;font-size:30"> 
&#8729; 2 tsp salt </text>
<text
x="570.0" y="255.0"
text-anchor="left"
style="font-family:Arial;font-size:30"> 
&#8729; 1/8 tsp red food colouring </text>
<polyline points="625.0,345.0 655.0,425.0 845.0,425.0 875.0,345.0" 
style="fill:none;stroke:black;stroke-width:2" /><text
x="910.0" y="425.0"
text-anchor="left"
style="font-family:Arial;font-size:30"> 
A </text>
<text
x="750.0" y="485.0"
text-anchor="middle"
style="font-family:Arial;font-size:40"> 
MIX </text>
<text
x="1010.0" y="165.0"
text-anchor="left"
style="font-family:Arial;font-size:40"> 
3 </text>
<text
x="1070.0" y="165.0"
text-anchor="left"
style="font-family:Arial;font-size:30"> 
&#8729; 4 tbsp mixing bowl A </text>
<polyline points="1125.0,345.0 1155.0,425.0 1345.0,425.0 1375.0,345.0" 
style="fill:none;stroke:black;stroke-width:2" /><text
x="1410.0" y="425.0"
text-anchor="left"
style="font-family:Arial;font-size:30"> 
B </text>
<text
x="1250.0" y="485.0"
text-anchor="middle"
style="font-family:Arial;font-size:40"> 
REFRIGERATE </text>
<text
x="10.0" y="565.0"
text-anchor="left"
style="font-family:Arial;font-size:40"> 
4 </text>
<text
x="70.0" y="565.0"
text-anchor="left"
style="font-family:Arial;font-size:30"> 
&#8729; 1 kg pork shoulder </text>
<text
x="90.0" y="595.0"
text-anchor="left"
style="font-family:Arial;font-size:30"> 
(chunked) </text>
<text
x="70.0" y="625.0"
text-anchor="left"
style="font-family:Arial;font-size:30"> 
&#8729; mixing bowl A </text>
<polyline points="125.0,745.0 155.0,825.0 345.0,825.0 375.0,745.0" 
style="fill:none;stroke:black;stroke-width:2" /><text
x="410.0" y="825.0"
text-anchor="left"
style="font-family:Arial;font-size:30"> 
C </text>
<text
x="250.0" y="885.0"
text-anchor="middle"
style="font-family:Arial;font-size:35"> 
MIX &amp; REFRIGERATE </text>
<text
x="1510.0" y="165.0"
text-anchor="left"
style="font-family:Arial;font-size:40"> 
4 </text>
<text
x="1550.0" y="165.0"
text-anchor="left"
style="font-family:Arial;font-size:30"> 
Marinade overnight. </text>
<text
x="510.0" y="565.0"
text-anchor="left"
style="font-family:Arial;font-size:40"> 
5 </text>
<text
x="570.0" y="565.0"
text-anchor="left"
style="font-family:Arial;font-size:30"> 
&#8729; 4 tbsp honey </text>
<polyline points="625.0,745.0 655.0,825.0 845.0,825.0 875.0,745.0" 
style="fill:none;stroke:black;stroke-width:2" /><text
x="910.0" y="825.0"
text-anchor="left"
style="font-family:Arial;font-size:30"> 
B </text>
<text
x="750.0" y="885.0"
text-anchor="middle"
style="font-family:Arial;font-size:40"> 
MIX </text>
<text
x="1010.0" y="565.0"
text-anchor="left"
style="font-family:Arial;font-size:40"> 
6 </text>
<text
x="1070.0" y="565.0"
text-anchor="left"
style="font-family:Arial;font-size:30"> 
&#8729; mixing bowl B </text>
<text
x="1070.0" y="595.0"
text-anchor="left"
style="font-family:Arial;font-size:30"> 
&#8729; mixing bowl C </text>
<polyline points="1100.0,769.0 1100.0,801.0 1400.0,801.0 1400.0,769.0" 
style="fill:none;stroke:black;stroke-width:2" /><text
x="1250.0" y="885.0"
text-anchor="middle"
style="font-family:Arial;font-size:38"> 
GLAZE &amp; ROAST </text>
<text
x="1510.0" y="235.0"
text-anchor="left"
style="font-family:Arial;font-size:40"> 
6 </text>
<text
x="1550.0" y="235.0"
text-anchor="left"
style="font-family:Arial;font-size:30"> 
Place the pork on a rack on </text>
<text
x="1550.0" y="265.0"
text-anchor="left"
style="font-family:Arial;font-size:30"> 
the oven tray. A splash of </text>
<text
x="1550.0" y="295.0"
text-anchor="left"
style="font-family:Arial;font-size:30"> 
water on the oven tray </text>
<text
x="1550.0" y="325.0"
text-anchor="left"
style="font-family:Arial;font-size:30"> 
prevents burnt drippings. Turn </text>
<text
x="1550.0" y="355.0"
text-anchor="left"
style="font-family:Arial;font-size:30"> 
over and reglaze at halway </text>
<text
x="1550.0" y="385.0"
text-anchor="left"
style="font-family:Arial;font-size:30"> 
through. </text>
</svg>