<?xml version="1.0" encoding="UTF-8"?>
<svg xmlns="http://www.w3.org/2000/svg" width="2000" height="2525.0">
<text x="40.0" y="88.0" font-size="80">
Profiteroles<tspan font-size="40">&#160;&#160;by French Cooking Academy</tspan></text>
<polyline points="0,0 0,2525.0 " 
style="fill:none;stroke:black;stroke-width:2" /><polyline points="2000,0 2000,2525.0 " 
style="fill:none;stroke:black;stroke-width:2" /><polyline points="500,125.0 500,2525.0 " 
style="fill:none;stroke:black;stroke-width:2" /><polyline points="1000,125.0 1000,2525.0 " 
style="fill:none;stroke:black;stroke-width:2" /><polyline points="1500,125.0 1500,2525.0 " 
style="fill:none;stroke:black;stroke-width:2" /><polyline points="0,0 2000,0 " 
style="fill:none;stroke:black;stroke-width:2" /><polyline points="0,125.0 2000,125.0 " 
style="fill:none;stroke:black;stroke-width:2" /><polyline points="0,2525.0 2000,2525.0 " 
style="fill:none;stroke:black;stroke-width:2" /><polyline points="0,525.0 1500,525.0 " 
style="fill:none;stroke:black;stroke-width:2" /><polyline points="0,925.0 1500,925.0 " 
style="fill:none;stroke:black;stroke-width:2" /><polyline points="0,1325.0 1500,1325.0 " 
style="fill:none;stroke:black;stroke-width:2" /><polyline points="0,1725.0 1500,1725.0 " 
style="fill:none;stroke:black;stroke-width:2" /><polyline points="0,2125.0 1500,2125.0 " 
style="fill:none;stroke:black;stroke-width:2" /><text
x="10.0" y="165.0"
text-anchor="left"
style="font-family:Arial;font-size:40"> 
1 </text>
<text
x="70.0" y="165.0"
text-anchor="left"
style="font-family:Arial;font-size:30"> 
&#8729; 200 ml water </text>
<text
x="70.0" y="195.0"
text-anchor="left"
style="font-family:Arial;font-size:30"> 
&#8729; 10 g caster sugar </text>
<text
x="70.0" y="225.0"
text-anchor="left"
style="font-family:Arial;font-size:30"> 
&#8729; 1/4 tsp salt </text>
<text
x="70.0" y="255.0"
text-anchor="left"
style="font-family:Arial;font-size:30"> 
&#8729; 80 g unsalted butter </text>
<polyline points="50.0,345.0 70.0,425.0 270.0,425.0 290.0,345.0" 
style="fill:none;stroke:black;stroke-width:2" /><polyline points="286.00000000000006,361.0 450.0,361.0" 
style="fill:none;stroke:black;stroke-width:2" /><text
x="300.0" y="425.0"
text-anchor="left"
style="font-family:Arial;font-size:30"> 
A </text>
<text
x="250.0" y="485.0"
text-anchor="middle"
style="font-family:Arial;font-size:40"> 
SIMMER </text>
<text
x="1510.0" y="165.0"
text-anchor="left"
style="font-family:Arial;font-size:40"> 
1 </text>
<text
x="1550.0" y="165.0"
text-anchor="left"
style="font-family:Arial;font-size:30"> 
Stir constantly whilst </text>
<text
x="1550.0" y="195.0"
text-anchor="left"
style="font-family:Arial;font-size:30"> 
bringing to the simmer. Allow </text>
<text
x="1550.0" y="225.0"
text-anchor="left"
style="font-family:Arial;font-size:30"> 
to simmer for about 2 mins, </text>
<text
x="1550.0" y="255.0"
text-anchor="left"
style="font-family:Arial;font-size:30"> 
then turn the heat off. </text>
<text
x="510.0" y="165.0"
text-anchor="left"
style="font-family:Arial;font-size:40"> 
2 </text>
<text
x="570.0" y="165.0"
text-anchor="left"
style="font-family:Arial;font-size:30"> 
&#8729; 100 g plain flour </text>
<polyline points="550.0,345.0 570.0,425.0 770.0,425.0 790.0,345.0" 
style="fill:none;stroke:black;stroke-width:2" /><polyline points="786.0,361.0 950.0,361.0" 
style="fill:none;stroke:black;stroke-width:2" /><text
x="800.0" y="425.0"
text-anchor="left"
style="font-family:Arial;font-size:30"> 
A </text>
<text
x="750.0" y="485.0"
text-anchor="middle"
style="font-family:Arial;font-size:40"> 
MIX &amp; HEAT </text>
<text
x="1510.0" y="325.0"
text-anchor="left"
style="font-family:Arial;font-size:40"> 
2 </text>
<text
x="1550.0" y="325.0"
text-anchor="left"
style="font-family:Arial;font-size:30"> 
Mix with the heat off and then </text>
<text
x="1550.0" y="355.0"
text-anchor="left"
style="font-family:Arial;font-size:30"> 
cook for a further few minutes </text>
<text
x="1550.0" y="385.0"
text-anchor="left"
style="font-family:Arial;font-size:30"> 
to dry off excess moisture. </text>
<text
x="1010.0" y="165.0"
text-anchor="left"
style="font-family:Arial;font-size:40"> 
3 </text>
<text
x="1070.0" y="165.0"
text-anchor="left"
style="font-family:Arial;font-size:30"> 
&#8729; saucepan </text>
<polyline points="1125.0,345.0 1155.0,425.0 1345.0,425.0 1375.0,345.0" 
style="fill:none;stroke:black;stroke-width:2" /><text
x="1410.0" y="425.0"
text-anchor="left"
style="font-family:Arial;font-size:30"> 
A </text>
<text
x="1250.0" y="485.0"
text-anchor="middle"
style="font-family:Arial;font-size:40"> 
TRANSFER </text>
<text
x="10.0" y="565.0"
text-anchor="left"
style="font-family:Arial;font-size:40"> 
4 </text>
<text
x="70.0" y="565.0"
text-anchor="left"
style="font-family:Arial;font-size:30"> 
&#8729; 3 eggs (beaten) </text>
<polyline points="125.0,745.0 155.0,825.0 345.0,825.0 375.0,745.0" 
style="fill:none;stroke:black;stroke-width:2" /><text
x="410.0" y="825.0"
text-anchor="left"
style="font-family:Arial;font-size:30"> 
A </text>
<text
x="250.0" y="885.0"
text-anchor="middle"
style="font-family:Arial;font-size:40"> 
MIX </text>
<text
x="1510.0" y="455.0"
text-anchor="left"
style="font-family:Arial;font-size:40"> 
4 </text>
<text
x="1550.0" y="455.0"
text-anchor="left"
style="font-family:Arial;font-size:30"> 
Add the eggs gradually. It may </text>
<text
x="1550.0" y="485.0"
text-anchor="left"
style="font-family:Arial;font-size:30"> 
not be necessary to use them </text>
<text
x="1550.0" y="515.0"
text-anchor="left"
style="font-family:Arial;font-size:30"> 
all. Mix vigourously either by </text>
<text
x="1550.0" y="545.0"
text-anchor="left"
style="font-family:Arial;font-size:30"> 
hand or in machine. The choux </text>
<text
x="1550.0" y="575.0"
text-anchor="left"
style="font-family:Arial;font-size:30"> 
pastry is ready with it holds </text>
<text
x="1550.0" y="605.0"
text-anchor="left"
style="font-family:Arial;font-size:30"> 
soft peaks. </text>
<text
x="510.0" y="565.0"
text-anchor="left"
style="font-family:Arial;font-size:40"> 
5 </text>
<text
x="570.0" y="565.0"
text-anchor="left"
style="font-family:Arial;font-size:30"> 
&#8729; mixing bowl </text>
<polyline points="600.0,769.0 600.0,801.0 900.0,801.0 900.0,769.0" 
style="fill:none;stroke:black;stroke-width:2" /><text
x="750.0" y="885.0"
text-anchor="middle"
style="font-family:Arial;font-size:40"> 
PIPE </text>
<text
x="1510.0" y="675.0"
text-anchor="left"
style="font-family:Arial;font-size:40"> 
5 </text>
<text
x="1550.0" y="675.0"
text-anchor="left"
style="font-family:Arial;font-size:30"> 
Line the oven tray with baking </text>
<text
x="1550.0" y="705.0"
text-anchor="left"
style="font-family:Arial;font-size:30"> 
paper. Twist to release when </text>
<text
x="1550.0" y="735.0"
text-anchor="left"
style="font-family:Arial;font-size:30"> 
piping. Keep the profiterole </text>
<text
x="1550.0" y="765.0"
text-anchor="left"
style="font-family:Arial;font-size:30"> 
sizes small. </text>
<text
x="1010.0" y="565.0"
text-anchor="left"
style="font-family:Arial;font-size:40"> 
6 </text>
<text
x="1070.0" y="565.0"
text-anchor="left"
style="font-family:Arial;font-size:30"> 
&#8729; 1 egg (beaten) </text>
<polyline points="1100.0,769.0 1100.0,801.0 1400.0,801.0 1400.0,769.0" 
style="fill:none;stroke:black;stroke-width:2" /><text
x="1250.0" y="885.0"
text-anchor="middle"
style="font-family:Arial;font-size:38"> 
GLAZE &amp; BAKE </text>
<text
x="1510.0" y="835.0"
text-anchor="left"
style="font-family:Arial;font-size:40"> 
6 </text>
<text
x="1550.0" y="835.0"
text-anchor="left"
style="font-family:Arial;font-size:30"> 
Only a small amount is needed </text>
<text
x="1550.0" y="865.0"
text-anchor="left"
style="font-family:Arial;font-size:30"> 
to glaze the pastry. Bake at </text>
<text
x="1550.0" y="895.0"
text-anchor="left"
style="font-family:Arial;font-size:30"> 
200 C for 15 mins, or until </text>
<text
x="1550.0" y="925.0"
text-anchor="left"
style="font-family:Arial;font-size:30"> 
well browned and hardened. </text>
<text
x="1550.0" y="955.0"
text-anchor="left"
style="font-family:Arial;font-size:30"> 
Leave in the oven with the </text>
<text
x="1550.0" y="985.0"
text-anchor="left"
style="font-family:Arial;font-size:30"> 
door open briefly before </text>
<text
x="1550.0" y="1015.0"
text-anchor="left"
style="font-family:Arial;font-size:30"> 
removing. </text>
<text
x="10.0" y="965.0"
text-anchor="left"
style="font-family:Arial;font-size:40"> 
7 </text>
<text
x="70.0" y="965.0"
text-anchor="left"
style="font-family:Arial;font-size:30"> 
&#8729; 4  egg yolks </text>
<text
x="70.0" y="995.0"
text-anchor="left"
style="font-family:Arial;font-size:30"> 
&#8729; 70 g caster sugar </text>
<polyline points="125.0,1145.0 155.0,1225.0 345.0,1225.0 375.0,1145.0" 
style="fill:none;stroke:black;stroke-width:2" /><text
x="410.0" y="1225.0"
text-anchor="left"
style="font-family:Arial;font-size:30"> 
B </text>
<text
x="250.0" y="1285.0"
text-anchor="middle"
style="font-family:Arial;font-size:40"> 
WHISK </text>
<text
x="510.0" y="965.0"
text-anchor="left"
style="font-family:Arial;font-size:40"> 
8 </text>
<text
x="570.0" y="965.0"
text-anchor="left"
style="font-family:Arial;font-size:30"> 
&#8729; 40 g cornflour </text>
<polyline points="625.0,1145.0 655.0,1225.0 845.0,1225.0 875.0,1145.0" 
style="fill:none;stroke:black;stroke-width:2" /><text
x="910.0" y="1225.0"
text-anchor="left"
style="font-family:Arial;font-size:30"> 
B </text>
<text
x="750.0" y="1285.0"
text-anchor="middle"
style="font-family:Arial;font-size:40"> 
WHISK </text>
<text
x="1010.0" y="965.0"
text-anchor="left"
style="font-family:Arial;font-size:40"> 
9 </text>
<text
x="1070.0" y="965.0"
text-anchor="left"
style="font-family:Arial;font-size:30"> 
&#8729; 480 ml whole milk </text>
<polyline points="1050.0,1145.0 1070.0,1225.0 1270.0,1225.0 1290.0,1145.0" 
style="fill:none;stroke:black;stroke-width:2" /><polyline points="1286.0,1161.0 1450.0,1161.0" 
style="fill:none;stroke:black;stroke-width:2" /><text
x="1300.0" y="1225.0"
text-anchor="left"
style="font-family:Arial;font-size:30"> 
B </text>
<text
x="1250.0" y="1285.0"
text-anchor="middle"
style="font-family:Arial;font-size:40"> 
HEAT </text>
<text
x="10.0" y="1365.0"
text-anchor="left"
style="font-family:Arial;font-size:40"> 
10 </text>
<text
x="70.0" y="1365.0"
text-anchor="left"
style="font-family:Arial;font-size:30"> 
&#8729; 1/2 saucepan B </text>
<polyline points="125.0,1545.0 155.0,1625.0 345.0,1625.0 375.0,1545.0" 
style="fill:none;stroke:black;stroke-width:2" /><text
x="410.0" y="1625.0"
text-anchor="left"
style="font-family:Arial;font-size:30"> 
B </text>
<text
x="250.0" y="1685.0"
text-anchor="middle"
style="font-family:Arial;font-size:40"> 
WHISK </text>
<text
x="510.0" y="1365.0"
text-anchor="left"
style="font-family:Arial;font-size:40"> 
11 </text>
<text
x="570.0" y="1365.0"
text-anchor="left"
style="font-family:Arial;font-size:30"> 
&#8729; mixing bowl B contents </text>
<polyline points="550.0,1545.0 570.0,1625.0 770.0,1625.0 790.0,1545.0" 
style="fill:none;stroke:black;stroke-width:2" /><polyline points="786.0,1561.0 950.0,1561.0" 
style="fill:none;stroke:black;stroke-width:2" /><text
x="800.0" y="1625.0"
text-anchor="left"
style="font-family:Arial;font-size:30"> 
B </text>
<text
x="750.0" y="1685.0"
text-anchor="middle"
style="font-family:Arial;font-size:38"> 
WHISK &amp; HEAT </text>
<text
x="1010.0" y="1365.0"
text-anchor="left"
style="font-family:Arial;font-size:40"> 
12 </text>
<text
x="1070.0" y="1365.0"
text-anchor="left"
style="font-family:Arial;font-size:30"> 
&#8729; saucepan B contents </text>
<text
x="1070.0" y="1395.0"
text-anchor="left"
style="font-family:Arial;font-size:30"> 
&#8729; 2 tsp vanilla paste </text>
<polyline points="1125.0,1545.0 1155.0,1625.0 1345.0,1625.0 1375.0,1545.0" 
style="fill:none;stroke:black;stroke-width:2" /><text
x="1410.0" y="1625.0"
text-anchor="left"
style="font-family:Arial;font-size:30"> 
C </text>
<text
x="1250.0" y="1685.0"
text-anchor="middle"
style="font-family:Arial;font-size:40"> 
MIX &amp; COOL </text>
<text
x="1510.0" y="1085.0"
text-anchor="left"
style="font-family:Arial;font-size:40"> 
12 </text>
<text
x="1570.0" y="1085.0"
text-anchor="left"
style="font-family:Arial;font-size:30"> 
Cool slightly but not all </text>
<text
x="1570.0" y="1115.0"
text-anchor="left"
style="font-family:Arial;font-size:30"> 
the way to room temperature. </text>
<text
x="10.0" y="1765.0"
text-anchor="left"
style="font-family:Arial;font-size:40"> 
13 </text>
<text
x="70.0" y="1765.0"
text-anchor="left"
style="font-family:Arial;font-size:30"> 
&#8729; 15 g unsalted butter </text>
<polyline points="125.0,1945.0 155.0,2025.0 345.0,2025.0 375.0,1945.0" 
style="fill:none;stroke:black;stroke-width:2" /><text
x="410.0" y="2025.0"
text-anchor="left"
style="font-family:Arial;font-size:30"> 
C </text>
<text
x="250.0" y="2085.0"
text-anchor="middle"
style="font-family:Arial;font-size:40"> 
MIX &amp; COVER </text>
<text
x="1510.0" y="1185.0"
text-anchor="left"
style="font-family:Arial;font-size:40"> 
13 </text>
<text
x="1570.0" y="1185.0"
text-anchor="left"
style="font-family:Arial;font-size:30"> 
Cover with cling film </text>
<text
x="1570.0" y="1215.0"
text-anchor="left"
style="font-family:Arial;font-size:30"> 
pressed onto the cream and </text>
<text
x="1570.0" y="1245.0"
text-anchor="left"
style="font-family:Arial;font-size:30"> 
refrigerate. </text>
<text
x="510.0" y="1765.0"
text-anchor="left"
style="font-family:Arial;font-size:40"> 
14 </text>
<text
x="570.0" y="1765.0"
text-anchor="left"
style="font-family:Arial;font-size:30"> 
&#8729; 170 ml whippping cream </text>
<text
x="570.0" y="1795.0"
text-anchor="left"
style="font-family:Arial;font-size:30"> 
&#8729; 1/2 tsp vanilla essence </text>
<text
x="570.0" y="1825.0"
text-anchor="left"
style="font-family:Arial;font-size:30"> 
&#8729; 1 tbsp icing sugar </text>
<text
x="590.0" y="1855.0"
text-anchor="left"
style="font-family:Arial;font-size:30"> 
(sifted) </text>
<polyline points="625.0,1945.0 655.0,2025.0 845.0,2025.0 875.0,1945.0" 
style="fill:none;stroke:black;stroke-width:2" /><text
x="910.0" y="2025.0"
text-anchor="left"
style="font-family:Arial;font-size:30"> 
D </text>
<text
x="750.0" y="2085.0"
text-anchor="middle"
style="font-family:Arial;font-size:40"> 
E-WHISK </text>
<text
x="1510.0" y="1315.0"
text-anchor="left"
style="font-family:Arial;font-size:40"> 
14 </text>
<text
x="1570.0" y="1315.0"
text-anchor="left"
style="font-family:Arial;font-size:30"> 
Do not overwhisk as the </text>
<text
x="1570.0" y="1345.0"
text-anchor="left"
style="font-family:Arial;font-size:30"> 
whippped cream needn't be </text>
<text
x="1570.0" y="1375.0"
text-anchor="left"
style="font-family:Arial;font-size:30"> 
too thick. </text>
<text
x="1010.0" y="1765.0"
text-anchor="left"
style="font-family:Arial;font-size:40"> 
15 </text>
<text
x="1070.0" y="1765.0"
text-anchor="left"
style="font-family:Arial;font-size:30"> 
&#8729; 175 g dark chocolate </text>
<text
x="1070.0" y="1795.0"
text-anchor="left"
style="font-family:Arial;font-size:30"> 
&#8729; 50 ml water </text>
<text
x="1070.0" y="1825.0"
text-anchor="left"
style="font-family:Arial;font-size:30"> 
&#8729; 1 tsp instant coffed </text>
<text
x="1090.0" y="1855.0"
text-anchor="left"
style="font-family:Arial;font-size:30"> 
powder </text>
<polyline points="1050.0,1945.0 1070.0,2025.0 1270.0,2025.0 1290.0,1945.0" 
style="fill:none;stroke:black;stroke-width:2" /><polyline points="1286.0,1961.0 1450.0,1961.0" 
style="fill:none;stroke:black;stroke-width:2" /><text
x="1300.0" y="2025.0"
text-anchor="left"
style="font-family:Arial;font-size:30"> 
C </text>
<text
x="1250.0" y="2085.0"
text-anchor="middle"
style="font-family:Arial;font-size:40"> 
MELT &amp; MIX </text>
<text
x="1510.0" y="1445.0"
text-anchor="left"
style="font-family:Arial;font-size:40"> 
15 </text>
<text
x="1570.0" y="1445.0"
text-anchor="left"
style="font-family:Arial;font-size:30"> 
Be careful not to burn the </text>
<text
x="1570.0" y="1475.0"
text-anchor="left"
style="font-family:Arial;font-size:30"> 
bottom. </text>
<text
x="10.0" y="2165.0"
text-anchor="left"
style="font-family:Arial;font-size:40"> 
16 </text>
<text
x="70.0" y="2165.0"
text-anchor="left"
style="font-family:Arial;font-size:30"> 
&#8729; 100 ml water </text>
<polyline points="50.0,2345.0 70.0,2425.0 270.0,2425.0 290.0,2345.0" 
style="fill:none;stroke:black;stroke-width:2" /><polyline points="286.00000000000006,2361.0 450.0,2361.0" 
style="fill:none;stroke:black;stroke-width:2" /><text
x="300.0" y="2425.0"
text-anchor="left"
style="font-family:Arial;font-size:30"> 
C </text>
<text
x="250.0" y="2485.0"
text-anchor="middle"
style="font-family:Arial;font-size:40"> 
SIMMER </text>
<text
x="1510.0" y="1545.0"
text-anchor="left"
style="font-family:Arial;font-size:40"> 
16 </text>
<text
x="1570.0" y="1545.0"
text-anchor="left"
style="font-family:Arial;font-size:30"> 
Stir constantly whilst </text>
<text
x="1570.0" y="1575.0"
text-anchor="left"
style="font-family:Arial;font-size:30"> 
simmering for around 5 mins, </text>
<text
x="1570.0" y="1605.0"
text-anchor="left"
style="font-family:Arial;font-size:30"> 
then leave to cool. </text>
<text
x="510.0" y="2165.0"
text-anchor="left"
style="font-family:Arial;font-size:40"> 
17 </text>
<text
x="570.0" y="2165.0"
text-anchor="left"
style="font-family:Arial;font-size:30"> 
&#8729; mixing bowl C contents </text>
<text
x="570.0" y="2195.0"
text-anchor="left"
style="font-family:Arial;font-size:30"> 
&#8729; mixing bowl D contents </text>
<polyline points="600.0,2369.0 600.0,2401.0 900.0,2401.0 900.0,2369.0" 
style="fill:none;stroke:black;stroke-width:2" /><text
x="750.0" y="2485.0"
text-anchor="middle"
style="font-family:Arial;font-size:40"> 
FILL </text>
<text
x="1510.0" y="1675.0"
text-anchor="left"
style="font-family:Arial;font-size:40"> 
17 </text>
<text
x="1570.0" y="1675.0"
text-anchor="left"
style="font-family:Arial;font-size:30"> 
Either pipe the fillings </text>
<text
x="1570.0" y="1705.0"
text-anchor="left"
style="font-family:Arial;font-size:30"> 
into the profiteroles or </text>
<text
x="1570.0" y="1735.0"
text-anchor="left"
style="font-family:Arial;font-size:30"> 
partially cut them open with </text>
<text
x="1570.0" y="1765.0"
text-anchor="left"
style="font-family:Arial;font-size:30"> 
a knife </text>
<text
x="1010.0" y="2165.0"
text-anchor="left"
style="font-family:Arial;font-size:40"> 
18 </text>
<text
x="1070.0" y="2165.0"
text-anchor="left"
style="font-family:Arial;font-size:30"> 
&#8729; mixing bowl E contents </text>
<text
x="1090.0" y="2195.0"
text-anchor="left"
style="font-family:Arial;font-size:30"> 
(cooled) </text>
<text
x="1070.0" y="2225.0"
text-anchor="left"
style="font-family:Arial;font-size:30"> 
&#8729; filled profiteroles </text>
<polyline points="1100.0,2369.0 1150.0,2401.0 1350.0,2401.0 1400.0,2369.0" 
style="fill:none;stroke:black;stroke-width:2" /><text
x="1250.0" y="2485.0"
text-anchor="middle"
style="font-family:Arial;font-size:40"> 
DECORATE </text>
</svg>