<?xml version="1.0" encoding="UTF-8"?>
<svg xmlns="http://www.w3.org/2000/svg" width="2000" height="2125.0">
<text x="40.0" y="88.0" font-size="80">
Chicken Tikka Masala<tspan font-size="40">&#160;&#160;by Joshua Weissman</tspan></text>
<polyline points="0,0 0,2125.0 " 
style="fill:none;stroke:black;stroke-width:2" /><polyline points="2000,0 2000,2125.0 " 
style="fill:none;stroke:black;stroke-width:2" /><polyline points="500,125.0 500,2125.0 " 
style="fill:none;stroke:black;stroke-width:2" /><polyline points="1000,125.0 1000,2125.0 " 
style="fill:none;stroke:black;stroke-width:2" /><polyline points="1500,125.0 1500,2125.0 " 
style="fill:none;stroke:black;stroke-width:2" /><polyline points="0,0 2000,0 " 
style="fill:none;stroke:black;stroke-width:2" /><polyline points="0,125.0 2000,125.0 " 
style="fill:none;stroke:black;stroke-width:2" /><polyline points="0,2125.0 2000,2125.0 " 
style="fill:none;stroke:black;stroke-width:2" /><polyline points="0,525.0 1500,525.0 " 
style="fill:none;stroke:black;stroke-width:2" /><polyline points="0,925.0 1500,925.0 " 
style="fill:none;stroke:black;stroke-width:2" /><polyline points="0,1325.0 1500,1325.0 " 
style="fill:none;stroke:black;stroke-width:2" /><polyline points="0,1725.0 1500,1725.0 " 
style="fill:none;stroke:black;stroke-width:2" /><text
x="10.0" y="165.0"
text-anchor="left"
style="font-family:Arial;font-size:40"> 
1 </text>
<text
x="70.0" y="165.0"
text-anchor="left"
style="font-family:Arial;font-size:30"> 
&#8729; 1 tbsp coriander seeds </text>
<text
x="70.0" y="195.0"
text-anchor="left"
style="font-family:Arial;font-size:30"> 
&#8729; 1/2 tbsp cumin seeds </text>
<polyline points="60.0,369.0 80.0,401.0 270.0,401.0 290.0,369.0" 
style="fill:none;stroke:black;stroke-width:2" /><polyline points="282.5,385.0 425.0,385.0" 
style="fill:none;stroke:black;stroke-width:2" /><text
x="300.0" y="425.0"
text-anchor="left"
style="font-family:Arial;font-size:30"> 
A </text>
<text
x="250.0" y="485.0"
text-anchor="middle"
style="font-family:Arial;font-size:40"> 
HEAT </text>
<text
x="1510.0" y="165.0"
text-anchor="left"
style="font-family:Arial;font-size:40"> 
1 </text>
<text
x="1550.0" y="165.0"
text-anchor="left"
style="font-family:Arial;font-size:30"> 
Heat the seeds up on a gentle </text>
<text
x="1550.0" y="195.0"
text-anchor="left"
style="font-family:Arial;font-size:30"> 
heat without smoking them. </text>
<text
x="510.0" y="165.0"
text-anchor="left"
style="font-family:Arial;font-size:40"> 
2 </text>
<text
x="570.0" y="165.0"
text-anchor="left"
style="font-family:Arial;font-size:30"> 
&#8729; toasted seeds </text>
<polyline points="625.0,345.0 655.0,425.0 845.0,425.0 875.0,345.0" 
style="fill:none;stroke:black;stroke-width:2" /><text
x="910.0" y="425.0"
text-anchor="left"
style="font-family:Arial;font-size:30"> 
A </text>
<text
x="750.0" y="485.0"
text-anchor="middle"
style="font-family:Arial;font-size:40"> 
GRIND </text>
<text
x="1510.0" y="265.0"
text-anchor="left"
style="font-family:Arial;font-size:40"> 
2 </text>
<text
x="1550.0" y="265.0"
text-anchor="left"
style="font-family:Arial;font-size:30"> 
The seeds should be ground to </text>
<text
x="1550.0" y="295.0"
text-anchor="left"
style="font-family:Arial;font-size:30"> 
a fine powder in a mortar and </text>
<text
x="1550.0" y="325.0"
text-anchor="left"
style="font-family:Arial;font-size:30"> 
pestle or blender. </text>
<text
x="1010.0" y="165.0"
text-anchor="left"
style="font-family:Arial;font-size:40"> 
3 </text>
<text
x="1070.0" y="165.0"
text-anchor="left"
style="font-family:Arial;font-size:30"> 
&#8729; 7 cloves garlic </text>
<text
x="1070.0" y="195.0"
text-anchor="left"
style="font-family:Arial;font-size:30"> 
&#8729; 1 two-inch chunk ginger </text>
<text
x="1070.0" y="225.0"
text-anchor="left"
style="font-family:Arial;font-size:30"> 
&#8729; 1 tbsp garam masala </text>
<text
x="1070.0" y="255.0"
text-anchor="left"
style="font-family:Arial;font-size:30"> 
&#8729; 1 tsp turmeric </text>
<text
x="1070.0" y="285.0"
text-anchor="left"
style="font-family:Arial;font-size:30"> 
&#8729; 2 bird eye chillies </text>
<polyline points="1125.0,345.0 1155.0,425.0 1345.0,425.0 1375.0,345.0" 
style="fill:none;stroke:black;stroke-width:2" /><text
x="1410.0" y="425.0"
text-anchor="left"
style="font-family:Arial;font-size:30"> 
A </text>
<text
x="1250.0" y="485.0"
text-anchor="middle"
style="font-family:Arial;font-size:40"> 
GRIND </text>
<text
x="10.0" y="565.0"
text-anchor="left"
style="font-family:Arial;font-size:40"> 
4 </text>
<text
x="70.0" y="565.0"
text-anchor="left"
style="font-family:Arial;font-size:30"> 
&#8729; 60 ml water </text>
<polyline points="125.0,745.0 155.0,825.0 345.0,825.0 375.0,745.0" 
style="fill:none;stroke:black;stroke-width:2" /><text
x="410.0" y="825.0"
text-anchor="left"
style="font-family:Arial;font-size:30"> 
A </text>
<text
x="250.0" y="885.0"
text-anchor="middle"
style="font-family:Arial;font-size:40"> 
BLEND </text>
<text
x="510.0" y="565.0"
text-anchor="left"
style="font-family:Arial;font-size:40"> 
5 </text>
<text
x="570.0" y="565.0"
text-anchor="left"
style="font-family:Arial;font-size:30"> 
&#8729; 30 ml vegetable oil </text>
<polyline points="625.0,745.0 655.0,825.0 845.0,825.0 875.0,745.0" 
style="fill:none;stroke:black;stroke-width:2" /><text
x="910.0" y="825.0"
text-anchor="left"
style="font-family:Arial;font-size:30"> 
A </text>
<text
x="750.0" y="885.0"
text-anchor="middle"
style="font-family:Arial;font-size:40"> 
BLEND </text>
<text
x="1510.0" y="395.0"
text-anchor="left"
style="font-family:Arial;font-size:40"> 
5 </text>
<text
x="1550.0" y="395.0"
text-anchor="left"
style="font-family:Arial;font-size:30"> 
Add the oil gradually whilst </text>
<text
x="1550.0" y="425.0"
text-anchor="left"
style="font-family:Arial;font-size:30"> 
blinding. </text>
<text
x="1010.0" y="565.0"
text-anchor="left"
style="font-family:Arial;font-size:40"> 
6 </text>
<text
x="1070.0" y="565.0"
text-anchor="left"
style="font-family:Arial;font-size:30"> 
&#8729; 1 kg chicken breast </text>
<text
x="1090.0" y="595.0"
text-anchor="left"
style="font-family:Arial;font-size:30"> 
(diced) </text>
<text
x="1070.0" y="625.0"
text-anchor="left"
style="font-family:Arial;font-size:30"> 
&#8729; 225 g yoghurt </text>
<text
x="1070.0" y="655.0"
text-anchor="left"
style="font-family:Arial;font-size:30"> 
&#8729; 2 tsp salt </text>
<text
x="1070.0" y="685.0"
text-anchor="left"
style="font-family:Arial;font-size:30"> 
&#8729; 2 tbsp mixing bowl A </text>
<polyline points="1125.0,745.0 1155.0,825.0 1345.0,825.0 1375.0,745.0" 
style="fill:none;stroke:black;stroke-width:2" /><text
x="1410.0" y="825.0"
text-anchor="left"
style="font-family:Arial;font-size:30"> 
B </text>
<text
x="1250.0" y="885.0"
text-anchor="middle"
style="font-family:Arial;font-size:38"> 
MIX &amp; MARINADE </text>
<text
x="10.0" y="965.0"
text-anchor="left"
style="font-family:Arial;font-size:40"> 
7 </text>
<text
x="70.0" y="965.0"
text-anchor="left"
style="font-family:Arial;font-size:30"> 
&#8729; 800 g tinned tomatoes </text>
<polyline points="125.0,1145.0 155.0,1225.0 345.0,1225.0 375.0,1145.0" 
style="fill:none;stroke:black;stroke-width:2" /><text
x="410.0" y="1225.0"
text-anchor="left"
style="font-family:Arial;font-size:30"> 
C </text>
<text
x="250.0" y="1285.0"
text-anchor="middle"
style="font-family:Arial;font-size:40"> 
BLEND </text>
<text
x="510.0" y="965.0"
text-anchor="left"
style="font-family:Arial;font-size:40"> 
8 </text>
<text
x="570.0" y="965.0"
text-anchor="left"
style="font-family:Arial;font-size:30"> 
&#8729; marinaded chicken </text>
<text
x="570.0" y="995.0"
text-anchor="left"
style="font-family:Arial;font-size:30"> 
&#8729; 2 tbsp vegetable oil </text>
<polyline points="550.0,1145.0 570.0,1225.0 770.0,1225.0 790.0,1145.0" 
style="fill:none;stroke:black;stroke-width:2" /><polyline points="786.0,1161.0 950.0,1161.0" 
style="fill:none;stroke:black;stroke-width:2" /><text
x="750.0" y="1285.0"
text-anchor="middle"
style="font-family:Arial;font-size:40"> 
FRY </text>
<text
x="1510.0" y="495.0"
text-anchor="left"
style="font-family:Arial;font-size:40"> 
8 </text>
<text
x="1550.0" y="495.0"
text-anchor="left"
style="font-family:Arial;font-size:30"> 
Brown both sides of the </text>
<text
x="1550.0" y="525.0"
text-anchor="left"
style="font-family:Arial;font-size:30"> 
chicken. </text>
<text
x="1010.0" y="965.0"
text-anchor="left"
style="font-family:Arial;font-size:40"> 
9 </text>
<text
x="1070.0" y="965.0"
text-anchor="left"
style="font-family:Arial;font-size:30"> 
&#8729; REMOVE seared chicken </text>
<text
x="1070.0" y="995.0"
text-anchor="left"
style="font-family:Arial;font-size:30"> 
&#8729; 50 g unsalted butter </text>
<text
x="1070.0" y="1025.0"
text-anchor="left"
style="font-family:Arial;font-size:30"> 
&#8729; 1 white onion (diced) </text>
<polyline points="1050.0,1145.0 1070.0,1225.0 1270.0,1225.0 1290.0,1145.0" 
style="fill:none;stroke:black;stroke-width:2" /><polyline points="1286.0,1161.0 1450.0,1161.0" 
style="fill:none;stroke:black;stroke-width:2" /><text
x="1250.0" y="1285.0"
text-anchor="middle"
style="font-family:Arial;font-size:40"> 
FRY </text>
<text
x="1510.0" y="595.0"
text-anchor="left"
style="font-family:Arial;font-size:40"> 
9 </text>
<text
x="1550.0" y="595.0"
text-anchor="left"
style="font-family:Arial;font-size:30"> 
Set aside the chicken. Scrape </text>
<text
x="1550.0" y="625.0"
text-anchor="left"
style="font-family:Arial;font-size:30"> 
the bottom to deglaze the pan. </text>
<text
x="10.0" y="1365.0"
text-anchor="left"
style="font-family:Arial;font-size:40"> 
10 </text>
<text
x="70.0" y="1365.0"
text-anchor="left"
style="font-family:Arial;font-size:30"> 
&#8729; 1 tbsp paprika </text>
<text
x="70.0" y="1395.0"
text-anchor="left"
style="font-family:Arial;font-size:30"> 
&#8729; 1 tsp chilli powder </text>
<text
x="70.0" y="1425.0"
text-anchor="left"
style="font-family:Arial;font-size:30"> 
&#8729; mixing bowl A contents </text>
<polyline points="50.0,1545.0 70.0,1625.0 270.0,1625.0 290.0,1545.0" 
style="fill:none;stroke:black;stroke-width:2" /><polyline points="286.00000000000006,1561.0 450.0,1561.0" 
style="fill:none;stroke:black;stroke-width:2" /><text
x="250.0" y="1685.0"
text-anchor="middle"
style="font-family:Arial;font-size:40"> 
HEAT &amp; MIX </text>
<text
x="510.0" y="1365.0"
text-anchor="left"
style="font-family:Arial;font-size:40"> 
11 </text>
<text
x="570.0" y="1365.0"
text-anchor="left"
style="font-family:Arial;font-size:30"> 
&#8729; mixing bowl C contents </text>
<polyline points="550.0,1545.0 570.0,1625.0 770.0,1625.0 790.0,1545.0" 
style="fill:none;stroke:black;stroke-width:2" /><polyline points="786.0,1561.0 950.0,1561.0" 
style="fill:none;stroke:black;stroke-width:2" /><text
x="750.0" y="1685.0"
text-anchor="middle"
style="font-family:Arial;font-size:38"> 
SIFT &amp; SIMMER </text>
<text
x="1510.0" y="695.0"
text-anchor="left"
style="font-family:Arial;font-size:40"> 
11 </text>
<text
x="1570.0" y="695.0"
text-anchor="left"
style="font-family:Arial;font-size:30"> 
Allow the onions to </text>
<text
x="1570.0" y="725.0"
text-anchor="left"
style="font-family:Arial;font-size:30"> 
disintegrate. </text>
<text
x="1010.0" y="1365.0"
text-anchor="left"
style="font-family:Arial;font-size:40"> 
12 </text>
<text
x="1070.0" y="1365.0"
text-anchor="left"
style="font-family:Arial;font-size:30"> 
&#8729; 300 ml double cream </text>
<polyline points="1050.0,1545.0 1070.0,1625.0 1270.0,1625.0 1290.0,1545.0" 
style="fill:none;stroke:black;stroke-width:2" /><polyline points="1286.0,1561.0 1450.0,1561.0" 
style="fill:none;stroke:black;stroke-width:2" /><text
x="1250.0" y="1685.0"
text-anchor="middle"
style="font-family:Arial;font-size:40"> 
SIMMER </text>
<text
x="10.0" y="1765.0"
text-anchor="left"
style="font-family:Arial;font-size:40"> 
13 </text>
<text
x="70.0" y="1765.0"
text-anchor="left"
style="font-family:Arial;font-size:30"> 
&#8729; seared chicken </text>
<polyline points="50.0,1945.0 70.0,2025.0 270.0,2025.0 290.0,1945.0" 
style="fill:none;stroke:black;stroke-width:2" /><polyline points="286.00000000000006,1961.0 450.0,1961.0" 
style="fill:none;stroke:black;stroke-width:2" /><text
x="250.0" y="2085.0"
text-anchor="middle"
style="font-family:Arial;font-size:40"> 
SIMMER </text>
<text
x="1510.0" y="795.0"
text-anchor="left"
style="font-family:Arial;font-size:40"> 
13 </text>
<text
x="1570.0" y="795.0"
text-anchor="left"
style="font-family:Arial;font-size:30"> 
Continue simmering to fully </text>
<text
x="1570.0" y="825.0"
text-anchor="left"
style="font-family:Arial;font-size:30"> 
cook the chicken and thicken </text>
<text
x="1570.0" y="855.0"
text-anchor="left"
style="font-family:Arial;font-size:30"> 
the sauce. Garnish with </text>
<text
x="1570.0" y="885.0"
text-anchor="left"
style="font-family:Arial;font-size:30"> 
fresh coriander leaves. </text>
</svg>