<?xml version="1.0" encoding="UTF-8"?>
<svg xmlns="http://www.w3.org/2000/svg" width="2000" height="1325.0">
<text x="40.0" y="88.0" font-size="80">
Chicken Gaston Gerard<tspan font-size="40">&#160;&#160;by French Cooking Academy</tspan></text>
<polyline points="0,0 0,1325.0 " 
style="fill:none;stroke:black;stroke-width:2" /><polyline points="2000,0 2000,1325.0 " 
style="fill:none;stroke:black;stroke-width:2" /><polyline points="500,125.0 500,1325.0 " 
style="fill:none;stroke:black;stroke-width:2" /><polyline points="1000,125.0 1000,1325.0 " 
style="fill:none;stroke:black;stroke-width:2" /><polyline points="1500,125.0 1500,1325.0 " 
style="fill:none;stroke:black;stroke-width:2" /><polyline points="0,0 2000,0 " 
style="fill:none;stroke:black;stroke-width:2" /><polyline points="0,125.0 2000,125.0 " 
style="fill:none;stroke:black;stroke-width:2" /><polyline points="0,1325.0 2000,1325.0 " 
style="fill:none;stroke:black;stroke-width:2" /><polyline points="0,525.0 1500,525.0 " 
style="fill:none;stroke:black;stroke-width:2" /><polyline points="0,925.0 1500,925.0 " 
style="fill:none;stroke:black;stroke-width:2" /><text
x="10.0" y="165.0"
text-anchor="left"
style="font-family:Arial;font-size:40"> 
1 </text>
<text
x="70.0" y="165.0"
text-anchor="left"
style="font-family:Arial;font-size:30"> 
&#8729; chicken pieces </text>
<text
x="70.0" y="195.0"
text-anchor="left"
style="font-family:Arial;font-size:30"> 
&#8729; 1 tbsp oil </text>
<text
x="70.0" y="225.0"
text-anchor="left"
style="font-family:Arial;font-size:30"> 
&#8729; 2 tbsp butter </text>
<polyline points="125.0,345.0 135.0,425.0 365.0,425.0 375.0,345.0" 
style="fill:none;stroke:black;stroke-width:2" /><polyline points="130.0,345.0 110.0,345.0" 
style="fill:none;stroke:black;stroke-width:2" /><polyline points="370.0,345.0 390.0,345.0" 
style="fill:none;stroke:black;stroke-width:2" /><text
x="250.0" y="485.0"
text-anchor="middle"
style="font-family:Arial;font-size:40"> 
FRY </text>
<text
x="1510.0" y="165.0"
text-anchor="left"
style="font-family:Arial;font-size:40"> 
1 </text>
<text
x="1550.0" y="165.0"
text-anchor="left"
style="font-family:Arial;font-size:30"> 
Fry on a medium heat to </text>
<text
x="1550.0" y="195.0"
text-anchor="left"
style="font-family:Arial;font-size:30"> 
lightly colour both sides of </text>
<text
x="1550.0" y="225.0"
text-anchor="left"
style="font-family:Arial;font-size:30"> 
the chicken. </text>
<text
x="510.0" y="165.0"
text-anchor="left"
style="font-family:Arial;font-size:40"> 
2 </text>
<text
x="570.0" y="165.0"
text-anchor="left"
style="font-family:Arial;font-size:30"> 
&#8729; REMOVE chicken pieces </text>
<text
x="570.0" y="195.0"
text-anchor="left"
style="font-family:Arial;font-size:30"> 
&#8729; chicken carcass </text>
<polyline points="625.0,345.0 635.0,425.0 865.0,425.0 875.0,345.0" 
style="fill:none;stroke:black;stroke-width:2" /><polyline points="630.0,345.0 610.0,345.0" 
style="fill:none;stroke:black;stroke-width:2" /><polyline points="870.0,345.0 890.0,345.0" 
style="fill:none;stroke:black;stroke-width:2" /><text
x="750.0" y="485.0"
text-anchor="middle"
style="font-family:Arial;font-size:40"> 
FRY </text>
<text
x="1510.0" y="295.0"
text-anchor="left"
style="font-family:Arial;font-size:40"> 
2 </text>
<text
x="1550.0" y="295.0"
text-anchor="left"
style="font-family:Arial;font-size:30"> 
Lightly brown the chicken </text>
<text
x="1550.0" y="325.0"
text-anchor="left"
style="font-family:Arial;font-size:30"> 
carcass pieces. </text>
<text
x="1010.0" y="165.0"
text-anchor="left"
style="font-family:Arial;font-size:40"> 
3 </text>
<text
x="1070.0" y="165.0"
text-anchor="left"
style="font-family:Arial;font-size:30"> 
&#8729; seared chicken pieces </text>
<text
x="1070.0" y="195.0"
text-anchor="left"
style="font-family:Arial;font-size:30"> 
&#8729; 2 tbsp paprika </text>
<polyline points="1125.0,345.0 1135.0,425.0 1365.0,425.0 1375.0,345.0" 
style="fill:none;stroke:black;stroke-width:2" /><polyline points="1130.0,345.0 1110.0,345.0" 
style="fill:none;stroke:black;stroke-width:2" /><polyline points="1370.0,345.0 1390.0,345.0" 
style="fill:none;stroke:black;stroke-width:2" /><text
x="1250.0" y="485.0"
text-anchor="middle"
style="font-family:Arial;font-size:38"> 
COVER &amp; HEAT </text>
<text
x="1510.0" y="395.0"
text-anchor="left"
style="font-family:Arial;font-size:40"> 
3 </text>
<text
x="1550.0" y="395.0"
text-anchor="left"
style="font-family:Arial;font-size:30"> 
Cover and leave over a low </text>
<text
x="1550.0" y="425.0"
text-anchor="left"
style="font-family:Arial;font-size:30"> 
temperature on the hob for 30 </text>
<text
x="1550.0" y="455.0"
text-anchor="left"
style="font-family:Arial;font-size:30"> 
mins. </text>
<text
x="10.0" y="565.0"
text-anchor="left"
style="font-family:Arial;font-size:40"> 
4 </text>
<text
x="70.0" y="565.0"
text-anchor="left"
style="font-family:Arial;font-size:30"> 
&#8729; REMOVE chicken pieces </text>
<text
x="70.0" y="595.0"
text-anchor="left"
style="font-family:Arial;font-size:30"> 
&#8729; REMOVE chicken carcass </text>
<polyline points="125.0,745.0 135.0,825.0 365.0,825.0 375.0,745.0" 
style="fill:none;stroke:black;stroke-width:2" /><polyline points="130.0,745.0 110.0,745.0" 
style="fill:none;stroke:black;stroke-width:2" /><polyline points="370.0,745.0 390.0,745.0" 
style="fill:none;stroke:black;stroke-width:2" /><text
x="250.0" y="885.0"
text-anchor="middle"
style="font-family:Arial;font-size:40"> 
SIMMER </text>
<text
x="1510.0" y="525.0"
text-anchor="left"
style="font-family:Arial;font-size:40"> 
4 </text>
<text
x="1550.0" y="525.0"
text-anchor="left"
style="font-family:Arial;font-size:30"> 
Set aside the chicken pieces </text>
<text
x="1550.0" y="555.0"
text-anchor="left"
style="font-family:Arial;font-size:30"> 
and discard the carcass. Bring </text>
<text
x="1550.0" y="585.0"
text-anchor="left"
style="font-family:Arial;font-size:30"> 
the pan's liquid to a simmer. </text>
<text
x="510.0" y="565.0"
text-anchor="left"
style="font-family:Arial;font-size:40"> 
5 </text>
<text
x="570.0" y="565.0"
text-anchor="left"
style="font-family:Arial;font-size:30"> 
&#8729; 100 g comte (grated) </text>
<text
x="570.0" y="595.0"
text-anchor="left"
style="font-family:Arial;font-size:30"> 
&#8729; 200 ml white wine </text>
<polyline points="625.0,745.0 635.0,825.0 865.0,825.0 875.0,745.0" 
style="fill:none;stroke:black;stroke-width:2" /><polyline points="630.0,745.0 610.0,745.0" 
style="fill:none;stroke:black;stroke-width:2" /><polyline points="870.0,745.0 890.0,745.0" 
style="fill:none;stroke:black;stroke-width:2" /><text
x="750.0" y="885.0"
text-anchor="middle"
style="font-family:Arial;font-size:40"> 
SIMMER </text>
<text
x="1010.0" y="565.0"
text-anchor="left"
style="font-family:Arial;font-size:40"> 
6 </text>
<text
x="1070.0" y="565.0"
text-anchor="left"
style="font-family:Arial;font-size:30"> 
&#8729; 250 ml double cream </text>
<polyline points="1125.0,745.0 1135.0,825.0 1365.0,825.0 1375.0,745.0" 
style="fill:none;stroke:black;stroke-width:2" /><polyline points="1130.0,745.0 1110.0,745.0" 
style="fill:none;stroke:black;stroke-width:2" /><polyline points="1370.0,745.0 1390.0,745.0" 
style="fill:none;stroke:black;stroke-width:2" /><text
x="1250.0" y="885.0"
text-anchor="middle"
style="font-family:Arial;font-size:40"> 
SIMMER </text>
<text
x="1510.0" y="655.0"
text-anchor="left"
style="font-family:Arial;font-size:40"> 
6 </text>
<text
x="1550.0" y="655.0"
text-anchor="left"
style="font-family:Arial;font-size:30"> 
Reduce to a thick consistency. </text>
<text
x="10.0" y="965.0"
text-anchor="left"
style="font-family:Arial;font-size:40"> 
7 </text>
<text
x="70.0" y="965.0"
text-anchor="left"
style="font-family:Arial;font-size:30"> 
&#8729; 2 tbsp Dijon mustard </text>
<text
x="70.0" y="995.0"
text-anchor="left"
style="font-family:Arial;font-size:30"> 
&#8729; 1 tsp salt </text>
<text
x="70.0" y="1025.0"
text-anchor="left"
style="font-family:Arial;font-size:30"> 
&#8729; 1 tsp black pepper </text>
<polyline points="125.0,1145.0 135.0,1225.0 365.0,1225.0 375.0,1145.0" 
style="fill:none;stroke:black;stroke-width:2" /><polyline points="130.0,1145.0 110.0,1145.0" 
style="fill:none;stroke:black;stroke-width:2" /><polyline points="370.0,1145.0 390.0,1145.0" 
style="fill:none;stroke:black;stroke-width:2" /><text
x="250.0" y="1285.0"
text-anchor="middle"
style="font-family:Arial;font-size:40"> 
HEAT &amp; MIX </text>
<text
x="1510.0" y="725.0"
text-anchor="left"
style="font-family:Arial;font-size:40"> 
7 </text>
<text
x="1550.0" y="725.0"
text-anchor="left"
style="font-family:Arial;font-size:30"> 
Turn down the heat and season </text>
<text
x="1550.0" y="755.0"
text-anchor="left"
style="font-family:Arial;font-size:30"> 
to taste. </text>
<text
x="510.0" y="965.0"
text-anchor="left"
style="font-family:Arial;font-size:40"> 
8 </text>
<text
x="570.0" y="965.0"
text-anchor="left"
style="font-family:Arial;font-size:30"> 
&#8729; cooked chicken pieces </text>
<text
x="570.0" y="995.0"
text-anchor="left"
style="font-family:Arial;font-size:30"> 
&#8729; 50 g comte (grated) </text>
<text
x="570.0" y="1025.0"
text-anchor="left"
style="font-family:Arial;font-size:30"> 
&#8729; 2 tbsp fine breadcrumbs </text>
<polyline points="625.0,1145.0 635.0,1225.0 865.0,1225.0 875.0,1145.0" 
style="fill:none;stroke:black;stroke-width:2" /><polyline points="630.0,1145.0 610.0,1145.0" 
style="fill:none;stroke:black;stroke-width:2" /><polyline points="870.0,1145.0 890.0,1145.0" 
style="fill:none;stroke:black;stroke-width:2" /><text
x="750.0" y="1285.0"
text-anchor="middle"
style="font-family:Arial;font-size:40"> 
BROIL </text>
<text
x="1510.0" y="825.0"
text-anchor="left"
style="font-family:Arial;font-size:40"> 
8 </text>
<text
x="1550.0" y="825.0"
text-anchor="left"
style="font-family:Arial;font-size:30"> 
Coat the chicken pieces in </text>
<text
x="1550.0" y="855.0"
text-anchor="left"
style="font-family:Arial;font-size:30"> 
sauce and sprinkle with comte </text>
<text
x="1550.0" y="885.0"
text-anchor="left"
style="font-family:Arial;font-size:30"> 
and breadcrumbs. Broil until </text>
<text
x="1550.0" y="915.0"
text-anchor="left"
style="font-family:Arial;font-size:30"> 
slightly brown and crisp. </text>
</svg>