<?xml version="1.0" encoding="UTF-8"?>
<svg xmlns="http://www.w3.org/2000/svg" width="2000" height="925.0">
<text x="40.0" y="88.0" font-size="80">
Chicken Alfredo<tspan font-size="40">&#160;&#160;by Delish</tspan></text>
<polyline points="0,0 0,925.0 " 
style="fill:none;stroke:black;stroke-width:2" /><polyline points="2000,0 2000,925.0 " 
style="fill:none;stroke:black;stroke-width:2" /><polyline points="500,125.0 500,925.0 " 
style="fill:none;stroke:black;stroke-width:2" /><polyline points="1000,125.0 1000,925.0 " 
style="fill:none;stroke:black;stroke-width:2" /><polyline points="1500,125.0 1500,925.0 " 
style="fill:none;stroke:black;stroke-width:2" /><polyline points="0,0 2000,0 " 
style="fill:none;stroke:black;stroke-width:2" /><polyline points="0,125.0 2000,125.0 " 
style="fill:none;stroke:black;stroke-width:2" /><polyline points="0,925.0 2000,925.0 " 
style="fill:none;stroke:black;stroke-width:2" /><polyline points="0,525.0 1500,525.0 " 
style="fill:none;stroke:black;stroke-width:2" /><text
x="10.0" y="165.0"
text-anchor="left"
style="font-family:Arial;font-size:40"> 
1 </text>
<text
x="70.0" y="165.0"
text-anchor="left"
style="font-family:Arial;font-size:30"> 
&#8729; 2 tbsp olive oil </text>
<text
x="70.0" y="195.0"
text-anchor="left"
style="font-family:Arial;font-size:30"> 
&#8729; 1 tsp salt </text>
<text
x="70.0" y="225.0"
text-anchor="left"
style="font-family:Arial;font-size:30"> 
&#8729; 1 tsp black pepper </text>
<text
x="70.0" y="255.0"
text-anchor="left"
style="font-family:Arial;font-size:30"> 
&#8729; 2 chicken breasts </text>
<text
x="90.0" y="285.0"
text-anchor="left"
style="font-family:Arial;font-size:30"> 
(butterflied) </text>
<polyline points="60.0,369.0 80.0,401.0 270.0,401.0 290.0,369.0" 
style="fill:none;stroke:black;stroke-width:2" /><polyline points="282.5,385.0 425.0,385.0" 
style="fill:none;stroke:black;stroke-width:2" /><text
x="250.0" y="485.0"
text-anchor="middle"
style="font-family:Arial;font-size:40"> 
FRY </text>
<text
x="510.0" y="165.0"
text-anchor="left"
style="font-family:Arial;font-size:40"> 
2 </text>
<text
x="570.0" y="165.0"
text-anchor="left"
style="font-family:Arial;font-size:30"> 
&#8729; REMOVE chicken </text>
<text
x="570.0" y="195.0"
text-anchor="left"
style="font-family:Arial;font-size:30"> 
&#8729; 2 cloves garlic(crushed) </text>
<text
x="570.0" y="225.0"
text-anchor="left"
style="font-family:Arial;font-size:30"> 
&#8729; 350 ml milk </text>
<text
x="570.0" y="255.0"
text-anchor="left"
style="font-family:Arial;font-size:30"> 
&#8729; 350 ml chicken stock </text>
<polyline points="560.0,369.0 580.0,401.0 770.0,401.0 790.0,369.0" 
style="fill:none;stroke:black;stroke-width:2" /><polyline points="782.5,385.0 925.0,385.0" 
style="fill:none;stroke:black;stroke-width:2" /><text
x="750.0" y="485.0"
text-anchor="middle"
style="font-family:Arial;font-size:40"> 
SIMMER </text>
<text
x="1010.0" y="165.0"
text-anchor="left"
style="font-family:Arial;font-size:40"> 
3 </text>
<text
x="1070.0" y="165.0"
text-anchor="left"
style="font-family:Arial;font-size:30"> 
&#8729; 1/2 tsp salt </text>
<text
x="1070.0" y="195.0"
text-anchor="left"
style="font-family:Arial;font-size:30"> 
&#8729; 1/2 tsp black pepper </text>
<text
x="1070.0" y="225.0"
text-anchor="left"
style="font-family:Arial;font-size:30"> 
&#8729; 226 g fettucine </text>
<polyline points="1060.0,369.0 1080.0,401.0 1270.0,401.0 1290.0,369.0" 
style="fill:none;stroke:black;stroke-width:2" /><polyline points="1282.5,385.0 1425.0,385.0" 
style="fill:none;stroke:black;stroke-width:2" /><text
x="1250.0" y="485.0"
text-anchor="middle"
style="font-family:Arial;font-size:40"> 
SIMMER </text>
<text
x="1510.0" y="165.0"
text-anchor="left"
style="font-family:Arial;font-size:40"> 
3 </text>
<text
x="1550.0" y="165.0"
text-anchor="left"
style="font-family:Arial;font-size:30"> 
Cook pasta until al dente. </text>
<text
x="10.0" y="565.0"
text-anchor="left"
style="font-family:Arial;font-size:40"> 
4 </text>
<text
x="70.0" y="565.0"
text-anchor="left"
style="font-family:Arial;font-size:30"> 
&#8729; 120 ml double cream </text>
<text
x="70.0" y="595.0"
text-anchor="left"
style="font-family:Arial;font-size:30"> 
&#8729; ? g parmesan </text>
<polyline points="60.0,769.0 80.0,801.0 270.0,801.0 290.0,769.0" 
style="fill:none;stroke:black;stroke-width:2" /><polyline points="282.5,785.0 425.0,785.0" 
style="fill:none;stroke:black;stroke-width:2" /><text
x="250.0" y="885.0"
text-anchor="middle"
style="font-family:Arial;font-size:40"> 
SIMMER </text>
<text
x="1510.0" y="235.0"
text-anchor="left"
style="font-family:Arial;font-size:40"> 
4 </text>
<text
x="1550.0" y="235.0"
text-anchor="left"
style="font-family:Arial;font-size:30"> 
Simmer until thickened. </text>
<text
x="510.0" y="565.0"
text-anchor="left"
style="font-family:Arial;font-size:40"> 
5 </text>
<text
x="570.0" y="565.0"
text-anchor="left"
style="font-family:Arial;font-size:30"> 
&#8729; cooked chicken (sliced) </text>
<text
x="570.0" y="595.0"
text-anchor="left"
style="font-family:Arial;font-size:30"> 
&#8729; fresh parsley </text>
<polyline points="560.0,769.0 580.0,801.0 770.0,801.0 790.0,769.0" 
style="fill:none;stroke:black;stroke-width:2" /><polyline points="782.5,785.0 925.0,785.0" 
style="fill:none;stroke:black;stroke-width:2" /><text
x="750.0" y="885.0"
text-anchor="middle"
style="font-family:Arial;font-size:38"> 
MIX &amp; GARNISH </text>
</svg>