<?xml version="1.0" encoding="UTF-8"?>
<svg xmlns="http://www.w3.org/2000/svg" width="2000" height="925.0">
<text x="40.0" y="88.0" font-size="80">
Bananas Foster<tspan font-size="40">&#160;&#160;by Bruno Albouze</tspan></text>
<polyline points="0,0 0,925.0 " 
style="fill:none;stroke:black;stroke-width:2" /><polyline points="2000,0 2000,925.0 " 
style="fill:none;stroke:black;stroke-width:2" /><polyline points="500,125.0 500,925.0 " 
style="fill:none;stroke:black;stroke-width:2" /><polyline points="1000,125.0 1000,925.0 " 
style="fill:none;stroke:black;stroke-width:2" /><polyline points="1500,125.0 1500,925.0 " 
style="fill:none;stroke:black;stroke-width:2" /><polyline points="0,0 2000,0 " 
style="fill:none;stroke:black;stroke-width:2" /><polyline points="0,125.0 2000,125.0 " 
style="fill:none;stroke:black;stroke-width:2" /><polyline points="0,925.0 2000,925.0 " 
style="fill:none;stroke:black;stroke-width:2" /><polyline points="0,525.0 1500,525.0 " 
style="fill:none;stroke:black;stroke-width:2" /><text
x="10.0" y="165.0"
text-anchor="left"
style="font-family:Arial;font-size:40"> 
1 </text>
<text
x="70.0" y="165.0"
text-anchor="left"
style="font-family:Arial;font-size:30"> 
&#8729; 35 g caster sugar </text>
<polyline points="60.0,369.0 80.0,401.0 270.0,401.0 290.0,369.0" 
style="fill:none;stroke:black;stroke-width:2" /><polyline points="282.5,385.0 425.0,385.0" 
style="fill:none;stroke:black;stroke-width:2" /><text
x="250.0" y="485.0"
text-anchor="middle"
style="font-family:Arial;font-size:40"> 
HEAT </text>
<text
x="1510.0" y="165.0"
text-anchor="left"
style="font-family:Arial;font-size:40"> 
1 </text>
<text
x="1550.0" y="165.0"
text-anchor="left"
style="font-family:Arial;font-size:30"> 
Bring to a light caramel. </text>
<text
x="510.0" y="165.0"
text-anchor="left"
style="font-family:Arial;font-size:40"> 
2 </text>
<text
x="570.0" y="165.0"
text-anchor="left"
style="font-family:Arial;font-size:30"> 
&#8729; 25 g unsalted butter </text>
<text
x="570.0" y="195.0"
text-anchor="left"
style="font-family:Arial;font-size:30"> 
&#8729; 1 tsp vanilla paste </text>
<polyline points="560.0,369.0 580.0,401.0 770.0,401.0 790.0,369.0" 
style="fill:none;stroke:black;stroke-width:2" /><polyline points="782.5,385.0 925.0,385.0" 
style="fill:none;stroke:black;stroke-width:2" /><text
x="750.0" y="485.0"
text-anchor="middle"
style="font-family:Arial;font-size:40"> 
MELT &amp; MIX </text>
<text
x="1010.0" y="165.0"
text-anchor="left"
style="font-family:Arial;font-size:40"> 
3 </text>
<text
x="1070.0" y="165.0"
text-anchor="left"
style="font-family:Arial;font-size:30"> 
&#8729; 2 bananas (whole and </text>
<text
x="1090.0" y="195.0"
text-anchor="left"
style="font-family:Arial;font-size:30"> 
peeled) </text>
<polyline points="1060.0,369.0 1080.0,401.0 1270.0,401.0 1290.0,369.0" 
style="fill:none;stroke:black;stroke-width:2" /><polyline points="1282.5,385.0 1425.0,385.0" 
style="fill:none;stroke:black;stroke-width:2" /><text
x="1250.0" y="485.0"
text-anchor="middle"
style="font-family:Arial;font-size:40"> 
COAT </text>
<text
x="1510.0" y="235.0"
text-anchor="left"
style="font-family:Arial;font-size:40"> 
3 </text>
<text
x="1550.0" y="235.0"
text-anchor="left"
style="font-family:Arial;font-size:30"> 
Use tongs to gently handle the </text>
<text
x="1550.0" y="265.0"
text-anchor="left"
style="font-family:Arial;font-size:30"> 
bananas and give them an even </text>
<text
x="1550.0" y="295.0"
text-anchor="left"
style="font-family:Arial;font-size:30"> 
coating of caramel. </text>
<text
x="10.0" y="565.0"
text-anchor="left"
style="font-family:Arial;font-size:40"> 
4 </text>
<text
x="70.0" y="565.0"
text-anchor="left"
style="font-family:Arial;font-size:30"> 
&#8729; 100 g spiced rum </text>
<polyline points="60.0,769.0 80.0,801.0 270.0,801.0 290.0,769.0" 
style="fill:none;stroke:black;stroke-width:2" /><polyline points="282.5,785.0 425.0,785.0" 
style="fill:none;stroke:black;stroke-width:2" /><text
x="250.0" y="885.0"
text-anchor="middle"
style="font-family:Arial;font-size:38"> 
DEGLAZE &amp; FLAMBE </text>
<text
x="510.0" y="565.0"
text-anchor="left"
style="font-family:Arial;font-size:40"> 
5 </text>
<text
x="570.0" y="565.0"
text-anchor="left"
style="font-family:Arial;font-size:30"> 
&#8729; frying pan contents </text>
<text
x="570.0" y="595.0"
text-anchor="left"
style="font-family:Arial;font-size:30"> 
&#8729; 1 scoop vanilla ice cream </text>
<polyline points="600.0,769.0 650.0,801.0 850.0,801.0 900.0,769.0" 
style="fill:none;stroke:black;stroke-width:2" /><text
x="750.0" y="885.0"
text-anchor="middle"
style="font-family:Arial;font-size:40"> 
SERVE </text>
</svg>