<?xml version="1.0" encoding="UTF-8"?>
<svg xmlns="http://www.w3.org/2000/svg" width="2000" height="1725.0">
<text x="40.0" y="88.0" font-size="80">
Chocolate Cake<tspan font-size="40">&#160;&#160;by foodCAST</tspan></text>
<polyline points="0,0 0,1725.0 " 
style="fill:none;stroke:black;stroke-width:2" /><polyline points="2000,0 2000,1725.0 " 
style="fill:none;stroke:black;stroke-width:2" /><polyline points="500,125.0 500,1725.0 " 
style="fill:none;stroke:black;stroke-width:2" /><polyline points="1000,125.0 1000,1725.0 " 
style="fill:none;stroke:black;stroke-width:2" /><polyline points="1500,125.0 1500,1725.0 " 
style="fill:none;stroke:black;stroke-width:2" /><polyline points="0,0 2000,0 " 
style="fill:none;stroke:black;stroke-width:2" /><polyline points="0,125.0 2000,125.0 " 
style="fill:none;stroke:black;stroke-width:2" /><polyline points="0,1725.0 2000,1725.0 " 
style="fill:none;stroke:black;stroke-width:2" /><polyline points="0,525.0 1500,525.0 " 
style="fill:none;stroke:black;stroke-width:2" /><polyline points="0,925.0 1500,925.0 " 
style="fill:none;stroke:black;stroke-width:2" /><polyline points="0,1325.0 1500,1325.0 " 
style="fill:none;stroke:black;stroke-width:2" /><text
x="10.0" y="165.0"
text-anchor="left"
style="font-family:Arial;font-size:40"> 
1 </text>
<text
x="70.0" y="165.0"
text-anchor="left"
style="font-family:Arial;font-size:30"> 
&#8729; 220 g plain flour </text>
<polyline points="125.0,345.0 155.0,425.0 345.0,425.0 375.0,345.0" 
style="fill:none;stroke:black;stroke-width:2" /><text
x="410.0" y="425.0"
text-anchor="left"
style="font-family:Arial;font-size:30"> 
A </text>
<text
x="250.0" y="485.0"
text-anchor="middle"
style="font-family:Arial;font-size:40"> 
SIFT </text>
<text
x="510.0" y="165.0"
text-anchor="left"
style="font-family:Arial;font-size:40"> 
2 </text>
<text
x="570.0" y="165.0"
text-anchor="left"
style="font-family:Arial;font-size:30"> 
&#8729; 400 g granulated sugar </text>
<text
x="570.0" y="195.0"
text-anchor="left"
style="font-family:Arial;font-size:30"> 
&#8729; 75 g cocoa powder </text>
<text
x="570.0" y="225.0"
text-anchor="left"
style="font-family:Arial;font-size:30"> 
&#8729; 1+1/2 tsp baking powder </text>
<text
x="570.0" y="255.0"
text-anchor="left"
style="font-family:Arial;font-size:30"> 
&#8729; 1+1/2 tsp  bicarbonate of </text>
<text
x="590.0" y="285.0"
text-anchor="left"
style="font-family:Arial;font-size:30"> 
soda </text>
<polyline points="625.0,345.0 655.0,425.0 845.0,425.0 875.0,345.0" 
style="fill:none;stroke:black;stroke-width:2" /><text
x="910.0" y="425.0"
text-anchor="left"
style="font-family:Arial;font-size:30"> 
A </text>
<text
x="750.0" y="485.0"
text-anchor="middle"
style="font-family:Arial;font-size:40"> 
MIX </text>
<text
x="1010.0" y="165.0"
text-anchor="left"
style="font-family:Arial;font-size:40"> 
3 </text>
<text
x="1070.0" y="165.0"
text-anchor="left"
style="font-family:Arial;font-size:30"> 
&#8729; 2 eggs </text>
<text
x="1070.0" y="195.0"
text-anchor="left"
style="font-family:Arial;font-size:30"> 
&#8729; 1 tsp salt </text>
<polyline points="1125.0,345.0 1155.0,425.0 1345.0,425.0 1375.0,345.0" 
style="fill:none;stroke:black;stroke-width:2" /><text
x="1410.0" y="425.0"
text-anchor="left"
style="font-family:Arial;font-size:30"> 
A </text>
<text
x="1250.0" y="485.0"
text-anchor="middle"
style="font-family:Arial;font-size:40"> 
WHISK </text>
<text
x="10.0" y="565.0"
text-anchor="left"
style="font-family:Arial;font-size:40"> 
4 </text>
<text
x="70.0" y="565.0"
text-anchor="left"
style="font-family:Arial;font-size:30"> 
&#8729; 250 ml whole milk </text>
<text
x="70.0" y="595.0"
text-anchor="left"
style="font-family:Arial;font-size:30"> 
&#8729; 125 ml vegetable oil </text>
<text
x="70.0" y="625.0"
text-anchor="left"
style="font-family:Arial;font-size:30"> 
&#8729; 2 tsp vanilla essence </text>
<polyline points="125.0,745.0 155.0,825.0 345.0,825.0 375.0,745.0" 
style="fill:none;stroke:black;stroke-width:2" /><text
x="410.0" y="825.0"
text-anchor="left"
style="font-family:Arial;font-size:30"> 
A </text>
<text
x="250.0" y="885.0"
text-anchor="middle"
style="font-family:Arial;font-size:40"> 
WHISK </text>
<text
x="510.0" y="565.0"
text-anchor="left"
style="font-family:Arial;font-size:40"> 
5 </text>
<text
x="570.0" y="565.0"
text-anchor="left"
style="font-family:Arial;font-size:30"> 
&#8729; 150 ml water (boiling) </text>
<polyline points="625.0,745.0 655.0,825.0 845.0,825.0 875.0,745.0" 
style="fill:none;stroke:black;stroke-width:2" /><text
x="910.0" y="825.0"
text-anchor="left"
style="font-family:Arial;font-size:30"> 
A </text>
<text
x="750.0" y="885.0"
text-anchor="middle"
style="font-family:Arial;font-size:40"> 
WHISK </text>
<text
x="1510.0" y="165.0"
text-anchor="left"
style="font-family:Arial;font-size:40"> 
5 </text>
<text
x="1550.0" y="165.0"
text-anchor="left"
style="font-family:Arial;font-size:30"> 
Add water slowly and keep </text>
<text
x="1550.0" y="195.0"
text-anchor="left"
style="font-family:Arial;font-size:30"> 
whisking until batter </text>
<text
x="1550.0" y="225.0"
text-anchor="left"
style="font-family:Arial;font-size:30"> 
thickens. </text>
<text
x="1010.0" y="565.0"
text-anchor="left"
style="font-family:Arial;font-size:40"> 
6 </text>
<text
x="1070.0" y="565.0"
text-anchor="left"
style="font-family:Arial;font-size:30"> 
&#8729; 1 tbsp unsalted butter </text>
<polyline points="1120.0,745.0 1120.0,825.0 1380.0,825.0 1380.0,745.0" 
style="fill:none;stroke:black;stroke-width:2" /><text
x="1400.0" y="805.0"
text-anchor="left"
style="font-family:Arial;font-size:30"> 
x 2 </text>
<text
x="1250.0" y="885.0"
text-anchor="middle"
style="font-family:Arial;font-size:40"> 
SPREAD </text>
<text
x="10.0" y="965.0"
text-anchor="left"
style="font-family:Arial;font-size:40"> 
7 </text>
<text
x="70.0" y="965.0"
text-anchor="left"
style="font-family:Arial;font-size:30"> 
&#8729; 1/2 mixing bowl A contents </text>
<polyline points="120.0,1145.0 120.0,1225.0 380.0,1225.0 380.0,1145.0" 
style="fill:none;stroke:black;stroke-width:2" /><text
x="400.0" y="1205.0"
text-anchor="left"
style="font-family:Arial;font-size:30"> 
x 2 </text>
<text
x="250.0" y="1285.0"
text-anchor="middle"
style="font-family:Arial;font-size:40"> 
BAKE </text>
<text
x="510.0" y="965.0"
text-anchor="left"
style="font-family:Arial;font-size:40"> 
8 </text>
<text
x="570.0" y="965.0"
text-anchor="left"
style="font-family:Arial;font-size:30"> 
&#8729; 220 g unsalted butter </text>
<polyline points="625.0,1145.0 655.0,1225.0 845.0,1225.0 875.0,1145.0" 
style="fill:none;stroke:black;stroke-width:2" /><text
x="910.0" y="1225.0"
text-anchor="left"
style="font-family:Arial;font-size:30"> 
B </text>
<text
x="750.0" y="1285.0"
text-anchor="middle"
style="font-family:Arial;font-size:40"> 
WHISK </text>
<text
x="1010.0" y="965.0"
text-anchor="left"
style="font-family:Arial;font-size:40"> 
9 </text>
<text
x="1070.0" y="965.0"
text-anchor="left"
style="font-family:Arial;font-size:30"> 
&#8729; 150 g cocoa powder </text>
<text
x="1070.0" y="995.0"
text-anchor="left"
style="font-family:Arial;font-size:30"> 
&#8729; 250 g icing sugar </text>
<polyline points="1125.0,1145.0 1155.0,1225.0 1345.0,1225.0 1375.0,1145.0" 
style="fill:none;stroke:black;stroke-width:2" /><text
x="1410.0" y="1225.0"
text-anchor="left"
style="font-family:Arial;font-size:30"> 
B </text>
<text
x="1250.0" y="1285.0"
text-anchor="middle"
style="font-family:Arial;font-size:40"> 
WHISK </text>
<text
x="10.0" y="1365.0"
text-anchor="left"
style="font-family:Arial;font-size:40"> 
10 </text>
<text
x="70.0" y="1365.0"
text-anchor="left"
style="font-family:Arial;font-size:30"> 
&#8729; 1 tsp vanilla essence </text>
<text
x="70.0" y="1395.0"
text-anchor="left"
style="font-family:Arial;font-size:30"> 
&#8729; 165 ml whole milk </text>
<polyline points="125.0,1545.0 155.0,1625.0 345.0,1625.0 375.0,1545.0" 
style="fill:none;stroke:black;stroke-width:2" /><text
x="410.0" y="1625.0"
text-anchor="left"
style="font-family:Arial;font-size:30"> 
B </text>
<text
x="250.0" y="1685.0"
text-anchor="middle"
style="font-family:Arial;font-size:40"> 
WHISK </text>
<text
x="510.0" y="1365.0"
text-anchor="left"
style="font-family:Arial;font-size:40"> 
11 </text>
<text
x="570.0" y="1365.0"
text-anchor="left"
style="font-family:Arial;font-size:30"> 
&#8729; 2 cake layers (cooled) </text>
<text
x="570.0" y="1395.0"
text-anchor="left"
style="font-family:Arial;font-size:30"> 
&#8729; mixing bowl B contents </text>
<polyline points="600.0,1569.0 650.0,1601.0 850.0,1601.0 900.0,1569.0" 
style="fill:none;stroke:black;stroke-width:2" /><text
x="750.0" y="1685.0"
text-anchor="middle"
style="font-family:Arial;font-size:40"> 
ASSEMBLE </text>
</svg>