<?xml version="1.0" encoding="UTF-8"?>
<svg xmlns="http://www.w3.org/2000/svg" width="2000" height="3725.0">
<text x="40.0" y="88.0" font-size="80">
Chocolate Orange Mousse Domes<tspan font-size="40">&#160;&#160;by Cooking Fantasies</tspan></text>
<polyline points="0,0 0,3725.0 " 
style="fill:none;stroke:black;stroke-width:2" /><polyline points="2000,0 2000,3725.0 " 
style="fill:none;stroke:black;stroke-width:2" /><polyline points="500,125.0 500,3725.0 " 
style="fill:none;stroke:black;stroke-width:2" /><polyline points="1000,125.0 1000,3725.0 " 
style="fill:none;stroke:black;stroke-width:2" /><polyline points="1500,125.0 1500,3725.0 " 
style="fill:none;stroke:black;stroke-width:2" /><polyline points="0,0 2000,0 " 
style="fill:none;stroke:black;stroke-width:2" /><polyline points="0,125.0 2000,125.0 " 
style="fill:none;stroke:black;stroke-width:2" /><polyline points="0,3725.0 2000,3725.0 " 
style="fill:none;stroke:black;stroke-width:2" /><polyline points="0,525.0 1500,525.0 " 
style="fill:none;stroke:black;stroke-width:2" /><polyline points="0,925.0 1500,925.0 " 
style="fill:none;stroke:black;stroke-width:2" /><polyline points="0,1325.0 1500,1325.0 " 
style="fill:none;stroke:black;stroke-width:2" /><polyline points="0,1725.0 1500,1725.0 " 
style="fill:none;stroke:black;stroke-width:2" /><polyline points="0,2125.0 1500,2125.0 " 
style="fill:none;stroke:black;stroke-width:2" /><polyline points="0,2525.0 1500,2525.0 " 
style="fill:none;stroke:black;stroke-width:2" /><polyline points="0,2925.0 1500,2925.0 " 
style="fill:none;stroke:black;stroke-width:2" /><polyline points="0,3325.0 1500,3325.0 " 
style="fill:none;stroke:black;stroke-width:2" /><text
x="10.0" y="165.0"
text-anchor="left"
style="font-family:Arial;font-size:40"> 
1 </text>
<text
x="70.0" y="165.0"
text-anchor="left"
style="font-family:Arial;font-size:30"> 
&#8729; 130 ml fresh orange juice </text>
<polyline points="50.0,345.0 70.0,425.0 270.0,425.0 290.0,345.0" 
style="fill:none;stroke:black;stroke-width:2" /><polyline points="286.00000000000006,361.0 450.0,361.0" 
style="fill:none;stroke:black;stroke-width:2" /><text
x="300.0" y="425.0"
text-anchor="left"
style="font-family:Arial;font-size:30"> 
A </text>
<text
x="250.0" y="485.0"
text-anchor="middle"
style="font-family:Arial;font-size:40"> 
SIMMER </text>
<text
x="510.0" y="165.0"
text-anchor="left"
style="font-family:Arial;font-size:40"> 
2 </text>
<text
x="570.0" y="165.0"
text-anchor="left"
style="font-family:Arial;font-size:30"> 
&#8729; 1 orange (zested) </text>
<text
x="570.0" y="195.0"
text-anchor="left"
style="font-family:Arial;font-size:30"> 
&#8729; 40 g caster sugar </text>
<polyline points="625.0,345.0 655.0,425.0 845.0,425.0 875.0,345.0" 
style="fill:none;stroke:black;stroke-width:2" /><text
x="910.0" y="425.0"
text-anchor="left"
style="font-family:Arial;font-size:30"> 
A </text>
<text
x="750.0" y="485.0"
text-anchor="middle"
style="font-family:Arial;font-size:40"> 
MIX </text>
<text
x="1510.0" y="165.0"
text-anchor="left"
style="font-family:Arial;font-size:40"> 
2 </text>
<text
x="1550.0" y="165.0"
text-anchor="left"
style="font-family:Arial;font-size:30"> 
Rub the sugar into the orange </text>
<text
x="1550.0" y="195.0"
text-anchor="left"
style="font-family:Arial;font-size:30"> 
zest to form a paste. The </text>
<text
x="1550.0" y="225.0"
text-anchor="left"
style="font-family:Arial;font-size:30"> 
indiivudal pieces of zest </text>
<text
x="1550.0" y="255.0"
text-anchor="left"
style="font-family:Arial;font-size:30"> 
should no longer be visible. </text>
<text
x="1010.0" y="165.0"
text-anchor="left"
style="font-family:Arial;font-size:40"> 
3 </text>
<text
x="1070.0" y="165.0"
text-anchor="left"
style="font-family:Arial;font-size:30"> 
&#8729; 1 tbsp corn starch </text>
<polyline points="1125.0,345.0 1155.0,425.0 1345.0,425.0 1375.0,345.0" 
style="fill:none;stroke:black;stroke-width:2" /><text
x="1410.0" y="425.0"
text-anchor="left"
style="font-family:Arial;font-size:30"> 
A </text>
<text
x="1250.0" y="485.0"
text-anchor="middle"
style="font-family:Arial;font-size:40"> 
MIX </text>
<text
x="10.0" y="565.0"
text-anchor="left"
style="font-family:Arial;font-size:40"> 
4 </text>
<text
x="70.0" y="565.0"
text-anchor="left"
style="font-family:Arial;font-size:30"> 
&#8729; 1/2 saucepan A </text>
<polyline points="125.0,745.0 155.0,825.0 345.0,825.0 375.0,745.0" 
style="fill:none;stroke:black;stroke-width:2" /><text
x="410.0" y="825.0"
text-anchor="left"
style="font-family:Arial;font-size:30"> 
A </text>
<text
x="250.0" y="885.0"
text-anchor="middle"
style="font-family:Arial;font-size:40"> 
H-WHISK </text>
<text
x="510.0" y="565.0"
text-anchor="left"
style="font-family:Arial;font-size:40"> 
5 </text>
<text
x="570.0" y="565.0"
text-anchor="left"
style="font-family:Arial;font-size:30"> 
&#8729; mixing bowl A </text>
<polyline points="550.0,745.0 570.0,825.0 770.0,825.0 790.0,745.0" 
style="fill:none;stroke:black;stroke-width:2" /><polyline points="786.0,761.0 950.0,761.0" 
style="fill:none;stroke:black;stroke-width:2" /><text
x="800.0" y="825.0"
text-anchor="left"
style="font-family:Arial;font-size:30"> 
A </text>
<text
x="750.0" y="885.0"
text-anchor="middle"
style="font-family:Arial;font-size:38"> 
HEAT &amp; H-WHISK </text>
<text
x="1510.0" y="325.0"
text-anchor="left"
style="font-family:Arial;font-size:40"> 
5 </text>
<text
x="1550.0" y="325.0"
text-anchor="left"
style="font-family:Arial;font-size:30"> 
Whisk continually until the </text>
<text
x="1550.0" y="355.0"
text-anchor="left"
style="font-family:Arial;font-size:30"> 
mixture thickens. </text>
<text
x="1010.0" y="565.0"
text-anchor="left"
style="font-family:Arial;font-size:40"> 
6 </text>
<text
x="1070.0" y="565.0"
text-anchor="left"
style="font-family:Arial;font-size:30"> 
&#8729; 20 g unsalted butter / </text>
<text
x="1090.0" y="595.0"
text-anchor="left"
style="font-family:Arial;font-size:30"> 
Lurpak </text>
<polyline points="1050.0,745.0 1070.0,825.0 1270.0,825.0 1290.0,745.0" 
style="fill:none;stroke:black;stroke-width:2" /><polyline points="1286.0,761.0 1450.0,761.0" 
style="fill:none;stroke:black;stroke-width:2" /><text
x="1300.0" y="825.0"
text-anchor="left"
style="font-family:Arial;font-size:30"> 
A </text>
<text
x="1250.0" y="885.0"
text-anchor="middle"
style="font-family:Arial;font-size:40"> 
BLEND </text>
<text
x="1510.0" y="425.0"
text-anchor="left"
style="font-family:Arial;font-size:40"> 
6 </text>
<text
x="1550.0" y="425.0"
text-anchor="left"
style="font-family:Arial;font-size:30"> 
Allow the mixture to cool to </text>
<text
x="1550.0" y="455.0"
text-anchor="left"
style="font-family:Arial;font-size:30"> 
around 45 C then blend in the </text>
<text
x="1550.0" y="485.0"
text-anchor="left"
style="font-family:Arial;font-size:30"> 
cold butter. </text>
<text
x="10.0" y="965.0"
text-anchor="left"
style="font-family:Arial;font-size:40"> 
7 </text>
<text
x="70.0" y="965.0"
text-anchor="left"
style="font-family:Arial;font-size:30"> 
&#8729; saucepan A </text>
<text
x="250.0" y="1285.0"
text-anchor="middle"
style="font-family:Arial;font-size:40"> 
FREEZE </text>
<text
x="510.0" y="965.0"
text-anchor="left"
style="font-family:Arial;font-size:40"> 
8 </text>
<text
x="570.0" y="965.0"
text-anchor="left"
style="font-family:Arial;font-size:30"> 
&#8729; 300 g dark chocolate </text>
<polyline points="625.0,1145.0 655.0,1225.0 845.0,1225.0 875.0,1145.0" 
style="fill:none;stroke:black;stroke-width:2" /><text
x="910.0" y="1225.0"
text-anchor="left"
style="font-family:Arial;font-size:30"> 
B </text>
<text
x="750.0" y="1285.0"
text-anchor="middle"
style="font-family:Arial;font-size:40"> 
MELT </text>
<text
x="1510.0" y="555.0"
text-anchor="left"
style="font-family:Arial;font-size:40"> 
8 </text>
<text
x="1550.0" y="555.0"
text-anchor="left"
style="font-family:Arial;font-size:30"> 
Gently melt the chocolate in a </text>
<text
x="1550.0" y="585.0"
text-anchor="left"
style="font-family:Arial;font-size:30"> 
bain-marie or microwave. Can </text>
<text
x="1550.0" y="615.0"
text-anchor="left"
style="font-family:Arial;font-size:30"> 
alternatively use milk </text>
<text
x="1550.0" y="645.0"
text-anchor="left"
style="font-family:Arial;font-size:30"> 
chocolate for a lighter taste. </text>
<text
x="1010.0" y="965.0"
text-anchor="left"
style="font-family:Arial;font-size:40"> 
9 </text>
<text
x="1070.0" y="965.0"
text-anchor="left"
style="font-family:Arial;font-size:30"> 
&#8729; 220 ml whole milk </text>
<polyline points="1050.0,1145.0 1070.0,1225.0 1270.0,1225.0 1290.0,1145.0" 
style="fill:none;stroke:black;stroke-width:2" /><polyline points="1286.0,1161.0 1450.0,1161.0" 
style="fill:none;stroke:black;stroke-width:2" /><text
x="1300.0" y="1225.0"
text-anchor="left"
style="font-family:Arial;font-size:30"> 
B </text>
<text
x="1250.0" y="1285.0"
text-anchor="middle"
style="font-family:Arial;font-size:40"> 
SIMMER </text>
<text
x="10.0" y="1365.0"
text-anchor="left"
style="font-family:Arial;font-size:40"> 
10 </text>
<text
x="70.0" y="1365.0"
text-anchor="left"
style="font-family:Arial;font-size:30"> 
&#8729; 4 gelatin sheets (soaked </text>
<text
x="90.0" y="1395.0"
text-anchor="left"
style="font-family:Arial;font-size:30"> 
and drained) </text>
<polyline points="50.0,1545.0 70.0,1625.0 270.0,1625.0 290.0,1545.0" 
style="fill:none;stroke:black;stroke-width:2" /><polyline points="286.00000000000006,1561.0 450.0,1561.0" 
style="fill:none;stroke:black;stroke-width:2" /><text
x="300.0" y="1625.0"
text-anchor="left"
style="font-family:Arial;font-size:30"> 
B </text>
<text
x="250.0" y="1685.0"
text-anchor="middle"
style="font-family:Arial;font-size:40"> 
STIR </text>
<text
x="1510.0" y="715.0"
text-anchor="left"
style="font-family:Arial;font-size:40"> 
10 </text>
<text
x="1570.0" y="715.0"
text-anchor="left"
style="font-family:Arial;font-size:30"> 
Remove from the heat and add </text>
<text
x="1570.0" y="745.0"
text-anchor="left"
style="font-family:Arial;font-size:30"> 
the gelatin sheets (3 or 4?) </text>
<text
x="1570.0" y="775.0"
text-anchor="left"
style="font-family:Arial;font-size:30"> 
while the milk is still </text>
<text
x="1570.0" y="805.0"
text-anchor="left"
style="font-family:Arial;font-size:30"> 
warm. Ensure that the sheets </text>
<text
x="1570.0" y="835.0"
text-anchor="left"
style="font-family:Arial;font-size:30"> 
fully dissolve. </text>
<text
x="510.0" y="1365.0"
text-anchor="left"
style="font-family:Arial;font-size:40"> 
11 </text>
<text
x="570.0" y="1365.0"
text-anchor="left"
style="font-family:Arial;font-size:30"> 
&#8729; mixing bowl B </text>
<polyline points="550.0,1545.0 570.0,1625.0 770.0,1625.0 790.0,1545.0" 
style="fill:none;stroke:black;stroke-width:2" /><polyline points="786.0,1561.0 950.0,1561.0" 
style="fill:none;stroke:black;stroke-width:2" /><text
x="800.0" y="1625.0"
text-anchor="left"
style="font-family:Arial;font-size:30"> 
B </text>
<text
x="750.0" y="1685.0"
text-anchor="middle"
style="font-family:Arial;font-size:40"> 
MIX </text>
<text
x="1510.0" y="905.0"
text-anchor="left"
style="font-family:Arial;font-size:40"> 
11 </text>
<text
x="1570.0" y="905.0"
text-anchor="left"
style="font-family:Arial;font-size:30"> 
Add the milk and gelatine </text>
<text
x="1570.0" y="935.0"
text-anchor="left"
style="font-family:Arial;font-size:30"> 
mixture gradually. </text>
<text
x="1010.0" y="1365.0"
text-anchor="left"
style="font-family:Arial;font-size:40"> 
12 </text>
<text
x="1070.0" y="1365.0"
text-anchor="left"
style="font-family:Arial;font-size:30"> 
&#8729; 420 ml double cream </text>
<text
x="1070.0" y="1395.0"
text-anchor="left"
style="font-family:Arial;font-size:30"> 
&#8729; 2 tbsp icing sugar </text>
<text
x="1070.0" y="1425.0"
text-anchor="left"
style="font-family:Arial;font-size:30"> 
&#8729; 2 tsp orange essence </text>
<polyline points="1125.0,1545.0 1155.0,1625.0 1345.0,1625.0 1375.0,1545.0" 
style="fill:none;stroke:black;stroke-width:2" /><text
x="1410.0" y="1625.0"
text-anchor="left"
style="font-family:Arial;font-size:30"> 
C </text>
<text
x="1250.0" y="1685.0"
text-anchor="middle"
style="font-family:Arial;font-size:40"> 
E-WHISK </text>
<text
x="1510.0" y="1005.0"
text-anchor="left"
style="font-family:Arial;font-size:40"> 
12 </text>
<text
x="1570.0" y="1005.0"
text-anchor="left"
style="font-family:Arial;font-size:30"> 
Whisk until thickened, but </text>
<text
x="1570.0" y="1035.0"
text-anchor="left"
style="font-family:Arial;font-size:30"> 
not too thick. </text>
<text
x="10.0" y="1765.0"
text-anchor="left"
style="font-family:Arial;font-size:40"> 
13 </text>
<text
x="70.0" y="1765.0"
text-anchor="left"
style="font-family:Arial;font-size:30"> 
&#8729; saucepan B (cooled) </text>
<polyline points="125.0,1945.0 155.0,2025.0 345.0,2025.0 375.0,1945.0" 
style="fill:none;stroke:black;stroke-width:2" /><text
x="410.0" y="2025.0"
text-anchor="left"
style="font-family:Arial;font-size:30"> 
C </text>
<text
x="250.0" y="2085.0"
text-anchor="middle"
style="font-family:Arial;font-size:38"> 
SIEVE &amp; FOLD </text>
<text
x="510.0" y="1765.0"
text-anchor="left"
style="font-family:Arial;font-size:40"> 
14 </text>
<text
x="570.0" y="1765.0"
text-anchor="left"
style="font-family:Arial;font-size:30"> 
&#8729; mixing bowl C </text>
<text
x="570.0" y="1795.0"
text-anchor="left"
style="font-family:Arial;font-size:30"> 
&#8729; silicon mold A (frozen) </text>
<text
x="750.0" y="2085.0"
text-anchor="middle"
style="font-family:Arial;font-size:40"> 
FREEZE </text>
<text
x="1510.0" y="1105.0"
text-anchor="left"
style="font-family:Arial;font-size:40"> 
14 </text>
<text
x="1570.0" y="1105.0"
text-anchor="left"
style="font-family:Arial;font-size:30"> 
Press mousse mixture firmly </text>
<text
x="1570.0" y="1135.0"
text-anchor="left"
style="font-family:Arial;font-size:30"> 
into the mould. Place the </text>
<text
x="1570.0" y="1165.0"
text-anchor="left"
style="font-family:Arial;font-size:30"> 
frozen orange domes on top </text>
<text
x="1570.0" y="1195.0"
text-anchor="left"
style="font-family:Arial;font-size:30"> 
of the mousse mixture. Place </text>
<text
x="1570.0" y="1225.0"
text-anchor="left"
style="font-family:Arial;font-size:30"> 
enough mousse mixture on top </text>
<text
x="1570.0" y="1255.0"
text-anchor="left"
style="font-family:Arial;font-size:30"> 
of the orange domes to just </text>
<text
x="1570.0" y="1285.0"
text-anchor="left"
style="font-family:Arial;font-size:30"> 
cover them. Smooth off with </text>
<text
x="1570.0" y="1315.0"
text-anchor="left"
style="font-family:Arial;font-size:30"> 
a palette knife. </text>
<text
x="1010.0" y="1765.0"
text-anchor="left"
style="font-family:Arial;font-size:40"> 
15 </text>
<text
x="1070.0" y="1765.0"
text-anchor="left"
style="font-family:Arial;font-size:30"> 
&#8729; 180 g unsalted butter </text>
<text
x="1090.0" y="1795.0"
text-anchor="left"
style="font-family:Arial;font-size:30"> 
(softened) </text>
<text
x="1070.0" y="1825.0"
text-anchor="left"
style="font-family:Arial;font-size:30"> 
&#8729; 180 g caster sugar </text>
<text
x="1070.0" y="1855.0"
text-anchor="left"
style="font-family:Arial;font-size:30"> 
&#8729; 1 tsp salt </text>
<polyline points="1125.0,1945.0 1155.0,2025.0 1345.0,2025.0 1375.0,1945.0" 
style="fill:none;stroke:black;stroke-width:2" /><text
x="1410.0" y="2025.0"
text-anchor="left"
style="font-family:Arial;font-size:30"> 
D </text>
<text
x="1250.0" y="2085.0"
text-anchor="middle"
style="font-family:Arial;font-size:40"> 
E-WHISK </text>
<text
x="10.0" y="2165.0"
text-anchor="left"
style="font-family:Arial;font-size:40"> 
16 </text>
<text
x="70.0" y="2165.0"
text-anchor="left"
style="font-family:Arial;font-size:30"> 
&#8729; 200 g plain flour </text>
<text
x="70.0" y="2195.0"
text-anchor="left"
style="font-family:Arial;font-size:30"> 
&#8729; 40 g cocoa powder </text>
<text
x="70.0" y="2225.0"
text-anchor="left"
style="font-family:Arial;font-size:30"> 
&#8729; 1 tsp baking soda </text>
<polyline points="125.0,2345.0 155.0,2425.0 345.0,2425.0 375.0,2345.0" 
style="fill:none;stroke:black;stroke-width:2" /><text
x="410.0" y="2425.0"
text-anchor="left"
style="font-family:Arial;font-size:30"> 
D </text>
<text
x="250.0" y="2485.0"
text-anchor="middle"
style="font-family:Arial;font-size:40"> 
SIFT </text>
<text
x="510.0" y="2165.0"
text-anchor="left"
style="font-family:Arial;font-size:40"> 
17 </text>
<text
x="570.0" y="2165.0"
text-anchor="left"
style="font-family:Arial;font-size:30"> 
&#8729; 2 oranges (zested) </text>
<polyline points="625.0,2345.0 655.0,2425.0 845.0,2425.0 875.0,2345.0" 
style="fill:none;stroke:black;stroke-width:2" /><text
x="910.0" y="2425.0"
text-anchor="left"
style="font-family:Arial;font-size:30"> 
D </text>
<text
x="750.0" y="2485.0"
text-anchor="middle"
style="font-family:Arial;font-size:35"> 
FOLD &amp; REFRIGERATE </text>
<text
x="1510.0" y="1385.0"
text-anchor="left"
style="font-family:Arial;font-size:40"> 
17 </text>
<text
x="1570.0" y="1385.0"
text-anchor="left"
style="font-family:Arial;font-size:30"> 
Use a spatula to bring the </text>
<text
x="1570.0" y="1415.0"
text-anchor="left"
style="font-family:Arial;font-size:30"> 
mixture together, then wrap </text>
<text
x="1570.0" y="1445.0"
text-anchor="left"
style="font-family:Arial;font-size:30"> 
in cling film and </text>
<text
x="1570.0" y="1475.0"
text-anchor="left"
style="font-family:Arial;font-size:30"> 
refrigerate. </text>
<text
x="1010.0" y="2165.0"
text-anchor="left"
style="font-family:Arial;font-size:40"> 
18 </text>
<text
x="1070.0" y="2165.0"
text-anchor="left"
style="font-family:Arial;font-size:30"> 
&#8729; chocolate shortcrust </text>
<text
x="1090.0" y="2195.0"
text-anchor="left"
style="font-family:Arial;font-size:30"> 
(chilled) </text>
<polyline points="1100.0,2369.0 1100.0,2401.0 1400.0,2401.0 1400.0,2369.0" 
style="fill:none;stroke:black;stroke-width:2" /><text
x="1250.0" y="2485.0"
text-anchor="middle"
style="font-family:Arial;font-size:40"> 
ROLL &amp; BAKE </text>
<text
x="1510.0" y="1545.0"
text-anchor="left"
style="font-family:Arial;font-size:40"> 
18 </text>
<text
x="1570.0" y="1545.0"
text-anchor="left"
style="font-family:Arial;font-size:30"> 
Roll out the pastry into a </text>
<text
x="1570.0" y="1575.0"
text-anchor="left"
style="font-family:Arial;font-size:30"> 
flat layer and bake at 180 C </text>
<text
x="1570.0" y="1605.0"
text-anchor="left"
style="font-family:Arial;font-size:30"> 
for around 10 mins, until </text>
<text
x="1570.0" y="1635.0"
text-anchor="left"
style="font-family:Arial;font-size:30"> 
crispy but not burnt. </text>
<text
x="10.0" y="2565.0"
text-anchor="left"
style="font-family:Arial;font-size:40"> 
19 </text>
<text
x="70.0" y="2565.0"
text-anchor="left"
style="font-family:Arial;font-size:30"> 
&#8729; chocolate shortcrust </text>
<text
x="90.0" y="2595.0"
text-anchor="left"
style="font-family:Arial;font-size:30"> 
(baked) </text>
<polyline points="75.0,2777.0 75.0,2793.0 425.0,2793.0 425.0,2777.0 75.0,2777.0" 
style="fill:none;stroke:black;stroke-width:2" /><text
x="250.0" y="2885.0"
text-anchor="middle"
style="font-family:Arial;font-size:40"> 
CRUMBLE </text>
<text
x="1510.0" y="1705.0"
text-anchor="left"
style="font-family:Arial;font-size:40"> 
19 </text>
<text
x="1570.0" y="1705.0"
text-anchor="left"
style="font-family:Arial;font-size:30"> 
Use a rolling pin to crush </text>
<text
x="1570.0" y="1735.0"
text-anchor="left"
style="font-family:Arial;font-size:30"> 
the chortcrust into small </text>
<text
x="1570.0" y="1765.0"
text-anchor="left"
style="font-family:Arial;font-size:30"> 
chunks </text>
<text
x="510.0" y="2565.0"
text-anchor="left"
style="font-family:Arial;font-size:40"> 
20 </text>
<text
x="570.0" y="2565.0"
text-anchor="left"
style="font-family:Arial;font-size:30"> 
&#8729; 100 ml double cream </text>
<polyline points="550.0,2745.0 570.0,2825.0 770.0,2825.0 790.0,2745.0" 
style="fill:none;stroke:black;stroke-width:2" /><polyline points="786.0,2761.0 950.0,2761.0" 
style="fill:none;stroke:black;stroke-width:2" /><text
x="800.0" y="2825.0"
text-anchor="left"
style="font-family:Arial;font-size:30"> 
C </text>
<text
x="750.0" y="2885.0"
text-anchor="middle"
style="font-family:Arial;font-size:40"> 
HEAT </text>
<text
x="1010.0" y="2565.0"
text-anchor="left"
style="font-family:Arial;font-size:40"> 
21 </text>
<text
x="1070.0" y="2565.0"
text-anchor="left"
style="font-family:Arial;font-size:30"> 
&#8729; 50 ml water </text>
<text
x="1070.0" y="2595.0"
text-anchor="left"
style="font-family:Arial;font-size:30"> 
&#8729; 150 g caster sugar </text>
<polyline points="1050.0,2745.0 1070.0,2825.0 1270.0,2825.0 1290.0,2745.0" 
style="fill:none;stroke:black;stroke-width:2" /><polyline points="1286.0,2761.0 1450.0,2761.0" 
style="fill:none;stroke:black;stroke-width:2" /><text
x="1300.0" y="2825.0"
text-anchor="left"
style="font-family:Arial;font-size:30"> 
D </text>
<text
x="1250.0" y="2885.0"
text-anchor="middle"
style="font-family:Arial;font-size:40"> 
BOIL </text>
<text
x="1510.0" y="1835.0"
text-anchor="left"
style="font-family:Arial;font-size:40"> 
21 </text>
<text
x="1570.0" y="1835.0"
text-anchor="left"
style="font-family:Arial;font-size:30"> 
Bring to the boil but not </text>
<text
x="1570.0" y="1865.0"
text-anchor="left"
style="font-family:Arial;font-size:30"> 
turn brown. </text>
<text
x="10.0" y="2965.0"
text-anchor="left"
style="font-family:Arial;font-size:40"> 
22 </text>
<text
x="70.0" y="2965.0"
text-anchor="left"
style="font-family:Arial;font-size:30"> 
&#8729; 3 gelatine sheets (soaked </text>
<text
x="90.0" y="2995.0"
text-anchor="left"
style="font-family:Arial;font-size:30"> 
and drained) </text>
<text
x="70.0" y="3025.0"
text-anchor="left"
style="font-family:Arial;font-size:30"> 
&#8729; 50 g cocoa powder </text>
<polyline points="50.0,3145.0 70.0,3225.0 270.0,3225.0 290.0,3145.0" 
style="fill:none;stroke:black;stroke-width:2" /><polyline points="286.00000000000006,3161.0 450.0,3161.0" 
style="fill:none;stroke:black;stroke-width:2" /><text
x="300.0" y="3225.0"
text-anchor="left"
style="font-family:Arial;font-size:30"> 
D </text>
<text
x="250.0" y="3285.0"
text-anchor="middle"
style="font-family:Arial;font-size:40"> 
STIR </text>
<text
x="510.0" y="2965.0"
text-anchor="left"
style="font-family:Arial;font-size:40"> 
23 </text>
<text
x="570.0" y="2965.0"
text-anchor="left"
style="font-family:Arial;font-size:30"> 
&#8729; saucepan C </text>
<polyline points="550.0,3145.0 570.0,3225.0 770.0,3225.0 790.0,3145.0" 
style="fill:none;stroke:black;stroke-width:2" /><polyline points="786.0,3161.0 950.0,3161.0" 
style="fill:none;stroke:black;stroke-width:2" /><text
x="800.0" y="3225.0"
text-anchor="left"
style="font-family:Arial;font-size:30"> 
D </text>
<text
x="750.0" y="3285.0"
text-anchor="middle"
style="font-family:Arial;font-size:38"> 
STIR &amp; BLEND </text>
<text
x="1510.0" y="1935.0"
text-anchor="left"
style="font-family:Arial;font-size:40"> 
23 </text>
<text
x="1570.0" y="1935.0"
text-anchor="left"
style="font-family:Arial;font-size:30"> 
Stir gently to avoid </text>
<text
x="1570.0" y="1965.0"
text-anchor="left"
style="font-family:Arial;font-size:30"> 
incorporating air bubbles. </text>
<text
x="1570.0" y="1995.0"
text-anchor="left"
style="font-family:Arial;font-size:30"> 
Once homogeneous, blend to </text>
<text
x="1570.0" y="2025.0"
text-anchor="left"
style="font-family:Arial;font-size:30"> 
smoothen glaze mixture. </text>
<text
x="1570.0" y="2055.0"
text-anchor="left"
style="font-family:Arial;font-size:30"> 
Ensure that the blender is </text>
<text
x="1570.0" y="2085.0"
text-anchor="left"
style="font-family:Arial;font-size:30"> 
fully immersed. If </text>
<text
x="1570.0" y="2115.0"
text-anchor="left"
style="font-family:Arial;font-size:30"> 
necessary, sieve the glaze </text>
<text
x="1570.0" y="2145.0"
text-anchor="left"
style="font-family:Arial;font-size:30"> 
mixture to remove air </text>
<text
x="1570.0" y="2175.0"
text-anchor="left"
style="font-family:Arial;font-size:30"> 
bubbles. </text>
<text
x="1010.0" y="2965.0"
text-anchor="left"
style="font-family:Arial;font-size:40"> 
24 </text>
<text
x="1070.0" y="2965.0"
text-anchor="left"
style="font-family:Arial;font-size:30"> 
&#8729; silicone mold B (frozen) </text>
<text
x="1070.0" y="2995.0"
text-anchor="left"
style="font-family:Arial;font-size:30"> 
&#8729; saucepan D </text>
<text
x="1250.0" y="3285.0"
text-anchor="middle"
style="font-family:Arial;font-size:40"> 
GLAZE </text>
<text
x="1510.0" y="2245.0"
text-anchor="left"
style="font-family:Arial;font-size:40"> 
24 </text>
<text
x="1570.0" y="2245.0"
text-anchor="left"
style="font-family:Arial;font-size:30"> 
Place the frozen mousse </text>
<text
x="1570.0" y="2275.0"
text-anchor="left"
style="font-family:Arial;font-size:30"> 
domes on a wire rack and </text>
<text
x="1570.0" y="2305.0"
text-anchor="left"
style="font-family:Arial;font-size:30"> 
glaze. The glaze mixture </text>
<text
x="1570.0" y="2335.0"
text-anchor="left"
style="font-family:Arial;font-size:30"> 
should be around 30 C. </text>
<text
x="10.0" y="3365.0"
text-anchor="left"
style="font-family:Arial;font-size:40"> 
25 </text>
<text
x="70.0" y="3365.0"
text-anchor="left"
style="font-family:Arial;font-size:30"> 
&#8729; mousse domes (glazed) </text>
<text
x="70.0" y="3395.0"
text-anchor="left"
style="font-family:Arial;font-size:30"> 
&#8729; chocolate shortcrust </text>
<text
x="90.0" y="3425.0"
text-anchor="left"
style="font-family:Arial;font-size:30"> 
(crushed) </text>
<polyline points="100.0,3569.0 150.0,3601.0 350.0,3601.0 400.0,3569.0" 
style="fill:none;stroke:black;stroke-width:2" /><text
x="250.0" y="3685.0"
text-anchor="middle"
style="font-family:Arial;font-size:40"> 
ASSEMBLE </text>
<text
x="1510.0" y="2405.0"
text-anchor="left"
style="font-family:Arial;font-size:40"> 
25 </text>
<text
x="1570.0" y="2405.0"
text-anchor="left"
style="font-family:Arial;font-size:30"> 
Press the crushed shortcrust </text>
<text
x="1570.0" y="2435.0"
text-anchor="left"
style="font-family:Arial;font-size:30"> 
into circular rings on a </text>
<text
x="1570.0" y="2465.0"
text-anchor="left"
style="font-family:Arial;font-size:30"> 
plate to form the base, then </text>
<text
x="1570.0" y="2495.0"
text-anchor="left"
style="font-family:Arial;font-size:30"> 
carefully place the domes on </text>
<text
x="1570.0" y="2525.0"
text-anchor="left"
style="font-family:Arial;font-size:30"> 
top of the shortcrust bases. </text>
<text
x="1570.0" y="2555.0"
text-anchor="left"
style="font-family:Arial;font-size:30"> 
Do this before the glaze has </text>
<text
x="1570.0" y="2585.0"
text-anchor="left"
style="font-family:Arial;font-size:30"> 
fully set. </text>
<text
x="510.0" y="3365.0"
text-anchor="left"
style="font-family:Arial;font-size:40"> 
26 </text>
<text
x="570.0" y="3365.0"
text-anchor="left"
style="font-family:Arial;font-size:30"> 
&#8729; orange peel </text>
<polyline points="600.0,3569.0 650.0,3601.0 850.0,3601.0 900.0,3569.0" 
style="fill:none;stroke:black;stroke-width:2" /><text
x="750.0" y="3685.0"
text-anchor="middle"
style="font-family:Arial;font-size:40"> 
DECORATE </text>
</svg>