<?xml version="1.0" encoding="UTF-8"?>
<svg xmlns="http://www.w3.org/2000/svg" width="2000" height="2125.0">
<text x="40.0" y="88.0" font-size="80">
Millefeuille</text>
<polyline points="0,0 0,2125.0 " 
style="fill:none;stroke:black;stroke-width:2" /><polyline points="2000,0 2000,2125.0 " 
style="fill:none;stroke:black;stroke-width:2" /><polyline points="500,125.0 500,2125.0 " 
style="fill:none;stroke:black;stroke-width:2" /><polyline points="1000,125.0 1000,2125.0 " 
style="fill:none;stroke:black;stroke-width:2" /><polyline points="1500,125.0 1500,2125.0 " 
style="fill:none;stroke:black;stroke-width:2" /><polyline points="0,0 2000,0 " 
style="fill:none;stroke:black;stroke-width:2" /><polyline points="0,125.0 2000,125.0 " 
style="fill:none;stroke:black;stroke-width:2" /><polyline points="0,2125.0 2000,2125.0 " 
style="fill:none;stroke:black;stroke-width:2" /><polyline points="0,525.0 1500,525.0 " 
style="fill:none;stroke:black;stroke-width:2" /><polyline points="0,925.0 1500,925.0 " 
style="fill:none;stroke:black;stroke-width:2" /><polyline points="0,1325.0 1500,1325.0 " 
style="fill:none;stroke:black;stroke-width:2" /><polyline points="0,1725.0 1500,1725.0 " 
style="fill:none;stroke:black;stroke-width:2" /><text
x="10.0" y="165.0"
text-anchor="left"
style="font-family:Arial;font-size:40"> 
1 </text>
<text
x="70.0" y="165.0"
text-anchor="left"
style="font-family:Arial;font-size:30"> 
&#8729; 1 roll puff pastry </text>
<text
x="70.0" y="195.0"
text-anchor="left"
style="font-family:Arial;font-size:30"> 
&#8729; 4 tsp icing sugar </text>
<polyline points="100.0,369.0 100.0,401.0 400.0,401.0 400.0,369.0" 
style="fill:none;stroke:black;stroke-width:2" /><text
x="420.0" y="425.0"
text-anchor="left"
style="font-family:Arial;font-size:30"> 
3 </text>
<text
x="250.0" y="485.0"
text-anchor="middle"
style="font-family:Arial;font-size:38"> 
GLAZE &amp; BAKE </text>
<text
x="1510.0" y="165.0"
text-anchor="left"
style="font-family:Arial;font-size:40"> 
1 </text>
<text
x="1550.0" y="165.0"
text-anchor="left"
style="font-family:Arial;font-size:30"> 
Place a sheet of baking paper </text>
<text
x="1550.0" y="195.0"
text-anchor="left"
style="font-family:Arial;font-size:30"> 
on the oven tray. Sprinkle </text>
<text
x="1550.0" y="225.0"
text-anchor="left"
style="font-family:Arial;font-size:30"> 
both sides with icing sugar. </text>
<text
x="1550.0" y="255.0"
text-anchor="left"
style="font-family:Arial;font-size:30"> 
Poke small holes with a fork. </text>
<text
x="1550.0" y="285.0"
text-anchor="left"
style="font-family:Arial;font-size:30"> 
Cover with baking paper and </text>
<text
x="1550.0" y="315.0"
text-anchor="left"
style="font-family:Arial;font-size:30"> 
place an upside-down cooling </text>
<text
x="1550.0" y="345.0"
text-anchor="left"
style="font-family:Arial;font-size:30"> 
rack plus some weights on top. </text>
<text
x="1550.0" y="375.0"
text-anchor="left"
style="font-family:Arial;font-size:30"> 
Press the pastry sheets </text>
<text
x="1550.0" y="405.0"
text-anchor="left"
style="font-family:Arial;font-size:30"> 
between oven trays halfway </text>
<text
x="1550.0" y="435.0"
text-anchor="left"
style="font-family:Arial;font-size:30"> 
through cooking? Bake at 200 C </text>
<text
x="1550.0" y="465.0"
text-anchor="left"
style="font-family:Arial;font-size:30"> 
for 25 mins. </text>
<text
x="510.0" y="165.0"
text-anchor="left"
style="font-family:Arial;font-size:40"> 
2 </text>
<text
x="570.0" y="165.0"
text-anchor="left"
style="font-family:Arial;font-size:30"> 
&#8729; 760 ml whole milk </text>
<polyline points="550.0,345.0 570.0,425.0 770.0,425.0 790.0,345.0" 
style="fill:none;stroke:black;stroke-width:2" /><polyline points="786.0,361.0 950.0,361.0" 
style="fill:none;stroke:black;stroke-width:2" /><text
x="750.0" y="485.0"
text-anchor="middle"
style="font-family:Arial;font-size:40"> 
HEAT &amp; MIX </text>
<text
x="1510.0" y="535.0"
text-anchor="left"
style="font-family:Arial;font-size:40"> 
2 </text>
<text
x="1550.0" y="535.0"
text-anchor="left"
style="font-family:Arial;font-size:30"> 
Heat until just about to boil. </text>
<text
x="1550.0" y="565.0"
text-anchor="left"
style="font-family:Arial;font-size:30"> 
Can add more or less milk to </text>
<text
x="1550.0" y="595.0"
text-anchor="left"
style="font-family:Arial;font-size:30"> 
adjust thickness. </text>
<text
x="1010.0" y="165.0"
text-anchor="left"
style="font-family:Arial;font-size:40"> 
3 </text>
<text
x="1070.0" y="165.0"
text-anchor="left"
style="font-family:Arial;font-size:30"> 
&#8729; 220 g caster sugar </text>
<text
x="1070.0" y="195.0"
text-anchor="left"
style="font-family:Arial;font-size:30"> 
&#8729; 8 egg yolks </text>
<polyline points="1125.0,345.0 1155.0,425.0 1345.0,425.0 1375.0,345.0" 
style="fill:none;stroke:black;stroke-width:2" /><text
x="1410.0" y="425.0"
text-anchor="left"
style="font-family:Arial;font-size:30"> 
A </text>
<text
x="1250.0" y="485.0"
text-anchor="middle"
style="font-family:Arial;font-size:40"> 
H-WHISK </text>
<text
x="10.0" y="565.0"
text-anchor="left"
style="font-family:Arial;font-size:40"> 
4 </text>
<text
x="70.0" y="565.0"
text-anchor="left"
style="font-family:Arial;font-size:30"> 
&#8729; 100 g cornflour </text>
<polyline points="125.0,745.0 155.0,825.0 345.0,825.0 375.0,745.0" 
style="fill:none;stroke:black;stroke-width:2" /><text
x="410.0" y="825.0"
text-anchor="left"
style="font-family:Arial;font-size:30"> 
A </text>
<text
x="250.0" y="885.0"
text-anchor="middle"
style="font-family:Arial;font-size:38"> 
SIFT &amp; H-WHISK </text>
<text
x="510.0" y="565.0"
text-anchor="left"
style="font-family:Arial;font-size:40"> 
5 </text>
<text
x="570.0" y="565.0"
text-anchor="left"
style="font-family:Arial;font-size:30"> 
&#8729; 1/2 saucepan contents </text>
<polyline points="625.0,745.0 655.0,825.0 845.0,825.0 875.0,745.0" 
style="fill:none;stroke:black;stroke-width:2" /><text
x="910.0" y="825.0"
text-anchor="left"
style="font-family:Arial;font-size:30"> 
A </text>
<text
x="750.0" y="885.0"
text-anchor="middle"
style="font-family:Arial;font-size:40"> 
H-WHISK </text>
<text
x="1010.0" y="565.0"
text-anchor="left"
style="font-family:Arial;font-size:40"> 
6 </text>
<text
x="1070.0" y="565.0"
text-anchor="left"
style="font-family:Arial;font-size:30"> 
&#8729; mixing bowl A contents </text>
<polyline points="1050.0,745.0 1070.0,825.0 1270.0,825.0 1290.0,745.0" 
style="fill:none;stroke:black;stroke-width:2" /><polyline points="1286.0,761.0 1450.0,761.0" 
style="fill:none;stroke:black;stroke-width:2" /><text
x="1250.0" y="885.0"
text-anchor="middle"
style="font-family:Arial;font-size:38"> 
HEAT &amp; H-WHISK </text>
<text
x="1510.0" y="665.0"
text-anchor="left"
style="font-family:Arial;font-size:40"> 
6 </text>
<text
x="1550.0" y="665.0"
text-anchor="left"
style="font-family:Arial;font-size:30"> 
Whisk over a gentle heat until </text>
<text
x="1550.0" y="695.0"
text-anchor="left"
style="font-family:Arial;font-size:30"> 
the mixture thickens </text>
<text
x="1550.0" y="725.0"
text-anchor="left"
style="font-family:Arial;font-size:30"> 
substantially. </text>
<text
x="10.0" y="965.0"
text-anchor="left"
style="font-family:Arial;font-size:40"> 
7 </text>
<text
x="70.0" y="965.0"
text-anchor="left"
style="font-family:Arial;font-size:30"> 
&#8729; saucepan contents </text>
<text
x="70.0" y="995.0"
text-anchor="left"
style="font-family:Arial;font-size:30"> 
&#8729; 3 tsp vanilla paste </text>
<polyline points="125.0,1145.0 155.0,1225.0 345.0,1225.0 375.0,1145.0" 
style="fill:none;stroke:black;stroke-width:2" /><text
x="410.0" y="1225.0"
text-anchor="left"
style="font-family:Arial;font-size:30"> 
B </text>
<text
x="250.0" y="1285.0"
text-anchor="middle"
style="font-family:Arial;font-size:40"> 
MIX &amp; COOL </text>
<text
x="1510.0" y="795.0"
text-anchor="left"
style="font-family:Arial;font-size:40"> 
7 </text>
<text
x="1550.0" y="795.0"
text-anchor="left"
style="font-family:Arial;font-size:30"> 
Only allow to cool slightly. </text>
<text
x="510.0" y="965.0"
text-anchor="left"
style="font-family:Arial;font-size:40"> 
8 </text>
<text
x="570.0" y="965.0"
text-anchor="left"
style="font-family:Arial;font-size:30"> 
&#8729; 200 g unsalted butter </text>
<text
x="590.0" y="995.0"
text-anchor="left"
style="font-family:Arial;font-size:30"> 
(diced) </text>
<polyline points="625.0,1145.0 655.0,1225.0 845.0,1225.0 875.0,1145.0" 
style="fill:none;stroke:black;stroke-width:2" /><text
x="910.0" y="1225.0"
text-anchor="left"
style="font-family:Arial;font-size:30"> 
B </text>
<text
x="750.0" y="1285.0"
text-anchor="middle"
style="font-family:Arial;font-size:38"> 
E-WHISK &amp; COOL </text>
<text
x="1510.0" y="865.0"
text-anchor="left"
style="font-family:Arial;font-size:40"> 
8 </text>
<text
x="1550.0" y="865.0"
text-anchor="left"
style="font-family:Arial;font-size:30"> 
Add the butter gradually. Once </text>
<text
x="1550.0" y="895.0"
text-anchor="left"
style="font-family:Arial;font-size:30"> 
incorporated, cover with cling </text>
<text
x="1550.0" y="925.0"
text-anchor="left"
style="font-family:Arial;font-size:30"> 
film and allow to cool to room </text>
<text
x="1550.0" y="955.0"
text-anchor="left"
style="font-family:Arial;font-size:30"> 
temperature. </text>
<text
x="1010.0" y="965.0"
text-anchor="left"
style="font-family:Arial;font-size:40"> 
9 </text>
<text
x="1070.0" y="965.0"
text-anchor="left"
style="font-family:Arial;font-size:30"> 
&#8729; 200 g unsalted butter </text>
<text
x="1090.0" y="995.0"
text-anchor="left"
style="font-family:Arial;font-size:30"> 
(diced) </text>
<polyline points="1125.0,1145.0 1155.0,1225.0 1345.0,1225.0 1375.0,1145.0" 
style="fill:none;stroke:black;stroke-width:2" /><text
x="1410.0" y="1225.0"
text-anchor="left"
style="font-family:Arial;font-size:30"> 
B </text>
<text
x="1250.0" y="1285.0"
text-anchor="middle"
style="font-family:Arial;font-size:40"> 
E-WHISK </text>
<text
x="10.0" y="1365.0"
text-anchor="left"
style="font-family:Arial;font-size:40"> 
10 </text>
<text
x="70.0" y="1365.0"
text-anchor="left"
style="font-family:Arial;font-size:30"> 
&#8729; 3 puff pastry sheets </text>
<text
x="90.0" y="1395.0"
text-anchor="left"
style="font-family:Arial;font-size:30"> 
(cooled) </text>
<text
x="70.0" y="1425.0"
text-anchor="left"
style="font-family:Arial;font-size:30"> 
&#8729; mixing bowl B contents </text>
<polyline points="100.0,1569.0 100.0,1601.0 400.0,1601.0 400.0,1569.0" 
style="fill:none;stroke:black;stroke-width:2" /><text
x="250.0" y="1685.0"
text-anchor="middle"
style="font-family:Arial;font-size:40"> 
ASSEMBLE </text>
<text
x="1510.0" y="1025.0"
text-anchor="left"
style="font-family:Arial;font-size:40"> 
10 </text>
<text
x="1570.0" y="1025.0"
text-anchor="left"
style="font-family:Arial;font-size:30"> 
Assemble in the order: </text>
<text
x="1570.0" y="1055.0"
text-anchor="left"
style="font-family:Arial;font-size:30"> 
pastry, cream, pastry, </text>
<text
x="1570.0" y="1085.0"
text-anchor="left"
style="font-family:Arial;font-size:30"> 
cream, pastry. Use a palette </text>
<text
x="1570.0" y="1115.0"
text-anchor="left"
style="font-family:Arial;font-size:30"> 
knife and tupperware lid to </text>
<text
x="1570.0" y="1145.0"
text-anchor="left"
style="font-family:Arial;font-size:30"> 
spread the cream uniformly </text>
<text
x="1570.0" y="1175.0"
text-anchor="left"
style="font-family:Arial;font-size:30"> 
up to the edges. </text>
<text
x="510.0" y="1365.0"
text-anchor="left"
style="font-family:Arial;font-size:40"> 
11 </text>
<text
x="570.0" y="1365.0"
text-anchor="left"
style="font-family:Arial;font-size:30"> 
&#8729; 3 tbsp icing sugar </text>
<text
x="570.0" y="1395.0"
text-anchor="left"
style="font-family:Arial;font-size:30"> 
&#8729; 1 tbsp cocoa powder </text>
<text
x="570.0" y="1425.0"
text-anchor="left"
style="font-family:Arial;font-size:30"> 
&#8729; 1 tbsp egg white </text>
<polyline points="625.0,1545.0 655.0,1625.0 845.0,1625.0 875.0,1545.0" 
style="fill:none;stroke:black;stroke-width:2" /><text
x="910.0" y="1625.0"
text-anchor="left"
style="font-family:Arial;font-size:30"> 
C </text>
<text
x="750.0" y="1685.0"
text-anchor="middle"
style="font-family:Arial;font-size:40"> 
MIX </text>
<text
x="1510.0" y="1245.0"
text-anchor="left"
style="font-family:Arial;font-size:40"> 
11 </text>
<text
x="1570.0" y="1245.0"
text-anchor="left"
style="font-family:Arial;font-size:30"> 
Add the egg white gradually. </text>
<text
x="1570.0" y="1275.0"
text-anchor="left"
style="font-family:Arial;font-size:30"> 
It may not be necessary to </text>
<text
x="1570.0" y="1305.0"
text-anchor="left"
style="font-family:Arial;font-size:30"> 
use it all. The mixture </text>
<text
x="1570.0" y="1335.0"
text-anchor="left"
style="font-family:Arial;font-size:30"> 
obtained should be very </text>
<text
x="1570.0" y="1365.0"
text-anchor="left"
style="font-family:Arial;font-size:30"> 
viscous. </text>
<text
x="1010.0" y="1365.0"
text-anchor="left"
style="font-family:Arial;font-size:40"> 
12 </text>
<text
x="1070.0" y="1365.0"
text-anchor="left"
style="font-family:Arial;font-size:30"> 
&#8729; 260 g icing sugar </text>
<polyline points="1125.0,1545.0 1155.0,1625.0 1345.0,1625.0 1375.0,1545.0" 
style="fill:none;stroke:black;stroke-width:2" /><text
x="1410.0" y="1625.0"
text-anchor="left"
style="font-family:Arial;font-size:30"> 
D </text>
<text
x="1250.0" y="1685.0"
text-anchor="middle"
style="font-family:Arial;font-size:40"> 
SIFT  </text>
<text
x="10.0" y="1765.0"
text-anchor="left"
style="font-family:Arial;font-size:40"> 
13 </text>
<text
x="70.0" y="1765.0"
text-anchor="left"
style="font-family:Arial;font-size:30"> 
&#8729; 1 egg white </text>
<text
x="70.0" y="1795.0"
text-anchor="left"
style="font-family:Arial;font-size:30"> 
&#8729; 1 tsp lemon juice </text>
<polyline points="125.0,1945.0 155.0,2025.0 345.0,2025.0 375.0,1945.0" 
style="fill:none;stroke:black;stroke-width:2" /><text
x="410.0" y="2025.0"
text-anchor="left"
style="font-family:Arial;font-size:30"> 
D </text>
<text
x="250.0" y="2085.0"
text-anchor="middle"
style="font-family:Arial;font-size:40"> 
MIX </text>
<text
x="1510.0" y="1435.0"
text-anchor="left"
style="font-family:Arial;font-size:40"> 
13 </text>
<text
x="1570.0" y="1435.0"
text-anchor="left"
style="font-family:Arial;font-size:30"> 
Add the egg white gradually. </text>
<text
x="1570.0" y="1465.0"
text-anchor="left"
style="font-family:Arial;font-size:30"> 
It may not be necessary to </text>
<text
x="1570.0" y="1495.0"
text-anchor="left"
style="font-family:Arial;font-size:30"> 
use it all. The mixture </text>
<text
x="1570.0" y="1525.0"
text-anchor="left"
style="font-family:Arial;font-size:30"> 
obtained should be very </text>
<text
x="1570.0" y="1555.0"
text-anchor="left"
style="font-family:Arial;font-size:30"> 
viscous. </text>
<text
x="510.0" y="1765.0"
text-anchor="left"
style="font-family:Arial;font-size:40"> 
14 </text>
<text
x="570.0" y="1765.0"
text-anchor="left"
style="font-family:Arial;font-size:30"> 
&#8729; mixing bowl D contents </text>
<polyline points="600.0,1969.0 600.0,2001.0 900.0,2001.0 900.0,1969.0" 
style="fill:none;stroke:black;stroke-width:2" /><text
x="920.0" y="2025.0"
text-anchor="left"
style="font-family:Arial;font-size:30"> 
B </text>
<text
x="750.0" y="2085.0"
text-anchor="middle"
style="font-family:Arial;font-size:38"> 
POUR &amp; SPREAD </text>
<text
x="1010.0" y="1765.0"
text-anchor="left"
style="font-family:Arial;font-size:40"> 
15 </text>
<text
x="1070.0" y="1765.0"
text-anchor="left"
style="font-family:Arial;font-size:30"> 
&#8729; mixing bowl C contents </text>
<polyline points="1100.0,1969.0 1100.0,2001.0 1400.0,2001.0 1400.0,1969.0" 
style="fill:none;stroke:black;stroke-width:2" /><text
x="1420.0" y="2025.0"
text-anchor="left"
style="font-family:Arial;font-size:30"> 
B </text>
<text
x="1250.0" y="2085.0"
text-anchor="middle"
style="font-family:Arial;font-size:35"> 
DECORATE &amp; REFRIGERATE </text>
<text
x="1510.0" y="1625.0"
text-anchor="left"
style="font-family:Arial;font-size:40"> 
15 </text>
<text
x="1570.0" y="1625.0"
text-anchor="left"
style="font-family:Arial;font-size:30"> 
This must be done before the </text>
<text
x="1570.0" y="1655.0"
text-anchor="left"
style="font-family:Arial;font-size:30"> 
icing sets. The chocolate </text>
<text
x="1570.0" y="1685.0"
text-anchor="left"
style="font-family:Arial;font-size:30"> 
mixture can be put into a </text>
<text
x="1570.0" y="1715.0"
text-anchor="left"
style="font-family:Arial;font-size:30"> 
sauce dispenser for accuracy </text>
<text
x="1570.0" y="1745.0"
text-anchor="left"
style="font-family:Arial;font-size:30"> 
in the decoration. </text>
<text
x="1570.0" y="1775.0"
text-anchor="left"
style="font-family:Arial;font-size:30"> 
Alternatively put the </text>
<text
x="1570.0" y="1805.0"
text-anchor="left"
style="font-family:Arial;font-size:30"> 
chocolate mixture into a </text>
<text
x="1570.0" y="1835.0"
text-anchor="left"
style="font-family:Arial;font-size:30"> 
piping bag. attached to a </text>
<text
x="1570.0" y="1865.0"
text-anchor="left"
style="font-family:Arial;font-size:30"> 
small nozzle. </text>
</svg>