<?xml version="1.0" encoding="UTF-8"?>
<svg xmlns="http://www.w3.org/2000/svg" width="2000" height="2925.0">
<text x="40.0" y="88.0" font-size="80">
Opera Cake<tspan font-size="40">&#160;&#160;by Home Cooking Adventure</tspan></text>
<polyline points="0,0 0,2925.0 " 
style="fill:none;stroke:black;stroke-width:2" /><polyline points="2000,0 2000,2925.0 " 
style="fill:none;stroke:black;stroke-width:2" /><polyline points="500,125.0 500,2925.0 " 
style="fill:none;stroke:black;stroke-width:2" /><polyline points="1000,125.0 1000,2925.0 " 
style="fill:none;stroke:black;stroke-width:2" /><polyline points="1500,125.0 1500,2925.0 " 
style="fill:none;stroke:black;stroke-width:2" /><polyline points="0,0 2000,0 " 
style="fill:none;stroke:black;stroke-width:2" /><polyline points="0,125.0 2000,125.0 " 
style="fill:none;stroke:black;stroke-width:2" /><polyline points="0,2925.0 2000,2925.0 " 
style="fill:none;stroke:black;stroke-width:2" /><polyline points="0,525.0 1500,525.0 " 
style="fill:none;stroke:black;stroke-width:2" /><polyline points="0,925.0 1500,925.0 " 
style="fill:none;stroke:black;stroke-width:2" /><polyline points="0,1325.0 1500,1325.0 " 
style="fill:none;stroke:black;stroke-width:2" /><polyline points="0,1725.0 1500,1725.0 " 
style="fill:none;stroke:black;stroke-width:2" /><polyline points="0,2125.0 1500,2125.0 " 
style="fill:none;stroke:black;stroke-width:2" /><polyline points="0,2525.0 1500,2525.0 " 
style="fill:none;stroke:black;stroke-width:2" /><text
x="10.0" y="165.0"
text-anchor="left"
style="font-family:Arial;font-size:40"> 
1 </text>
<text
x="70.0" y="165.0"
text-anchor="left"
style="font-family:Arial;font-size:30"> 
&#8729; 140 g ground almonds </text>
<text
x="70.0" y="195.0"
text-anchor="left"
style="font-family:Arial;font-size:30"> 
&#8729; 140 g icing sugar </text>
<polyline points="125.0,345.0 155.0,425.0 345.0,425.0 375.0,345.0" 
style="fill:none;stroke:black;stroke-width:2" /><text
x="410.0" y="425.0"
text-anchor="left"
style="font-family:Arial;font-size:30"> 
A </text>
<text
x="250.0" y="485.0"
text-anchor="middle"
style="font-family:Arial;font-size:40"> 
SIFT </text>
<text
x="510.0" y="165.0"
text-anchor="left"
style="font-family:Arial;font-size:40"> 
2 </text>
<text
x="570.0" y="165.0"
text-anchor="left"
style="font-family:Arial;font-size:30"> 
&#8729; 5 eggs </text>
<polyline points="625.0,345.0 655.0,425.0 845.0,425.0 875.0,345.0" 
style="fill:none;stroke:black;stroke-width:2" /><text
x="910.0" y="425.0"
text-anchor="left"
style="font-family:Arial;font-size:30"> 
A </text>
<text
x="750.0" y="485.0"
text-anchor="middle"
style="font-family:Arial;font-size:40"> 
WHISK </text>
<text
x="1010.0" y="165.0"
text-anchor="left"
style="font-family:Arial;font-size:40"> 
3 </text>
<text
x="1070.0" y="165.0"
text-anchor="left"
style="font-family:Arial;font-size:30"> 
&#8729; 30 g plain flour </text>
<polyline points="1125.0,345.0 1155.0,425.0 1345.0,425.0 1375.0,345.0" 
style="fill:none;stroke:black;stroke-width:2" /><text
x="1410.0" y="425.0"
text-anchor="left"
style="font-family:Arial;font-size:30"> 
A </text>
<text
x="1250.0" y="485.0"
text-anchor="middle"
style="font-family:Arial;font-size:40"> 
FOLD </text>
<text
x="10.0" y="565.0"
text-anchor="left"
style="font-family:Arial;font-size:40"> 
4 </text>
<text
x="70.0" y="565.0"
text-anchor="left"
style="font-family:Arial;font-size:30"> 
&#8729; 5 egg whites </text>
<text
x="70.0" y="595.0"
text-anchor="left"
style="font-family:Arial;font-size:30"> 
&#8729; 1/4 tsp salt </text>
<text
x="70.0" y="625.0"
text-anchor="left"
style="font-family:Arial;font-size:30"> 
&#8729; 30 g caster sugar </text>
<polyline points="125.0,745.0 155.0,825.0 345.0,825.0 375.0,745.0" 
style="fill:none;stroke:black;stroke-width:2" /><text
x="410.0" y="825.0"
text-anchor="left"
style="font-family:Arial;font-size:30"> 
B </text>
<text
x="250.0" y="885.0"
text-anchor="middle"
style="font-family:Arial;font-size:40"> 
WHISK </text>
<text
x="510.0" y="565.0"
text-anchor="left"
style="font-family:Arial;font-size:40"> 
5 </text>
<text
x="570.0" y="565.0"
text-anchor="left"
style="font-family:Arial;font-size:30"> 
&#8729; mixing bowl B contents </text>
<polyline points="625.0,745.0 655.0,825.0 845.0,825.0 875.0,745.0" 
style="fill:none;stroke:black;stroke-width:2" /><text
x="910.0" y="825.0"
text-anchor="left"
style="font-family:Arial;font-size:30"> 
A </text>
<text
x="750.0" y="885.0"
text-anchor="middle"
style="font-family:Arial;font-size:40"> 
FOLD </text>
<text
x="1010.0" y="565.0"
text-anchor="left"
style="font-family:Arial;font-size:40"> 
6 </text>
<text
x="1070.0" y="565.0"
text-anchor="left"
style="font-family:Arial;font-size:30"> 
&#8729; 30 g unsalted butter </text>
<text
x="1090.0" y="595.0"
text-anchor="left"
style="font-family:Arial;font-size:30"> 
(melted) </text>
<polyline points="1125.0,745.0 1155.0,825.0 1345.0,825.0 1375.0,745.0" 
style="fill:none;stroke:black;stroke-width:2" /><text
x="1410.0" y="825.0"
text-anchor="left"
style="font-family:Arial;font-size:30"> 
A </text>
<text
x="1250.0" y="885.0"
text-anchor="middle"
style="font-family:Arial;font-size:40"> 
FOLD </text>
<text
x="10.0" y="965.0"
text-anchor="left"
style="font-family:Arial;font-size:40"> 
7 </text>
<text
x="70.0" y="965.0"
text-anchor="left"
style="font-family:Arial;font-size:30"> 
&#8729; mixing bowl A contents </text>
<polyline points="100.0,1169.0 100.0,1201.0 400.0,1201.0 400.0,1169.0" 
style="fill:none;stroke:black;stroke-width:2" /><text
x="420.0" y="1225.0"
text-anchor="left"
style="font-family:Arial;font-size:30"> 
A </text>
<text
x="250.0" y="1285.0"
text-anchor="middle"
style="font-family:Arial;font-size:40"> 
BAKE </text>
<text
x="1510.0" y="165.0"
text-anchor="left"
style="font-family:Arial;font-size:40"> 
7 </text>
<text
x="1550.0" y="165.0"
text-anchor="left"
style="font-family:Arial;font-size:30"> 
Line the bottom of the tray </text>
<text
x="1550.0" y="195.0"
text-anchor="left"
style="font-family:Arial;font-size:30"> 
with baking paper and grease </text>
<text
x="1550.0" y="225.0"
text-anchor="left"
style="font-family:Arial;font-size:30"> 
with small amount of unsalted </text>
<text
x="1550.0" y="255.0"
text-anchor="left"
style="font-family:Arial;font-size:30"> 
butter. </text>
<text
x="510.0" y="965.0"
text-anchor="left"
style="font-family:Arial;font-size:40"> 
8 </text>
<text
x="570.0" y="965.0"
text-anchor="left"
style="font-family:Arial;font-size:30"> 
&#8729; 160 ml water </text>
<text
x="570.0" y="995.0"
text-anchor="left"
style="font-family:Arial;font-size:30"> 
&#8729; 100 g granulated sugar </text>
<text
x="570.0" y="1025.0"
text-anchor="left"
style="font-family:Arial;font-size:30"> 
&#8729; 3 tsp instant coffee </text>
<polyline points="550.0,1145.0 570.0,1225.0 770.0,1225.0 790.0,1145.0" 
style="fill:none;stroke:black;stroke-width:2" /><polyline points="786.0,1161.0 950.0,1161.0" 
style="fill:none;stroke:black;stroke-width:2" /><text
x="800.0" y="1225.0"
text-anchor="left"
style="font-family:Arial;font-size:30"> 
A </text>
<text
x="750.0" y="1285.0"
text-anchor="middle"
style="font-family:Arial;font-size:40"> 
BOIL </text>
<text
x="1010.0" y="965.0"
text-anchor="left"
style="font-family:Arial;font-size:40"> 
9 </text>
<text
x="1070.0" y="965.0"
text-anchor="left"
style="font-family:Arial;font-size:30"> 
&#8729; 70 g dark chocolate </text>
<text
x="1070.0" y="995.0"
text-anchor="left"
style="font-family:Arial;font-size:30"> 
&#8729; 70 g paillete feuilletine </text>
<polyline points="1125.0,1145.0 1155.0,1225.0 1345.0,1225.0 1375.0,1145.0" 
style="fill:none;stroke:black;stroke-width:2" /><text
x="1410.0" y="1225.0"
text-anchor="left"
style="font-family:Arial;font-size:30"> 
C </text>
<text
x="1250.0" y="1285.0"
text-anchor="middle"
style="font-family:Arial;font-size:40"> 
MELT &amp; MIX </text>
<text
x="1510.0" y="325.0"
text-anchor="left"
style="font-family:Arial;font-size:40"> 
9 </text>
<text
x="1550.0" y="325.0"
text-anchor="left"
style="font-family:Arial;font-size:30"> 
Ensure that the cruncy pieces </text>
<text
x="1550.0" y="355.0"
text-anchor="left"
style="font-family:Arial;font-size:30"> 
are not too large. </text>
<text
x="10.0" y="1365.0"
text-anchor="left"
style="font-family:Arial;font-size:40"> 
10 </text>
<text
x="70.0" y="1365.0"
text-anchor="left"
style="font-family:Arial;font-size:30"> 
&#8729; mixing bowl C </text>
<text
x="70.0" y="1395.0"
text-anchor="left"
style="font-family:Arial;font-size:30"> 
&#8729; 1 cake layer (cooled) </text>
<polyline points="100.0,1569.0 100.0,1601.0 400.0,1601.0 400.0,1569.0" 
style="fill:none;stroke:black;stroke-width:2" /><text
x="420.0" y="1625.0"
text-anchor="left"
style="font-family:Arial;font-size:30"> 
B </text>
<text
x="250.0" y="1685.0"
text-anchor="middle"
style="font-family:Arial;font-size:35"> 
SPREAD &amp; REFRIGERATE </text>
<text
x="1510.0" y="425.0"
text-anchor="left"
style="font-family:Arial;font-size:40"> 
10 </text>
<text
x="1570.0" y="425.0"
text-anchor="left"
style="font-family:Arial;font-size:30"> 
Line the bottom of the tray </text>
<text
x="1570.0" y="455.0"
text-anchor="left"
style="font-family:Arial;font-size:30"> 
with baking paper. </text>
<text
x="510.0" y="1365.0"
text-anchor="left"
style="font-family:Arial;font-size:40"> 
11 </text>
<text
x="570.0" y="1365.0"
text-anchor="left"
style="font-family:Arial;font-size:30"> 
&#8729; 160 g whipping cream </text>
<polyline points="625.0,1545.0 655.0,1625.0 845.0,1625.0 875.0,1545.0" 
style="fill:none;stroke:black;stroke-width:2" /><text
x="910.0" y="1625.0"
text-anchor="left"
style="font-family:Arial;font-size:30"> 
D </text>
<text
x="750.0" y="1685.0"
text-anchor="middle"
style="font-family:Arial;font-size:40"> 
BOIL </text>
<text
x="1010.0" y="1365.0"
text-anchor="left"
style="font-family:Arial;font-size:40"> 
12 </text>
<text
x="1070.0" y="1365.0"
text-anchor="left"
style="font-family:Arial;font-size:30"> 
&#8729; 160 g dark chocolate </text>
<text
x="1090.0" y="1395.0"
text-anchor="left"
style="font-family:Arial;font-size:30"> 
(diced) </text>
<polyline points="1125.0,1545.0 1155.0,1625.0 1345.0,1625.0 1375.0,1545.0" 
style="fill:none;stroke:black;stroke-width:2" /><text
x="1410.0" y="1625.0"
text-anchor="left"
style="font-family:Arial;font-size:30"> 
D </text>
<text
x="1250.0" y="1685.0"
text-anchor="middle"
style="font-family:Arial;font-size:40"> 
MELT &amp; MIX </text>
<text
x="10.0" y="1765.0"
text-anchor="left"
style="font-family:Arial;font-size:40"> 
13 </text>
<text
x="70.0" y="1765.0"
text-anchor="left"
style="font-family:Arial;font-size:30"> 
&#8729; 5 egg yolks </text>
<polyline points="125.0,1945.0 155.0,2025.0 345.0,2025.0 375.0,1945.0" 
style="fill:none;stroke:black;stroke-width:2" /><text
x="410.0" y="2025.0"
text-anchor="left"
style="font-family:Arial;font-size:30"> 
E </text>
<text
x="250.0" y="2085.0"
text-anchor="middle"
style="font-family:Arial;font-size:40"> 
WHISK </text>
<text
x="510.0" y="1765.0"
text-anchor="left"
style="font-family:Arial;font-size:40"> 
14 </text>
<text
x="570.0" y="1765.0"
text-anchor="left"
style="font-family:Arial;font-size:30"> 
&#8729; 150 g granulated sugar </text>
<text
x="570.0" y="1795.0"
text-anchor="left"
style="font-family:Arial;font-size:30"> 
&#8729; 45 ml water </text>
<text
x="570.0" y="1825.0"
text-anchor="left"
style="font-family:Arial;font-size:30"> 
&#8729; 2 tsp instant coffee </text>
<polyline points="550.0,1945.0 570.0,2025.0 770.0,2025.0 790.0,1945.0" 
style="fill:none;stroke:black;stroke-width:2" /><polyline points="786.0,1961.0 950.0,1961.0" 
style="fill:none;stroke:black;stroke-width:2" /><text
x="800.0" y="2025.0"
text-anchor="left"
style="font-family:Arial;font-size:30"> 
B </text>
<text
x="750.0" y="2085.0"
text-anchor="middle"
style="font-family:Arial;font-size:40"> 
BOIL </text>
<text
x="1010.0" y="1765.0"
text-anchor="left"
style="font-family:Arial;font-size:40"> 
15 </text>
<text
x="1070.0" y="1765.0"
text-anchor="left"
style="font-family:Arial;font-size:30"> 
&#8729; saucepan B </text>
<polyline points="1125.0,1945.0 1155.0,2025.0 1345.0,2025.0 1375.0,1945.0" 
style="fill:none;stroke:black;stroke-width:2" /><text
x="1410.0" y="2025.0"
text-anchor="left"
style="font-family:Arial;font-size:30"> 
E </text>
<text
x="1250.0" y="2085.0"
text-anchor="middle"
style="font-family:Arial;font-size:40"> 
WHISK </text>
<text
x="10.0" y="2165.0"
text-anchor="left"
style="font-family:Arial;font-size:40"> 
16 </text>
<text
x="70.0" y="2165.0"
text-anchor="left"
style="font-family:Arial;font-size:30"> 
&#8729; 280 g unsalted butter </text>
<polyline points="125.0,2345.0 155.0,2425.0 345.0,2425.0 375.0,2345.0" 
style="fill:none;stroke:black;stroke-width:2" /><text
x="410.0" y="2425.0"
text-anchor="left"
style="font-family:Arial;font-size:30"> 
E </text>
<text
x="250.0" y="2485.0"
text-anchor="middle"
style="font-family:Arial;font-size:40"> 
WHISK </text>
<text
x="510.0" y="2165.0"
text-anchor="left"
style="font-family:Arial;font-size:40"> 
17 </text>
<text
x="570.0" y="2165.0"
text-anchor="left"
style="font-family:Arial;font-size:30"> 
&#8729; cake layers (cooled) </text>
<text
x="570.0" y="2195.0"
text-anchor="left"
style="font-family:Arial;font-size:30"> 
&#8729; saucepan A </text>
<text
x="570.0" y="2225.0"
text-anchor="left"
style="font-family:Arial;font-size:30"> 
&#8729; mixing bowl D </text>
<text
x="570.0" y="2255.0"
text-anchor="left"
style="font-family:Arial;font-size:30"> 
&#8729; mixing bowl E </text>
<polyline points="600.0,2369.0 600.0,2401.0 900.0,2401.0 900.0,2369.0" 
style="fill:none;stroke:black;stroke-width:2" /><text
x="920.0" y="2425.0"
text-anchor="left"
style="font-family:Arial;font-size:30"> 
B </text>
<text
x="750.0" y="2485.0"
text-anchor="middle"
style="font-family:Arial;font-size:35"> 
ASSEMBLE &amp; REFRIGERATE </text>
<text
x="1510.0" y="525.0"
text-anchor="left"
style="font-family:Arial;font-size:40"> 
17 </text>
<text
x="1570.0" y="525.0"
text-anchor="left"
style="font-family:Arial;font-size:30"> 
Assemble layers in the </text>
<text
x="1570.0" y="555.0"
text-anchor="left"
style="font-family:Arial;font-size:30"> 
order: crunchy base, sponge, </text>
<text
x="1570.0" y="585.0"
text-anchor="left"
style="font-family:Arial;font-size:30"> 
coffee syrup, coffee </text>
<text
x="1570.0" y="615.0"
text-anchor="left"
style="font-family:Arial;font-size:30"> 
buttercream, sponge, coffee </text>
<text
x="1570.0" y="645.0"
text-anchor="left"
style="font-family:Arial;font-size:30"> 
syrup, chocolate ganache, </text>
<text
x="1570.0" y="675.0"
text-anchor="left"
style="font-family:Arial;font-size:30"> 
sponge, coffee syrup, coffee </text>
<text
x="1570.0" y="705.0"
text-anchor="left"
style="font-family:Arial;font-size:30"> 
buttercream. </text>
<text
x="1010.0" y="2165.0"
text-anchor="left"
style="font-family:Arial;font-size:40"> 
18 </text>
<text
x="1070.0" y="2165.0"
text-anchor="left"
style="font-family:Arial;font-size:30"> 
&#8729; 200 g dark chocolate </text>
<text
x="1070.0" y="2195.0"
text-anchor="left"
style="font-family:Arial;font-size:30"> 
&#8729; 2 tbsp canola oil </text>
<polyline points="1125.0,2345.0 1155.0,2425.0 1345.0,2425.0 1375.0,2345.0" 
style="fill:none;stroke:black;stroke-width:2" /><text
x="1410.0" y="2425.0"
text-anchor="left"
style="font-family:Arial;font-size:30"> 
F </text>
<text
x="1250.0" y="2485.0"
text-anchor="middle"
style="font-family:Arial;font-size:40"> 
MELT &amp; MIX </text>
<text
x="10.0" y="2565.0"
text-anchor="left"
style="font-family:Arial;font-size:40"> 
19 </text>
<text
x="70.0" y="2565.0"
text-anchor="left"
style="font-family:Arial;font-size:30"> 
&#8729; mixing bowl F </text>
<polyline points="100.0,2769.0 100.0,2801.0 400.0,2801.0 400.0,2769.0" 
style="fill:none;stroke:black;stroke-width:2" /><text
x="420.0" y="2825.0"
text-anchor="left"
style="font-family:Arial;font-size:30"> 
B </text>
<text
x="250.0" y="2885.0"
text-anchor="middle"
style="font-family:Arial;font-size:35"> 
POUR &amp; REFRIGERATE </text>
<text
x="510.0" y="2565.0"
text-anchor="left"
style="font-family:Arial;font-size:40"> 
20 </text>
<text
x="570.0" y="2565.0"
text-anchor="left"
style="font-family:Arial;font-size:30"> 
&#8729; baking tray </text>
<polyline points="600.0,2769.0 650.0,2801.0 850.0,2801.0 900.0,2769.0" 
style="fill:none;stroke:black;stroke-width:2" /><text
x="750.0" y="2885.0"
text-anchor="middle"
style="font-family:Arial;font-size:40"> 
CUT &amp; SERVE </text>
</svg>