<?xml version="1.0" encoding="UTF-8"?>
<svg xmlns="http://www.w3.org/2000/svg" width="2000" height="1325.0">
<text x="40.0" y="88.0" font-size="80">
Apple Pie<tspan font-size="40">&#160;&#160;by Tasty</tspan></text>
<polyline points="0,0 0,1325.0 " 
style="fill:none;stroke:black;stroke-width:2" /><polyline points="2000,0 2000,1325.0 " 
style="fill:none;stroke:black;stroke-width:2" /><polyline points="500,125.0 500,1325.0 " 
style="fill:none;stroke:black;stroke-width:2" /><polyline points="1000,125.0 1000,1325.0 " 
style="fill:none;stroke:black;stroke-width:2" /><polyline points="1500,125.0 1500,1325.0 " 
style="fill:none;stroke:black;stroke-width:2" /><polyline points="0,0 2000,0 " 
style="fill:none;stroke:black;stroke-width:2" /><polyline points="0,125.0 2000,125.0 " 
style="fill:none;stroke:black;stroke-width:2" /><polyline points="0,1325.0 2000,1325.0 " 
style="fill:none;stroke:black;stroke-width:2" /><polyline points="0,525.0 1500,525.0 " 
style="fill:none;stroke:black;stroke-width:2" /><polyline points="0,925.0 1500,925.0 " 
style="fill:none;stroke:black;stroke-width:2" /><text
x="10.0" y="165.0"
text-anchor="left"
style="font-family:Arial;font-size:40"> 
1 </text>
<text
x="70.0" y="165.0"
text-anchor="left"
style="font-family:Arial;font-size:30"> 
&#8729; 355 g plain flour </text>
<text
x="70.0" y="195.0"
text-anchor="left"
style="font-family:Arial;font-size:30"> 
&#8729; 1/2 tsp salt </text>
<text
x="70.0" y="225.0"
text-anchor="left"
style="font-family:Arial;font-size:30"> 
&#8729; 2 tbsp sugar </text>
<polyline points="125.0,345.0 155.0,425.0 345.0,425.0 375.0,345.0" 
style="fill:none;stroke:black;stroke-width:2" /><text
x="410.0" y="425.0"
text-anchor="left"
style="font-family:Arial;font-size:30"> 
A </text>
<text
x="250.0" y="485.0"
text-anchor="middle"
style="font-family:Arial;font-size:40"> 
MIX </text>
<text
x="510.0" y="165.0"
text-anchor="left"
style="font-family:Arial;font-size:40"> 
2 </text>
<text
x="570.0" y="165.0"
text-anchor="left"
style="font-family:Arial;font-size:30"> 
&#8729; 220 g unsalted butter </text>
<text
x="590.0" y="195.0"
text-anchor="left"
style="font-family:Arial;font-size:30"> 
(cold) </text>
<polyline points="625.0,345.0 655.0,425.0 845.0,425.0 875.0,345.0" 
style="fill:none;stroke:black;stroke-width:2" /><text
x="910.0" y="425.0"
text-anchor="left"
style="font-family:Arial;font-size:30"> 
A </text>
<text
x="750.0" y="485.0"
text-anchor="middle"
style="font-family:Arial;font-size:40"> 
MIX </text>
<text
x="1510.0" y="165.0"
text-anchor="left"
style="font-family:Arial;font-size:40"> 
2 </text>
<text
x="1550.0" y="165.0"
text-anchor="left"
style="font-family:Arial;font-size:30"> 
Press the cold butter into the </text>
<text
x="1550.0" y="195.0"
text-anchor="left"
style="font-family:Arial;font-size:30"> 
flour with a fork. </text>
<text
x="1010.0" y="165.0"
text-anchor="left"
style="font-family:Arial;font-size:40"> 
3 </text>
<text
x="1070.0" y="165.0"
text-anchor="left"
style="font-family:Arial;font-size:30"> 
&#8729; 230 ml water (ice cold) </text>
<polyline points="1125.0,345.0 1155.0,425.0 1345.0,425.0 1375.0,345.0" 
style="fill:none;stroke:black;stroke-width:2" /><text
x="1410.0" y="425.0"
text-anchor="left"
style="font-family:Arial;font-size:30"> 
A </text>
<text
x="1250.0" y="485.0"
text-anchor="middle"
style="font-family:Arial;font-size:40"> 
MIX </text>
<text
x="1510.0" y="265.0"
text-anchor="left"
style="font-family:Arial;font-size:40"> 
3 </text>
<text
x="1550.0" y="265.0"
text-anchor="left"
style="font-family:Arial;font-size:30"> 
It may not be necessary to use </text>
<text
x="1550.0" y="295.0"
text-anchor="left"
style="font-family:Arial;font-size:30"> 
all of the water. Mix by hand </text>
<text
x="1550.0" y="325.0"
text-anchor="left"
style="font-family:Arial;font-size:30"> 
until firm and flaky. </text>
<text
x="10.0" y="565.0"
text-anchor="left"
style="font-family:Arial;font-size:40"> 
4 </text>
<text
x="70.0" y="565.0"
text-anchor="left"
style="font-family:Arial;font-size:30"> 
&#8729; mixing bowl A contents </text>
<text
x="70.0" y="595.0"
text-anchor="left"
style="font-family:Arial;font-size:30"> 
&#8729; cling film </text>
<polyline points="125.0,745.0 155.0,825.0 345.0,825.0 375.0,745.0" 
style="fill:none;stroke:black;stroke-width:2" /><text
x="410.0" y="825.0"
text-anchor="left"
style="font-family:Arial;font-size:30"> 
A </text>
<text
x="250.0" y="885.0"
text-anchor="middle"
style="font-family:Arial;font-size:35"> 
WRAP &amp; REFRIGERATE </text>
<text
x="510.0" y="565.0"
text-anchor="left"
style="font-family:Arial;font-size:40"> 
5 </text>
<text
x="570.0" y="565.0"
text-anchor="left"
style="font-family:Arial;font-size:30"> 
&#8729; 8 Granny Smith apples </text>
<text
x="590.0" y="595.0"
text-anchor="left"
style="font-family:Arial;font-size:30"> 
(sliced) </text>
<text
x="570.0" y="625.0"
text-anchor="left"
style="font-family:Arial;font-size:30"> 
&#8729; 1 tbsp lemon juice </text>
<polyline points="625.0,745.0 655.0,825.0 845.0,825.0 875.0,745.0" 
style="fill:none;stroke:black;stroke-width:2" /><text
x="910.0" y="825.0"
text-anchor="left"
style="font-family:Arial;font-size:30"> 
B </text>
<text
x="750.0" y="885.0"
text-anchor="middle"
style="font-family:Arial;font-size:40"> 
MIX </text>
<text
x="1010.0" y="565.0"
text-anchor="left"
style="font-family:Arial;font-size:40"> 
6 </text>
<text
x="1070.0" y="565.0"
text-anchor="left"
style="font-family:Arial;font-size:30"> 
&#8729; 1/4 tsp cinnamon </text>
<text
x="1070.0" y="595.0"
text-anchor="left"
style="font-family:Arial;font-size:30"> 
&#8729; 1/4 tsp all spice </text>
<text
x="1070.0" y="625.0"
text-anchor="left"
style="font-family:Arial;font-size:30"> 
&#8729; 1/4 tsp nutmeg </text>
<text
x="1070.0" y="655.0"
text-anchor="left"
style="font-family:Arial;font-size:30"> 
&#8729; 1/4 tsp ginger </text>
<polyline points="1125.0,745.0 1155.0,825.0 1345.0,825.0 1375.0,745.0" 
style="fill:none;stroke:black;stroke-width:2" /><text
x="1410.0" y="825.0"
text-anchor="left"
style="font-family:Arial;font-size:30"> 
B </text>
<text
x="1250.0" y="885.0"
text-anchor="middle"
style="font-family:Arial;font-size:40"> 
MIX </text>
<text
x="1510.0" y="395.0"
text-anchor="left"
style="font-family:Arial;font-size:40"> 
6 </text>
<text
x="1550.0" y="395.0"
text-anchor="left"
style="font-family:Arial;font-size:30"> 
Use the spices sparingly as </text>
<text
x="1550.0" y="425.0"
text-anchor="left"
style="font-family:Arial;font-size:30"> 
they should not overpower the </text>
<text
x="1550.0" y="455.0"
text-anchor="left"
style="font-family:Arial;font-size:30"> 
taste of apple. </text>
<text
x="10.0" y="965.0"
text-anchor="left"
style="font-family:Arial;font-size:40"> 
7 </text>
<text
x="70.0" y="965.0"
text-anchor="left"
style="font-family:Arial;font-size:30"> 
&#8729; 100 g sugar </text>
<text
x="70.0" y="995.0"
text-anchor="left"
style="font-family:Arial;font-size:30"> 
&#8729; 2 tbsp plain flour </text>
<polyline points="125.0,1145.0 155.0,1225.0 345.0,1225.0 375.0,1145.0" 
style="fill:none;stroke:black;stroke-width:2" /><text
x="410.0" y="1225.0"
text-anchor="left"
style="font-family:Arial;font-size:30"> 
B </text>
<text
x="250.0" y="1285.0"
text-anchor="middle"
style="font-family:Arial;font-size:40"> 
MIX </text>
<text
x="1510.0" y="525.0"
text-anchor="left"
style="font-family:Arial;font-size:40"> 
7 </text>
<text
x="1550.0" y="525.0"
text-anchor="left"
style="font-family:Arial;font-size:30"> 
Add the sugar then leave for 5 </text>
<text
x="1550.0" y="555.0"
text-anchor="left"
style="font-family:Arial;font-size:30"> 
mins to allow juice to leave </text>
<text
x="1550.0" y="585.0"
text-anchor="left"
style="font-family:Arial;font-size:30"> 
the apples. Mix the flour into </text>
<text
x="1550.0" y="615.0"
text-anchor="left"
style="font-family:Arial;font-size:30"> 
the extracted juice. </text>
<text
x="510.0" y="965.0"
text-anchor="left"
style="font-family:Arial;font-size:40"> 
8 </text>
<text
x="570.0" y="965.0"
text-anchor="left"
style="font-family:Arial;font-size:30"> 
&#8729; dough </text>
<text
x="570.0" y="995.0"
text-anchor="left"
style="font-family:Arial;font-size:30"> 
&#8729; 1 tbsp plain flour </text>
<polyline points="575.0,1177.0 575.0,1193.0 925.0,1193.0 925.0,1177.0 575.0,1177.0" 
style="fill:none;stroke:black;stroke-width:2" /><text
x="750.0" y="1285.0"
text-anchor="middle"
style="font-family:Arial;font-size:40"> 
ROLL </text>
<text
x="1510.0" y="685.0"
text-anchor="left"
style="font-family:Arial;font-size:40"> 
8 </text>
<text
x="1550.0" y="685.0"
text-anchor="left"
style="font-family:Arial;font-size:30"> 
Use half of the dough for the </text>
<text
x="1550.0" y="715.0"
text-anchor="left"
style="font-family:Arial;font-size:30"> 
base and half for the top. </text>
<text
x="1550.0" y="745.0"
text-anchor="left"
style="font-family:Arial;font-size:30"> 
Sprinkle plain flour over the </text>
<text
x="1550.0" y="775.0"
text-anchor="left"
style="font-family:Arial;font-size:30"> 
work surface and dough before </text>
<text
x="1550.0" y="805.0"
text-anchor="left"
style="font-family:Arial;font-size:30"> 
rolling out. </text>
<text
x="1010.0" y="965.0"
text-anchor="left"
style="font-family:Arial;font-size:40"> 
9 </text>
<text
x="1070.0" y="965.0"
text-anchor="left"
style="font-family:Arial;font-size:30"> 
&#8729; dough (rolled) </text>
<text
x="1070.0" y="995.0"
text-anchor="left"
style="font-family:Arial;font-size:30"> 
&#8729; apple mixture </text>
<text
x="1070.0" y="1025.0"
text-anchor="left"
style="font-family:Arial;font-size:30"> 
&#8729; 2 tbsp demerara sugar </text>
<text
x="1070.0" y="1055.0"
text-anchor="left"
style="font-family:Arial;font-size:30"> 
&#8729; 1 tbsp egg wash </text>
<polyline points="1100.0,1169.0 1100.0,1201.0 1400.0,1201.0 1400.0,1169.0" 
style="fill:none;stroke:black;stroke-width:2" /><text
x="1250.0" y="1285.0"
text-anchor="middle"
style="font-family:Arial;font-size:38"> 
ASSEMBLE &amp; BAKE </text>
<text
x="1510.0" y="875.0"
text-anchor="left"
style="font-family:Arial;font-size:40"> 
9 </text>
<text
x="1550.0" y="875.0"
text-anchor="left"
style="font-family:Arial;font-size:30"> 
Pierce the pastry base with a </text>
<text
x="1550.0" y="905.0"
text-anchor="left"
style="font-family:Arial;font-size:30"> 
fork. Lay the apple slices </text>
<text
x="1550.0" y="935.0"
text-anchor="left"
style="font-family:Arial;font-size:30"> 
down flat. Brush the pastry </text>
<text
x="1550.0" y="965.0"
text-anchor="left"
style="font-family:Arial;font-size:30"> 
top with egg wash and sprinkle </text>
<text
x="1550.0" y="995.0"
text-anchor="left"
style="font-family:Arial;font-size:30"> 
with sugar. Preheat the baking </text>
<text
x="1550.0" y="1025.0"
text-anchor="left"
style="font-family:Arial;font-size:30"> 
tray onto which the apple pie </text>
<text
x="1550.0" y="1055.0"
text-anchor="left"
style="font-family:Arial;font-size:30"> 
dish is going. Bake for around </text>
<text
x="1550.0" y="1085.0"
text-anchor="left"
style="font-family:Arial;font-size:30"> 
30 mins at 200 C. </text>
</svg>