<?xml version="1.0" encoding="UTF-8"?>
<svg xmlns="http://www.w3.org/2000/svg" width="2000" height="1325.0">
<text x="40.0" y="88.0" font-size="80">
Cast Iron Pan Pizza<tspan font-size="40">&#160;&#160;by Adam Ragusea</tspan></text>
<polyline points="0,0 0,1325.0 " 
style="fill:none;stroke:black;stroke-width:2" /><polyline points="2000,0 2000,1325.0 " 
style="fill:none;stroke:black;stroke-width:2" /><polyline points="500,125.0 500,1325.0 " 
style="fill:none;stroke:black;stroke-width:2" /><polyline points="1000,125.0 1000,1325.0 " 
style="fill:none;stroke:black;stroke-width:2" /><polyline points="1500,125.0 1500,1325.0 " 
style="fill:none;stroke:black;stroke-width:2" /><polyline points="0,0 2000,0 " 
style="fill:none;stroke:black;stroke-width:2" /><polyline points="0,125.0 2000,125.0 " 
style="fill:none;stroke:black;stroke-width:2" /><polyline points="0,1325.0 2000,1325.0 " 
style="fill:none;stroke:black;stroke-width:2" /><polyline points="0,525.0 1500,525.0 " 
style="fill:none;stroke:black;stroke-width:2" /><polyline points="0,925.0 1500,925.0 " 
style="fill:none;stroke:black;stroke-width:2" /><text
x="10.0" y="165.0"
text-anchor="left"
style="font-family:Arial;font-size:40"> 
1 </text>
<text
x="70.0" y="165.0"
text-anchor="left"
style="font-family:Arial;font-size:30"> 
&#8729; 120 g bread flour </text>
<text
x="70.0" y="195.0"
text-anchor="left"
style="font-family:Arial;font-size:30"> 
&#8729; 1/2 tsp salt </text>
<text
x="70.0" y="225.0"
text-anchor="left"
style="font-family:Arial;font-size:30"> 
&#8729; 1/2 tsp white sugar </text>
<text
x="70.0" y="255.0"
text-anchor="left"
style="font-family:Arial;font-size:30"> 
&#8729; 1/2 tsp dried yeast </text>
<text
x="70.0" y="285.0"
text-anchor="left"
style="font-family:Arial;font-size:30"> 
&#8729; 1/4 tsp garlic powder </text>
<text
x="70.0" y="315.0"
text-anchor="left"
style="font-family:Arial;font-size:30"> 
&#8729; 2 tsp olive oil </text>
<text
x="70.0" y="345.0"
text-anchor="left"
style="font-family:Arial;font-size:30"> 
&#8729; 120 ml milk </text>
<polyline points="125.0,345.0 155.0,425.0 345.0,425.0 375.0,345.0" 
style="fill:none;stroke:black;stroke-width:2" /><text
x="410.0" y="425.0"
text-anchor="left"
style="font-family:Arial;font-size:30"> 
A </text>
<text
x="250.0" y="485.0"
text-anchor="middle"
style="font-family:Arial;font-size:40"> 
MIX &amp; KNEAD </text>
<text
x="1510.0" y="165.0"
text-anchor="left"
style="font-family:Arial;font-size:40"> 
1 </text>
<text
x="1550.0" y="165.0"
text-anchor="left"
style="font-family:Arial;font-size:30"> 
Mix by hand until the dough is </text>
<text
x="1550.0" y="195.0"
text-anchor="left"
style="font-family:Arial;font-size:30"> 
homogeneous and no longer </text>
<text
x="1550.0" y="225.0"
text-anchor="left"
style="font-family:Arial;font-size:30"> 
sticks to hands. Add a dash </text>
<text
x="1550.0" y="255.0"
text-anchor="left"
style="font-family:Arial;font-size:30"> 
more milk or flour as </text>
<text
x="1550.0" y="285.0"
text-anchor="left"
style="font-family:Arial;font-size:30"> 
necessary. </text>
<text
x="510.0" y="165.0"
text-anchor="left"
style="font-family:Arial;font-size:40"> 
2 </text>
<text
x="570.0" y="165.0"
text-anchor="left"
style="font-family:Arial;font-size:30"> 
&#8729; 1 tsp olive oil </text>
<polyline points="625.0,345.0 655.0,425.0 845.0,425.0 875.0,345.0" 
style="fill:none;stroke:black;stroke-width:2" /><text
x="910.0" y="425.0"
text-anchor="left"
style="font-family:Arial;font-size:30"> 
A </text>
<text
x="750.0" y="485.0"
text-anchor="middle"
style="font-family:Arial;font-size:38"> 
COAT &amp; COVER </text>
<text
x="1510.0" y="355.0"
text-anchor="left"
style="font-family:Arial;font-size:40"> 
2 </text>
<text
x="1550.0" y="355.0"
text-anchor="left"
style="font-family:Arial;font-size:30"> 
Form the dough into a ball and </text>
<text
x="1550.0" y="385.0"
text-anchor="left"
style="font-family:Arial;font-size:30"> 
coat with a olive oil. Cover </text>
<text
x="1550.0" y="415.0"
text-anchor="left"
style="font-family:Arial;font-size:30"> 
the mixing bowl with cling </text>
<text
x="1550.0" y="445.0"
text-anchor="left"
style="font-family:Arial;font-size:30"> 
film and leave to rise for 2 </text>
<text
x="1550.0" y="475.0"
text-anchor="left"
style="font-family:Arial;font-size:30"> 
hours. </text>
<text
x="1010.0" y="165.0"
text-anchor="left"
style="font-family:Arial;font-size:40"> 
3 </text>
<text
x="1070.0" y="165.0"
text-anchor="left"
style="font-family:Arial;font-size:30"> 
&#8729; 5 tbsp tinned tomatoes </text>
<text
x="1070.0" y="195.0"
text-anchor="left"
style="font-family:Arial;font-size:30"> 
&#8729; 1 tsp tomato puree </text>
<text
x="1070.0" y="225.0"
text-anchor="left"
style="font-family:Arial;font-size:30"> 
&#8729; 1/2 tsp sugar </text>
<text
x="1070.0" y="255.0"
text-anchor="left"
style="font-family:Arial;font-size:30"> 
&#8729; 1/2 tsp oregano </text>
<text
x="1070.0" y="285.0"
text-anchor="left"
style="font-family:Arial;font-size:30"> 
&#8729; 2 tsp olive oil </text>
<text
x="1070.0" y="315.0"
text-anchor="left"
style="font-family:Arial;font-size:30"> 
&#8729; 3 fresh basil leaves </text>
<text
x="1090.0" y="345.0"
text-anchor="left"
style="font-family:Arial;font-size:30"> 
(chopped) </text>
<polyline points="1125.0,345.0 1155.0,425.0 1345.0,425.0 1375.0,345.0" 
style="fill:none;stroke:black;stroke-width:2" /><text
x="1410.0" y="425.0"
text-anchor="left"
style="font-family:Arial;font-size:30"> 
B </text>
<text
x="1250.0" y="485.0"
text-anchor="middle"
style="font-family:Arial;font-size:40"> 
CRUSH &amp; MIX </text>
<text
x="10.0" y="565.0"
text-anchor="left"
style="font-family:Arial;font-size:40"> 
4 </text>
<text
x="70.0" y="565.0"
text-anchor="left"
style="font-family:Arial;font-size:30"> 
&#8729; 1 tbsp olive oil </text>
<text
x="70.0" y="595.0"
text-anchor="left"
style="font-family:Arial;font-size:30"> 
&#8729; 1/tsp oregano </text>
<text
x="70.0" y="625.0"
text-anchor="left"
style="font-family:Arial;font-size:30"> 
&#8729; 1/2 tsp salt </text>
<text
x="70.0" y="655.0"
text-anchor="left"
style="font-family:Arial;font-size:30"> 
&#8729; 1/2 tsp chilli flakes </text>
<polyline points="60.0,769.0 80.0,801.0 270.0,801.0 290.0,769.0" 
style="fill:none;stroke:black;stroke-width:2" /><polyline points="282.5,785.0 425.0,785.0" 
style="fill:none;stroke:black;stroke-width:2" /><text
x="250.0" y="885.0"
text-anchor="middle"
style="font-family:Arial;font-size:40"> 
SPREAD </text>
<text
x="510.0" y="565.0"
text-anchor="left"
style="font-family:Arial;font-size:40"> 
5 </text>
<text
x="570.0" y="565.0"
text-anchor="left"
style="font-family:Arial;font-size:30"> 
&#8729; mixing bowl A contents </text>
<polyline points="560.0,769.0 580.0,801.0 770.0,801.0 790.0,769.0" 
style="fill:none;stroke:black;stroke-width:2" /><polyline points="782.5,785.0 925.0,785.0" 
style="fill:none;stroke:black;stroke-width:2" /><text
x="750.0" y="885.0"
text-anchor="middle"
style="font-family:Arial;font-size:38"> 
PRESS &amp; SPREAD </text>
<text
x="1010.0" y="565.0"
text-anchor="left"
style="font-family:Arial;font-size:40"> 
6 </text>
<text
x="1070.0" y="565.0"
text-anchor="left"
style="font-family:Arial;font-size:30"> 
&#8729; 1 tsp olive oil </text>
<polyline points="1060.0,769.0 1080.0,801.0 1270.0,801.0 1290.0,769.0" 
style="fill:none;stroke:black;stroke-width:2" /><polyline points="1282.5,785.0 1425.0,785.0" 
style="fill:none;stroke:black;stroke-width:2" /><text
x="1250.0" y="885.0"
text-anchor="middle"
style="font-family:Arial;font-size:40"> 
COAT &amp; HEAT </text>
<text
x="1510.0" y="545.0"
text-anchor="left"
style="font-family:Arial;font-size:40"> 
6 </text>
<text
x="1550.0" y="545.0"
text-anchor="left"
style="font-family:Arial;font-size:30"> 
Leave to rise for around 30 </text>
<text
x="1550.0" y="575.0"
text-anchor="left"
style="font-family:Arial;font-size:30"> 
mins, then heat on the hob </text>
<text
x="1550.0" y="605.0"
text-anchor="left"
style="font-family:Arial;font-size:30"> 
until the base is browned. </text>
<text
x="10.0" y="965.0"
text-anchor="left"
style="font-family:Arial;font-size:40"> 
7 </text>
<text
x="70.0" y="965.0"
text-anchor="left"
style="font-family:Arial;font-size:30"> 
&#8729; mixing bowl B contents </text>
<text
x="70.0" y="995.0"
text-anchor="left"
style="font-family:Arial;font-size:30"> 
&#8729; 1 tbsp parmesan </text>
<text
x="70.0" y="1025.0"
text-anchor="left"
style="font-family:Arial;font-size:30"> 
&#8729; 150 g pizza mozzarella </text>
<polyline points="60.0,1169.0 80.0,1201.0 270.0,1201.0 290.0,1169.0" 
style="fill:none;stroke:black;stroke-width:2" /><polyline points="282.5,1185.0 425.0,1185.0" 
style="fill:none;stroke:black;stroke-width:2" /><text
x="250.0" y="1285.0"
text-anchor="middle"
style="font-family:Arial;font-size:38"> 
ASSEMBLE &amp; BROIL </text>
<text
x="1510.0" y="675.0"
text-anchor="left"
style="font-family:Arial;font-size:40"> 
7 </text>
<text
x="1550.0" y="675.0"
text-anchor="left"
style="font-family:Arial;font-size:30"> 
Keep mozzarella in the fridge </text>
<text
x="1550.0" y="705.0"
text-anchor="left"
style="font-family:Arial;font-size:30"> 
until use. Remove pan from the </text>
<text
x="1550.0" y="735.0"
text-anchor="left"
style="font-family:Arial;font-size:30"> 
hob, add the toppings, then </text>
<text
x="1550.0" y="765.0"
text-anchor="left"
style="font-family:Arial;font-size:30"> 
transfer to the broiler. </text>
<text
x="1550.0" y="795.0"
text-anchor="left"
style="font-family:Arial;font-size:30"> 
Remove when the cheese is </text>
<text
x="1550.0" y="825.0"
text-anchor="left"
style="font-family:Arial;font-size:30"> 
browned. </text>
</svg>