<?xml version="1.0" encoding="UTF-8"?>
<svg xmlns="http://www.w3.org/2000/svg" width="2000" height="925.0">
<text x="40.0" y="88.0" font-size="80">
Recipe Name<tspan font-size="40">&#160;&#160;by Food Wishes</tspan></text>
<polyline points="0,0 0,925.0 " 
style="fill:none;stroke:black;stroke-width:2" /><polyline points="2000,0 2000,925.0 " 
style="fill:none;stroke:black;stroke-width:2" /><polyline points="500,125.0 500,925.0 " 
style="fill:none;stroke:black;stroke-width:2" /><polyline points="1000,125.0 1000,925.0 " 
style="fill:none;stroke:black;stroke-width:2" /><polyline points="1500,125.0 1500,925.0 " 
style="fill:none;stroke:black;stroke-width:2" /><polyline points="0,0 2000,0 " 
style="fill:none;stroke:black;stroke-width:2" /><polyline points="0,125.0 2000,125.0 " 
style="fill:none;stroke:black;stroke-width:2" /><polyline points="0,925.0 2000,925.0 " 
style="fill:none;stroke:black;stroke-width:2" /><polyline points="0,525.0 1500,525.0 " 
style="fill:none;stroke:black;stroke-width:2" /><text
x="10.0" y="165.0"
text-anchor="left"
style="font-family:Arial;font-size:40"> 
1 </text>
<text
x="70.0" y="165.0"
text-anchor="left"
style="font-family:Arial;font-size:30"> 
&#8729; 1 turkey (deboned) </text>
<text
x="70.0" y="195.0"
text-anchor="left"
style="font-family:Arial;font-size:30"> 
&#8729; string </text>
<polyline points="75.0,377.0 75.0,393.0 425.0,393.0 425.0,377.0 75.0,377.0" 
style="fill:none;stroke:black;stroke-width:2" /><text
x="250.0" y="485.0"
text-anchor="middle"
style="font-family:Arial;font-size:40"> 
FLATTEN </text>
<text
x="1510.0" y="165.0"
text-anchor="left"
style="font-family:Arial;font-size:40"> 
1 </text>
<text
x="1550.0" y="165.0"
text-anchor="left"
style="font-family:Arial;font-size:30"> 
Lay parallel lines of string </text>
<text
x="1550.0" y="195.0"
text-anchor="left"
style="font-family:Arial;font-size:30"> 
down on the board and place </text>
<text
x="1550.0" y="225.0"
text-anchor="left"
style="font-family:Arial;font-size:30"> 
the turkey on top of these. </text>
<text
x="1550.0" y="255.0"
text-anchor="left"
style="font-family:Arial;font-size:30"> 
Lay the deboned turkey out as </text>
<text
x="1550.0" y="285.0"
text-anchor="left"
style="font-family:Arial;font-size:30"> 
flat as possible, making small </text>
<text
x="1550.0" y="315.0"
text-anchor="left"
style="font-family:Arial;font-size:30"> 
cuts to the meat if necessary. </text>
<text
x="510.0" y="165.0"
text-anchor="left"
style="font-family:Arial;font-size:40"> 
2 </text>
<text
x="570.0" y="165.0"
text-anchor="left"
style="font-family:Arial;font-size:30"> 
&#8729; 2 tsp salt </text>
<text
x="570.0" y="195.0"
text-anchor="left"
style="font-family:Arial;font-size:30"> 
&#8729; 2 tbsp black pepper </text>
<polyline points="575.0,377.0 575.0,393.0 925.0,393.0 925.0,377.0 575.0,377.0" 
style="fill:none;stroke:black;stroke-width:2" /><text
x="750.0" y="485.0"
text-anchor="middle"
style="font-family:Arial;font-size:40"> 
SPRINKLE </text>
<text
x="1010.0" y="165.0"
text-anchor="left"
style="font-family:Arial;font-size:40"> 
3 </text>
<text
x="1070.0" y="165.0"
text-anchor="left"
style="font-family:Arial;font-size:30"> 
&#8729; sage and onion stuffing </text>
<polyline points="1075.0,377.0 1075.0,393.0 1425.0,393.0 1425.0,377.0 1075.0,377.0" 
style="fill:none;stroke:black;stroke-width:2" /><text
x="1250.0" y="485.0"
text-anchor="middle"
style="font-family:Arial;font-size:40"> 
LAYER </text>
<text
x="1510.0" y="385.0"
text-anchor="left"
style="font-family:Arial;font-size:40"> 
3 </text>
<text
x="1550.0" y="385.0"
text-anchor="left"
style="font-family:Arial;font-size:30"> 
Use enough stuffing to </text>
<text
x="1550.0" y="415.0"
text-anchor="left"
style="font-family:Arial;font-size:30"> 
uniformly cover the turkey. </text>
<text
x="10.0" y="565.0"
text-anchor="left"
style="font-family:Arial;font-size:40"> 
4 </text>
<text
x="70.0" y="565.0"
text-anchor="left"
style="font-family:Arial;font-size:30"> 
&#8729; 1 tbsp olive oil </text>
<text
x="70.0" y="595.0"
text-anchor="left"
style="font-family:Arial;font-size:30"> 
&#8729; turkey (rolled) </text>
<text
x="70.0" y="625.0"
text-anchor="left"
style="font-family:Arial;font-size:30"> 
&#8729; 2 tsp salt </text>
<polyline points="100.0,769.0 100.0,801.0 400.0,801.0 400.0,769.0" 
style="fill:none;stroke:black;stroke-width:2" /><text
x="250.0" y="885.0"
text-anchor="middle"
style="font-family:Arial;font-size:40"> 
COOK </text>
<text
x="1510.0" y="485.0"
text-anchor="left"
style="font-family:Arial;font-size:40"> 
4 </text>
<text
x="1550.0" y="485.0"
text-anchor="left"
style="font-family:Arial;font-size:30"> 
Use the strings to tightly </text>
<text
x="1550.0" y="515.0"
text-anchor="left"
style="font-family:Arial;font-size:30"> 
roll up and close the turkey. </text>
<text
x="1550.0" y="545.0"
text-anchor="left"
style="font-family:Arial;font-size:30"> 
Tuck the ends in as well by </text>
<text
x="1550.0" y="575.0"
text-anchor="left"
style="font-family:Arial;font-size:30"> 
tying a string around the </text>
<text
x="1550.0" y="605.0"
text-anchor="left"
style="font-family:Arial;font-size:30"> 
'equator'. Grease an oven tray </text>
<text
x="1550.0" y="635.0"
text-anchor="left"
style="font-family:Arial;font-size:30"> 
up and cook the turkey at 230 </text>
<text
x="1550.0" y="665.0"
text-anchor="left"
style="font-family:Arial;font-size:30"> 
C for 15 mins, then 160 C for </text>
<text
x="1550.0" y="695.0"
text-anchor="left"
style="font-family:Arial;font-size:30"> 
about 2 hours. </text>
<text
x="510.0" y="565.0"
text-anchor="left"
style="font-family:Arial;font-size:40"> 
5 </text>
<text
x="570.0" y="565.0"
text-anchor="left"
style="font-family:Arial;font-size:30"> 
&#8729; turkey (cooked) </text>
<polyline points="600.0,769.0 650.0,801.0 850.0,801.0 900.0,769.0" 
style="fill:none;stroke:black;stroke-width:2" /><text
x="750.0" y="885.0"
text-anchor="middle"
style="font-family:Arial;font-size:40"> 
SERVE </text>
<text
x="1510.0" y="765.0"
text-anchor="left"
style="font-family:Arial;font-size:40"> 
5 </text>
<text
x="1550.0" y="765.0"
text-anchor="left"
style="font-family:Arial;font-size:30"> 
Keep the oven tray juices for </text>
<text
x="1550.0" y="795.0"
text-anchor="left"
style="font-family:Arial;font-size:30"> 
gravy. </text>
</svg>