<?xml version="1.0" encoding="UTF-8"?>
<svg xmlns="http://www.w3.org/2000/svg" width="2000" height="525.0">
<text x="40.0" y="88.0" font-size="80">
Raspberry Coulis<tspan font-size="40">&#160;&#160;by Food Wishes</tspan></text>
<polyline points="0,0 0,525.0 " 
style="fill:none;stroke:black;stroke-width:2" /><polyline points="2000,0 2000,525.0 " 
style="fill:none;stroke:black;stroke-width:2" /><polyline points="500,125.0 500,525.0 " 
style="fill:none;stroke:black;stroke-width:2" /><polyline points="1000,125.0 1000,525.0 " 
style="fill:none;stroke:black;stroke-width:2" /><polyline points="1500,125.0 1500,525.0 " 
style="fill:none;stroke:black;stroke-width:2" /><polyline points="0,0 2000,0 " 
style="fill:none;stroke:black;stroke-width:2" /><polyline points="0,125.0 2000,125.0 " 
style="fill:none;stroke:black;stroke-width:2" /><polyline points="0,525.0 2000,525.0 " 
style="fill:none;stroke:black;stroke-width:2" /><text
x="10.0" y="165.0"
text-anchor="left"
style="font-family:Arial;font-size:40"> 
1 </text>
<text
x="70.0" y="165.0"
text-anchor="left"
style="font-family:Arial;font-size:30"> 
&#8729; 600 g raspberry </text>
<text
x="70.0" y="195.0"
text-anchor="left"
style="font-family:Arial;font-size:30"> 
&#8729; 2 tsp lemon juice </text>
<text
x="70.0" y="225.0"
text-anchor="left"
style="font-family:Arial;font-size:30"> 
&#8729; 60 g granulated sugar </text>
<polyline points="50.0,345.0 70.0,425.0 270.0,425.0 290.0,345.0" 
style="fill:none;stroke:black;stroke-width:2" /><polyline points="286.00000000000006,361.0 450.0,361.0" 
style="fill:none;stroke:black;stroke-width:2" /><text
x="250.0" y="485.0"
text-anchor="middle"
style="font-family:Arial;font-size:40"> 
HEAT &amp; MIX </text>
<text
x="1510.0" y="165.0"
text-anchor="left"
style="font-family:Arial;font-size:40"> 
1 </text>
<text
x="1550.0" y="165.0"
text-anchor="left"
style="font-family:Arial;font-size:30"> 
Cover with a lid and heat </text>
<text
x="1550.0" y="195.0"
text-anchor="left"
style="font-family:Arial;font-size:30"> 
gently until the raspberries </text>
<text
x="1550.0" y="225.0"
text-anchor="left"
style="font-family:Arial;font-size:30"> 
disintegrate. </text>
<text
x="510.0" y="165.0"
text-anchor="left"
style="font-family:Arial;font-size:40"> 
2 </text>
<text
x="570.0" y="165.0"
text-anchor="left"
style="font-family:Arial;font-size:30"> 
&#8729; saucepan </text>
<polyline points="625.0,345.0 655.0,425.0 845.0,425.0 875.0,345.0" 
style="fill:none;stroke:black;stroke-width:2" /><text
x="750.0" y="485.0"
text-anchor="middle"
style="font-family:Arial;font-size:35"> 
SIFT &amp; REFRIGERATE </text>
<text
x="1510.0" y="295.0"
text-anchor="left"
style="font-family:Arial;font-size:40"> 
2 </text>
<text
x="1550.0" y="295.0"
text-anchor="left"
style="font-family:Arial;font-size:30"> 
Discard the remaining </text>
<text
x="1550.0" y="325.0"
text-anchor="left"
style="font-family:Arial;font-size:30"> 
raspberry seeds and skin. </text>
</svg>