<?xml version="1.0" encoding="UTF-8"?>
<svg xmlns="http://www.w3.org/2000/svg" width="2000" height="1725.0">
<text x="40.0" y="88.0" font-size="80">
New York Cheesecake<tspan font-size="40">&#160;&#160;by Food Wishes</tspan></text>
<polyline points="0,0 0,1725.0 " 
style="fill:none;stroke:black;stroke-width:2" /><polyline points="2000,0 2000,1725.0 " 
style="fill:none;stroke:black;stroke-width:2" /><polyline points="500,125.0 500,1725.0 " 
style="fill:none;stroke:black;stroke-width:2" /><polyline points="1000,125.0 1000,1725.0 " 
style="fill:none;stroke:black;stroke-width:2" /><polyline points="1500,125.0 1500,1725.0 " 
style="fill:none;stroke:black;stroke-width:2" /><polyline points="0,0 2000,0 " 
style="fill:none;stroke:black;stroke-width:2" /><polyline points="0,125.0 2000,125.0 " 
style="fill:none;stroke:black;stroke-width:2" /><polyline points="0,1725.0 2000,1725.0 " 
style="fill:none;stroke:black;stroke-width:2" /><polyline points="0,525.0 1500,525.0 " 
style="fill:none;stroke:black;stroke-width:2" /><polyline points="0,925.0 1500,925.0 " 
style="fill:none;stroke:black;stroke-width:2" /><polyline points="0,1325.0 1500,1325.0 " 
style="fill:none;stroke:black;stroke-width:2" /><text
x="10.0" y="165.0"
text-anchor="left"
style="font-family:Arial;font-size:40"> 
1 </text>
<text
x="70.0" y="165.0"
text-anchor="left"
style="font-family:Arial;font-size:30"> 
&#8729; 18 graham crackers </text>
<text
x="90.0" y="195.0"
text-anchor="left"
style="font-family:Arial;font-size:30"> 
(crushed) </text>
<text
x="70.0" y="225.0"
text-anchor="left"
style="font-family:Arial;font-size:30"> 
&#8729; 3 tbsp unsalted butter </text>
<text
x="90.0" y="255.0"
text-anchor="left"
style="font-family:Arial;font-size:30"> 
(melted) </text>
<polyline points="125.0,345.0 155.0,425.0 345.0,425.0 375.0,345.0" 
style="fill:none;stroke:black;stroke-width:2" /><text
x="410.0" y="425.0"
text-anchor="left"
style="font-family:Arial;font-size:30"> 
A </text>
<text
x="250.0" y="485.0"
text-anchor="middle"
style="font-family:Arial;font-size:40"> 
MIX </text>
<text
x="1510.0" y="165.0"
text-anchor="left"
style="font-family:Arial;font-size:40"> 
1 </text>
<text
x="1550.0" y="165.0"
text-anchor="left"
style="font-family:Arial;font-size:30"> 
Digestive biscuits are a </text>
<text
x="1550.0" y="195.0"
text-anchor="left"
style="font-family:Arial;font-size:30"> 
suitable substitute for graham </text>
<text
x="1550.0" y="225.0"
text-anchor="left"
style="font-family:Arial;font-size:30"> 
crackers. </text>
<text
x="510.0" y="165.0"
text-anchor="left"
style="font-family:Arial;font-size:40"> 
2 </text>
<text
x="570.0" y="165.0"
text-anchor="left"
style="font-family:Arial;font-size:30"> 
&#8729; mixing bowl A contents </text>
<polyline points="620.0,345.0 620.0,425.0 880.0,425.0 880.0,345.0" 
style="fill:none;stroke:black;stroke-width:2" /><polyline points="620.0,369.0 610.0,369.0 610.0,401.0 620.0,401.0" 
style="fill:none;stroke:black;stroke-width:2" /><text
x="750.0" y="485.0"
text-anchor="middle"
style="font-family:Arial;font-size:38"> 
PRESS &amp; SPREAD </text>
<text
x="1510.0" y="295.0"
text-anchor="left"
style="font-family:Arial;font-size:40"> 
2 </text>
<text
x="1550.0" y="295.0"
text-anchor="left"
style="font-family:Arial;font-size:30"> 
Push up against the edges too. </text>
<text
x="1010.0" y="165.0"
text-anchor="left"
style="font-family:Arial;font-size:40"> 
3 </text>
<text
x="1070.0" y="165.0"
text-anchor="left"
style="font-family:Arial;font-size:30"> 
&#8729; 30 g plain flour </text>
<text
x="1070.0" y="195.0"
text-anchor="left"
style="font-family:Arial;font-size:30"> 
&#8729; 240 g sour cream </text>
<text
x="1070.0" y="225.0"
text-anchor="left"
style="font-family:Arial;font-size:30"> 
&#8729; 1 tbsp vanilla essence </text>
<polyline points="1125.0,345.0 1155.0,425.0 1345.0,425.0 1375.0,345.0" 
style="fill:none;stroke:black;stroke-width:2" /><text
x="1410.0" y="425.0"
text-anchor="left"
style="font-family:Arial;font-size:30"> 
B </text>
<text
x="1250.0" y="485.0"
text-anchor="middle"
style="font-family:Arial;font-size:40"> 
MIX </text>
<text
x="10.0" y="565.0"
text-anchor="left"
style="font-family:Arial;font-size:40"> 
4 </text>
<text
x="70.0" y="565.0"
text-anchor="left"
style="font-family:Arial;font-size:30"> 
&#8729; 1800 g cream cheese (room </text>
<text
x="90.0" y="595.0"
text-anchor="left"
style="font-family:Arial;font-size:30"> 
temperature) </text>
<text
x="70.0" y="625.0"
text-anchor="left"
style="font-family:Arial;font-size:30"> 
&#8729; 300 g white sugar </text>
<polyline points="125.0,745.0 155.0,825.0 345.0,825.0 375.0,745.0" 
style="fill:none;stroke:black;stroke-width:2" /><text
x="410.0" y="825.0"
text-anchor="left"
style="font-family:Arial;font-size:30"> 
C </text>
<text
x="250.0" y="885.0"
text-anchor="middle"
style="font-family:Arial;font-size:40"> 
MIX </text>
<text
x="1510.0" y="365.0"
text-anchor="left"
style="font-family:Arial;font-size:40"> 
4 </text>
<text
x="1550.0" y="365.0"
text-anchor="left"
style="font-family:Arial;font-size:30"> 
Mix the sugar into the cream </text>
<text
x="1550.0" y="395.0"
text-anchor="left"
style="font-family:Arial;font-size:30"> 
cheese with a wooden spoon. </text>
<text
x="510.0" y="565.0"
text-anchor="left"
style="font-family:Arial;font-size:40"> 
5 </text>
<text
x="570.0" y="565.0"
text-anchor="left"
style="font-family:Arial;font-size:30"> 
&#8729; 80 ml whole milk </text>
<polyline points="625.0,745.0 655.0,825.0 845.0,825.0 875.0,745.0" 
style="fill:none;stroke:black;stroke-width:2" /><text
x="910.0" y="825.0"
text-anchor="left"
style="font-family:Arial;font-size:30"> 
C </text>
<text
x="750.0" y="885.0"
text-anchor="middle"
style="font-family:Arial;font-size:40"> 
MIX </text>
<text
x="1510.0" y="465.0"
text-anchor="left"
style="font-family:Arial;font-size:40"> 
5 </text>
<text
x="1550.0" y="465.0"
text-anchor="left"
style="font-family:Arial;font-size:30"> 
Only mix sufficiently to full </text>
<text
x="1550.0" y="495.0"
text-anchor="left"
style="font-family:Arial;font-size:30"> 
incorporate the milk and do </text>
<text
x="1550.0" y="525.0"
text-anchor="left"
style="font-family:Arial;font-size:30"> 
not overbeat. </text>
<text
x="1010.0" y="565.0"
text-anchor="left"
style="font-family:Arial;font-size:40"> 
6 </text>
<text
x="1070.0" y="565.0"
text-anchor="left"
style="font-family:Arial;font-size:30"> 
&#8729; 4 eggs </text>
<polyline points="1125.0,745.0 1155.0,825.0 1345.0,825.0 1375.0,745.0" 
style="fill:none;stroke:black;stroke-width:2" /><text
x="1410.0" y="825.0"
text-anchor="left"
style="font-family:Arial;font-size:30"> 
C </text>
<text
x="1250.0" y="885.0"
text-anchor="middle"
style="font-family:Arial;font-size:40"> 
MIX </text>
<text
x="1510.0" y="595.0"
text-anchor="left"
style="font-family:Arial;font-size:40"> 
6 </text>
<text
x="1550.0" y="595.0"
text-anchor="left"
style="font-family:Arial;font-size:30"> 
Add eggs one at a time. </text>
<text
x="10.0" y="965.0"
text-anchor="left"
style="font-family:Arial;font-size:40"> 
7 </text>
<text
x="70.0" y="965.0"
text-anchor="left"
style="font-family:Arial;font-size:30"> 
&#8729; 1 tsp lemon zest </text>
<text
x="70.0" y="995.0"
text-anchor="left"
style="font-family:Arial;font-size:30"> 
&#8729; 1 tsp orange zest </text>
<polyline points="125.0,1145.0 155.0,1225.0 345.0,1225.0 375.0,1145.0" 
style="fill:none;stroke:black;stroke-width:2" /><text
x="410.0" y="1225.0"
text-anchor="left"
style="font-family:Arial;font-size:30"> 
C </text>
<text
x="250.0" y="1285.0"
text-anchor="middle"
style="font-family:Arial;font-size:40"> 
MIX </text>
<text
x="510.0" y="965.0"
text-anchor="left"
style="font-family:Arial;font-size:40"> 
8 </text>
<text
x="570.0" y="965.0"
text-anchor="left"
style="font-family:Arial;font-size:30"> 
&#8729; mixing bowl B contents </text>
<polyline points="625.0,1145.0 655.0,1225.0 845.0,1225.0 875.0,1145.0" 
style="fill:none;stroke:black;stroke-width:2" /><text
x="910.0" y="1225.0"
text-anchor="left"
style="font-family:Arial;font-size:30"> 
C </text>
<text
x="750.0" y="1285.0"
text-anchor="middle"
style="font-family:Arial;font-size:40"> 
MIX </text>
<text
x="1010.0" y="965.0"
text-anchor="left"
style="font-family:Arial;font-size:40"> 
9 </text>
<text
x="1070.0" y="965.0"
text-anchor="left"
style="font-family:Arial;font-size:30"> 
&#8729; mixing bowl B contents </text>
<polyline points="1120.0,1145.0 1120.0,1225.0 1380.0,1225.0 1380.0,1145.0" 
style="fill:none;stroke:black;stroke-width:2" /><polyline points="1120.0,1169.0 1110.0,1169.0 1110.0,1201.0 1120.0,1201.0" 
style="fill:none;stroke:black;stroke-width:2" /><text
x="1250.0" y="1285.0"
text-anchor="middle"
style="font-family:Arial;font-size:40"> 
FILL &amp; BAKE </text>
<text
x="1510.0" y="665.0"
text-anchor="left"
style="font-family:Arial;font-size:40"> 
9 </text>
<text
x="1550.0" y="665.0"
text-anchor="left"
style="font-family:Arial;font-size:30"> 
Tap firmly onto the work </text>
<text
x="1550.0" y="695.0"
text-anchor="left"
style="font-family:Arial;font-size:30"> 
surface to ensure that no air </text>
<text
x="1550.0" y="725.0"
text-anchor="left"
style="font-family:Arial;font-size:30"> 
bubbles remain. Bake at 175 C </text>
<text
x="1550.0" y="755.0"
text-anchor="left"
style="font-family:Arial;font-size:30"> 
for 60 mins, then turn off the </text>
<text
x="1550.0" y="785.0"
text-anchor="left"
style="font-family:Arial;font-size:30"> 
heat with the cheesecake left </text>
<text
x="1550.0" y="815.0"
text-anchor="left"
style="font-family:Arial;font-size:30"> 
inside the oven to cool down. </text>
<text
x="10.0" y="1365.0"
text-anchor="left"
style="font-family:Arial;font-size:40"> 
10 </text>
<text
x="70.0" y="1365.0"
text-anchor="left"
style="font-family:Arial;font-size:30"> 
&#8729; strawberry sauce </text>
<text
x="70.0" y="1395.0"
text-anchor="left"
style="font-family:Arial;font-size:30"> 
&#8729; fresh strawberries </text>
<polyline points="100.0,1569.0 150.0,1601.0 350.0,1601.0 400.0,1569.0" 
style="fill:none;stroke:black;stroke-width:2" /><text
x="250.0" y="1685.0"
text-anchor="middle"
style="font-family:Arial;font-size:38"> 
DECORATE &amp; SERVE </text>
</svg>