<?xml version="1.0" encoding="UTF-8"?>
<svg xmlns="http://www.w3.org/2000/svg" width="2000" height="925.0">
<text x="40.0" y="88.0" font-size="80">
Fish Stock<tspan font-size="40">&#160;&#160;by French Cooking Academy</tspan></text>
<polyline points="0,0 0,925.0 " 
style="fill:none;stroke:black;stroke-width:2" /><polyline points="2000,0 2000,925.0 " 
style="fill:none;stroke:black;stroke-width:2" /><polyline points="500,125.0 500,925.0 " 
style="fill:none;stroke:black;stroke-width:2" /><polyline points="1000,125.0 1000,925.0 " 
style="fill:none;stroke:black;stroke-width:2" /><polyline points="1500,125.0 1500,925.0 " 
style="fill:none;stroke:black;stroke-width:2" /><polyline points="0,0 2000,0 " 
style="fill:none;stroke:black;stroke-width:2" /><polyline points="0,125.0 2000,125.0 " 
style="fill:none;stroke:black;stroke-width:2" /><polyline points="0,925.0 2000,925.0 " 
style="fill:none;stroke:black;stroke-width:2" /><polyline points="0,525.0 1500,525.0 " 
style="fill:none;stroke:black;stroke-width:2" /><text
x="10.0" y="165.0"
text-anchor="left"
style="font-family:Arial;font-size:40"> 
1 </text>
<text
x="70.0" y="165.0"
text-anchor="left"
style="font-family:Arial;font-size:30"> 
&#8729; 50 g butter </text>
<polyline points="125.0,345.0 135.0,425.0 365.0,425.0 375.0,345.0" 
style="fill:none;stroke:black;stroke-width:2" /><polyline points="130.0,345.0 110.0,345.0" 
style="fill:none;stroke:black;stroke-width:2" /><polyline points="370.0,345.0 390.0,345.0" 
style="fill:none;stroke:black;stroke-width:2" /><text
x="250.0" y="485.0"
text-anchor="middle"
style="font-family:Arial;font-size:40"> 
MELT </text>
<text
x="1510.0" y="165.0"
text-anchor="left"
style="font-family:Arial;font-size:40"> 
1 </text>
<text
x="1550.0" y="165.0"
text-anchor="left"
style="font-family:Arial;font-size:30"> 
Do not brown the butter </text>
<text
x="510.0" y="165.0"
text-anchor="left"
style="font-family:Arial;font-size:40"> 
2 </text>
<text
x="570.0" y="165.0"
text-anchor="left"
style="font-family:Arial;font-size:30"> 
&#8729; 50 g shallots </text>
<text
x="570.0" y="195.0"
text-anchor="left"
style="font-family:Arial;font-size:30"> 
&#8729; 80 g white onion </text>
<text
x="570.0" y="225.0"
text-anchor="left"
style="font-family:Arial;font-size:30"> 
&#8729; 30 g carrot </text>
<polyline points="625.0,345.0 635.0,425.0 865.0,425.0 875.0,345.0" 
style="fill:none;stroke:black;stroke-width:2" /><polyline points="630.0,345.0 610.0,345.0" 
style="fill:none;stroke:black;stroke-width:2" /><polyline points="870.0,345.0 890.0,345.0" 
style="fill:none;stroke:black;stroke-width:2" /><text
x="750.0" y="485.0"
text-anchor="middle"
style="font-family:Arial;font-size:40"> 
HEAT &amp; MIX </text>
<text
x="1510.0" y="235.0"
text-anchor="left"
style="font-family:Arial;font-size:40"> 
2 </text>
<text
x="1550.0" y="235.0"
text-anchor="left"
style="font-family:Arial;font-size:30"> 
Sweat the vegetables on a low </text>
<text
x="1550.0" y="265.0"
text-anchor="left"
style="font-family:Arial;font-size:30"> 
temperature. </text>
<text
x="1010.0" y="165.0"
text-anchor="left"
style="font-family:Arial;font-size:40"> 
3 </text>
<text
x="1070.0" y="165.0"
text-anchor="left"
style="font-family:Arial;font-size:30"> 
&#8729; 600 g fish </text>
<text
x="1090.0" y="195.0"
text-anchor="left"
style="font-family:Arial;font-size:30"> 
bones/heads/tails </text>
<polyline points="1125.0,345.0 1135.0,425.0 1365.0,425.0 1375.0,345.0" 
style="fill:none;stroke:black;stroke-width:2" /><polyline points="1130.0,345.0 1110.0,345.0" 
style="fill:none;stroke:black;stroke-width:2" /><polyline points="1370.0,345.0 1390.0,345.0" 
style="fill:none;stroke:black;stroke-width:2" /><text
x="1250.0" y="485.0"
text-anchor="middle"
style="font-family:Arial;font-size:40"> 
HEAT &amp; MIX </text>
<text
x="1510.0" y="335.0"
text-anchor="left"
style="font-family:Arial;font-size:40"> 
3 </text>
<text
x="1550.0" y="335.0"
text-anchor="left"
style="font-family:Arial;font-size:30"> 
Continue at a low temperature </text>
<text
x="1550.0" y="365.0"
text-anchor="left"
style="font-family:Arial;font-size:30"> 
without browning. </text>
<text
x="10.0" y="565.0"
text-anchor="left"
style="font-family:Arial;font-size:40"> 
4 </text>
<text
x="70.0" y="565.0"
text-anchor="left"
style="font-family:Arial;font-size:30"> 
&#8729; 100 ml white wine </text>
<text
x="70.0" y="595.0"
text-anchor="left"
style="font-family:Arial;font-size:30"> 
&#8729; 3 bay leaves </text>
<text
x="70.0" y="625.0"
text-anchor="left"
style="font-family:Arial;font-size:30"> 
&#8729; 1 bunch parsley </text>
<text
x="70.0" y="655.0"
text-anchor="left"
style="font-family:Arial;font-size:30"> 
&#8729; 1 bunch thyme </text>
<text
x="70.0" y="685.0"
text-anchor="left"
style="font-family:Arial;font-size:30"> 
&#8729; water </text>
<polyline points="125.0,745.0 135.0,825.0 365.0,825.0 375.0,745.0" 
style="fill:none;stroke:black;stroke-width:2" /><polyline points="130.0,745.0 110.0,745.0" 
style="fill:none;stroke:black;stroke-width:2" /><polyline points="370.0,745.0 390.0,745.0" 
style="fill:none;stroke:black;stroke-width:2" /><text
x="250.0" y="885.0"
text-anchor="middle"
style="font-family:Arial;font-size:40"> 
HEAT &amp; MIX </text>
<text
x="1510.0" y="435.0"
text-anchor="left"
style="font-family:Arial;font-size:40"> 
4 </text>
<text
x="1550.0" y="435.0"
text-anchor="left"
style="font-family:Arial;font-size:30"> 
Add enough water to cover the </text>
<text
x="1550.0" y="465.0"
text-anchor="left"
style="font-family:Arial;font-size:30"> 
contents. </text>
<text
x="510.0" y="565.0"
text-anchor="left"
style="font-family:Arial;font-size:40"> 
5 </text>
<text
x="570.0" y="565.0"
text-anchor="left"
style="font-family:Arial;font-size:30"> 
&#8729; 1 tsp salt </text>
<text
x="570.0" y="595.0"
text-anchor="left"
style="font-family:Arial;font-size:30"> 
&#8729; 1 tsp black pepper </text>
<polyline points="625.0,745.0 635.0,825.0 865.0,825.0 875.0,745.0" 
style="fill:none;stroke:black;stroke-width:2" /><polyline points="630.0,745.0 610.0,745.0" 
style="fill:none;stroke:black;stroke-width:2" /><polyline points="870.0,745.0 890.0,745.0" 
style="fill:none;stroke:black;stroke-width:2" /><text
x="750.0" y="885.0"
text-anchor="middle"
style="font-family:Arial;font-size:40"> 
COVER </text>
<text
x="1510.0" y="535.0"
text-anchor="left"
style="font-family:Arial;font-size:40"> 
5 </text>
<text
x="1550.0" y="535.0"
text-anchor="left"
style="font-family:Arial;font-size:30"> 
Leave to simmer gently for </text>
<text
x="1550.0" y="565.0"
text-anchor="left"
style="font-family:Arial;font-size:30"> 
around 25 mins. </text>
<text
x="1010.0" y="565.0"
text-anchor="left"
style="font-family:Arial;font-size:40"> 
6 </text>
<text
x="1070.0" y="565.0"
text-anchor="left"
style="font-family:Arial;font-size:30"> 
&#8729; pot contents </text>
<polyline points="1125.0,745.0 1155.0,825.0 1345.0,825.0 1375.0,745.0" 
style="fill:none;stroke:black;stroke-width:2" /><text
x="1250.0" y="885.0"
text-anchor="middle"
style="font-family:Arial;font-size:40"> 
SIEVE </text>
<text
x="1510.0" y="635.0"
text-anchor="left"
style="font-family:Arial;font-size:40"> 
6 </text>
<text
x="1550.0" y="635.0"
text-anchor="left"
style="font-family:Arial;font-size:30"> 
Remove large pieces with a </text>
<text
x="1550.0" y="665.0"
text-anchor="left"
style="font-family:Arial;font-size:30"> 
spider and sieve out any </text>
<text
x="1550.0" y="695.0"
text-anchor="left"
style="font-family:Arial;font-size:30"> 
smaller pieces. </text>
</svg>