<?xml version="1.0" encoding="UTF-8"?>
<svg xmlns="http://www.w3.org/2000/svg" width="2000" height="525.0">
<text x="40.0" y="88.0" font-size="80">
Whisky Cream Sauce</text>
<polyline points="0,0 0,525.0 " 
style="fill:none;stroke:black;stroke-width:2" /><polyline points="2000,0 2000,525.0 " 
style="fill:none;stroke:black;stroke-width:2" /><polyline points="500,125.0 500,525.0 " 
style="fill:none;stroke:black;stroke-width:2" /><polyline points="1000,125.0 1000,525.0 " 
style="fill:none;stroke:black;stroke-width:2" /><polyline points="1500,125.0 1500,525.0 " 
style="fill:none;stroke:black;stroke-width:2" /><polyline points="0,0 2000,0 " 
style="fill:none;stroke:black;stroke-width:2" /><polyline points="0,125.0 2000,125.0 " 
style="fill:none;stroke:black;stroke-width:2" /><polyline points="0,525.0 2000,525.0 " 
style="fill:none;stroke:black;stroke-width:2" /><text
x="10.0" y="165.0"
text-anchor="left"
style="font-family:Arial;font-size:40"> 
1 </text>
<text
x="70.0" y="165.0"
text-anchor="left"
style="font-family:Arial;font-size:30"> 
&#8729; 300 ml single cream </text>
<text
x="70.0" y="195.0"
text-anchor="left"
style="font-family:Arial;font-size:30"> 
&#8729; 2 tbsp whisky </text>
<text
x="70.0" y="225.0"
text-anchor="left"
style="font-family:Arial;font-size:30"> 
&#8729; 2 tbsp wholegrain mustard </text>
<polyline points="50.0,345.0 70.0,425.0 270.0,425.0 290.0,345.0" 
style="fill:none;stroke:black;stroke-width:2" /><polyline points="286.00000000000006,361.0 450.0,361.0" 
style="fill:none;stroke:black;stroke-width:2" /><text
x="250.0" y="485.0"
text-anchor="middle"
style="font-family:Arial;font-size:40"> 
MIX </text>
<text
x="510.0" y="165.0"
text-anchor="left"
style="font-family:Arial;font-size:40"> 
2 </text>
<text
x="570.0" y="165.0"
text-anchor="left"
style="font-family:Arial;font-size:30"> 
&#8729; 1 tsp honey </text>
<text
x="570.0" y="195.0"
text-anchor="left"
style="font-family:Arial;font-size:30"> 
&#8729; 1/2 tsp salt </text>
<text
x="570.0" y="225.0"
text-anchor="left"
style="font-family:Arial;font-size:30"> 
&#8729; 1/2 tsp black pepper </text>
<polyline points="550.0,345.0 570.0,425.0 770.0,425.0 790.0,345.0" 
style="fill:none;stroke:black;stroke-width:2" /><polyline points="786.0,361.0 950.0,361.0" 
style="fill:none;stroke:black;stroke-width:2" /><text
x="750.0" y="485.0"
text-anchor="middle"
style="font-family:Arial;font-size:38"> 
HEAT &amp; WHISK </text>
<text
x="1510.0" y="165.0"
text-anchor="left"
style="font-family:Arial;font-size:40"> 
2 </text>
<text
x="1550.0" y="165.0"
text-anchor="left"
style="font-family:Arial;font-size:30"> 
Heat the sauce up until it is </text>
<text
x="1550.0" y="195.0"
text-anchor="left"
style="font-family:Arial;font-size:30"> 
about to simmer. Use the whisk </text>
<text
x="1550.0" y="225.0"
text-anchor="left"
style="font-family:Arial;font-size:30"> 
to prevent scalding the </text>
<text
x="1550.0" y="255.0"
text-anchor="left"
style="font-family:Arial;font-size:30"> 
bottom. </text>
</svg>